<?xml version="1.0" encoding="utf-8" standalone="no"?>
<!DOCTYPE svg PUBLIC "-//W3C//DTD SVG 1.1//EN"
  "http://www.w3.org/Graphics/SVG/1.1/DTD/svg11.dtd">
<svg xmlns:xlink="http://www.w3.org/1999/xlink" width="648pt" height="432pt" viewBox="0 0 648 432" xmlns="http://www.w3.org/2000/svg" version="1.1">
 <metadata>
  <rdf:RDF xmlns:dc="http://purl.org/dc/elements/1.1/" xmlns:cc="http://creativecommons.org/ns#" xmlns:rdf="http://www.w3.org/1999/02/22-rdf-syntax-ns#">
   <cc:Work>
    <dc:type rdf:resource="http://purl.org/dc/dcmitype/StillImage"/>
    <dc:date>2024-10-06T10:16:07.768554</dc:date>
    <dc:format>image/svg+xml</dc:format>
    <dc:creator>
     <cc:Agent>
      <dc:title>Matplotlib v3.9.2, https://matplotlib.org/</dc:title>
     </cc:Agent>
    </dc:creator>
   </cc:Work>
  </rdf:RDF>
 </metadata>
 <defs>
  <style type="text/css">*{stroke-linejoin: round; stroke-linecap: butt}</style>
 </defs>
 <g id="figure_1">
  <g id="patch_1">
   <path d="M 0 432 
L 648 432 
L 648 0 
L 0 0 
z
" style="fill: #ffffff"/>
  </g>
  <g id="axes_1">
   <g id="patch_2">
    <path d="M 70.86 365.1 
L 628.56 365.1 
L 628.56 19.44 
L 70.86 19.44 
z
" style="fill: #ffffff"/>
   </g>
   <g id="matplotlib.axis_1">
    <g id="xtick_1">
     <g id="line2d_1">
      <path d="M 70.86 365.1 
L 70.86 19.44 
" clip-path="url(#p696c7a2b8c)" style="fill: none; stroke: #cccccc; stroke-width: 1.5; stroke-linecap: round"/>
     </g>
     <g id="text_1">
      <!-- 0 -->
      <g style="fill: #262626" transform="translate(66.272227 389.410391) scale(0.165 -0.165)">
       <defs>
        <path id="ArialMT-30" d="M 266 2259 
Q 266 3072 433 3567 
Q 600 4063 929 4331 
Q 1259 4600 1759 4600 
Q 2128 4600 2406 4451 
Q 2684 4303 2865 4023 
Q 3047 3744 3150 3342 
Q 3253 2941 3253 2259 
Q 3253 1453 3087 958 
Q 2922 463 2592 192 
Q 2263 -78 1759 -78 
Q 1097 -78 719 397 
Q 266 969 266 2259 
z
M 844 2259 
Q 844 1131 1108 757 
Q 1372 384 1759 384 
Q 2147 384 2411 759 
Q 2675 1134 2675 2259 
Q 2675 3391 2411 3762 
Q 2147 4134 1753 4134 
Q 1366 4134 1134 3806 
Q 844 3388 844 2259 
z
" transform="scale(0.015625)"/>
       </defs>
       <use xlink:href="#ArialMT-30"/>
      </g>
     </g>
    </g>
    <g id="xtick_2">
     <g id="line2d_2">
      <path d="M 177.088571 365.1 
L 177.088571 19.44 
" clip-path="url(#p696c7a2b8c)" style="fill: none; stroke: #cccccc; stroke-width: 1.5; stroke-linecap: round"/>
     </g>
     <g id="text_2">
      <!-- 2 -->
      <g style="fill: #262626" transform="translate(172.500798 389.410391) scale(0.165 -0.165)">
       <defs>
        <path id="ArialMT-32" d="M 3222 541 
L 3222 0 
L 194 0 
Q 188 203 259 391 
Q 375 700 629 1000 
Q 884 1300 1366 1694 
Q 2113 2306 2375 2664 
Q 2638 3022 2638 3341 
Q 2638 3675 2398 3904 
Q 2159 4134 1775 4134 
Q 1369 4134 1125 3890 
Q 881 3647 878 3216 
L 300 3275 
Q 359 3922 746 4261 
Q 1134 4600 1788 4600 
Q 2447 4600 2831 4234 
Q 3216 3869 3216 3328 
Q 3216 3053 3103 2787 
Q 2991 2522 2730 2228 
Q 2469 1934 1863 1422 
Q 1356 997 1212 845 
Q 1069 694 975 541 
L 3222 541 
z
" transform="scale(0.015625)"/>
       </defs>
       <use xlink:href="#ArialMT-32"/>
      </g>
     </g>
    </g>
    <g id="xtick_3">
     <g id="line2d_3">
      <path d="M 283.317143 365.1 
L 283.317143 19.44 
" clip-path="url(#p696c7a2b8c)" style="fill: none; stroke: #cccccc; stroke-width: 1.5; stroke-linecap: round"/>
     </g>
     <g id="text_3">
      <!-- 4 -->
      <g style="fill: #262626" transform="translate(278.729369 389.410391) scale(0.165 -0.165)">
       <defs>
        <path id="ArialMT-34" d="M 2069 0 
L 2069 1097 
L 81 1097 
L 81 1613 
L 2172 4581 
L 2631 4581 
L 2631 1613 
L 3250 1613 
L 3250 1097 
L 2631 1097 
L 2631 0 
L 2069 0 
z
M 2069 1613 
L 2069 3678 
L 634 1613 
L 2069 1613 
z
" transform="scale(0.015625)"/>
       </defs>
       <use xlink:href="#ArialMT-34"/>
      </g>
     </g>
    </g>
    <g id="xtick_4">
     <g id="line2d_4">
      <path d="M 389.545714 365.1 
L 389.545714 19.44 
" clip-path="url(#p696c7a2b8c)" style="fill: none; stroke: #cccccc; stroke-width: 1.5; stroke-linecap: round"/>
     </g>
     <g id="text_4">
      <!-- 6 -->
      <g style="fill: #262626" transform="translate(384.957941 389.410391) scale(0.165 -0.165)">
       <defs>
        <path id="ArialMT-36" d="M 3184 3459 
L 2625 3416 
Q 2550 3747 2413 3897 
Q 2184 4138 1850 4138 
Q 1581 4138 1378 3988 
Q 1113 3794 959 3422 
Q 806 3050 800 2363 
Q 1003 2672 1297 2822 
Q 1591 2972 1913 2972 
Q 2475 2972 2870 2558 
Q 3266 2144 3266 1488 
Q 3266 1056 3080 686 
Q 2894 316 2569 119 
Q 2244 -78 1831 -78 
Q 1128 -78 684 439 
Q 241 956 241 2144 
Q 241 3472 731 4075 
Q 1159 4600 1884 4600 
Q 2425 4600 2770 4297 
Q 3116 3994 3184 3459 
z
M 888 1484 
Q 888 1194 1011 928 
Q 1134 663 1356 523 
Q 1578 384 1822 384 
Q 2178 384 2434 671 
Q 2691 959 2691 1453 
Q 2691 1928 2437 2201 
Q 2184 2475 1800 2475 
Q 1419 2475 1153 2201 
Q 888 1928 888 1484 
z
" transform="scale(0.015625)"/>
       </defs>
       <use xlink:href="#ArialMT-36"/>
      </g>
     </g>
    </g>
    <g id="xtick_5">
     <g id="line2d_5">
      <path d="M 495.774286 365.1 
L 495.774286 19.44 
" clip-path="url(#p696c7a2b8c)" style="fill: none; stroke: #cccccc; stroke-width: 1.5; stroke-linecap: round"/>
     </g>
     <g id="text_5">
      <!-- 8 -->
      <g style="fill: #262626" transform="translate(491.186512 389.410391) scale(0.165 -0.165)">
       <defs>
        <path id="ArialMT-38" d="M 1131 2484 
Q 781 2613 612 2850 
Q 444 3088 444 3419 
Q 444 3919 803 4259 
Q 1163 4600 1759 4600 
Q 2359 4600 2725 4251 
Q 3091 3903 3091 3403 
Q 3091 3084 2923 2848 
Q 2756 2613 2416 2484 
Q 2838 2347 3058 2040 
Q 3278 1734 3278 1309 
Q 3278 722 2862 322 
Q 2447 -78 1769 -78 
Q 1091 -78 675 323 
Q 259 725 259 1325 
Q 259 1772 486 2073 
Q 713 2375 1131 2484 
z
M 1019 3438 
Q 1019 3113 1228 2906 
Q 1438 2700 1772 2700 
Q 2097 2700 2305 2904 
Q 2513 3109 2513 3406 
Q 2513 3716 2298 3927 
Q 2084 4138 1766 4138 
Q 1444 4138 1231 3931 
Q 1019 3725 1019 3438 
z
M 838 1322 
Q 838 1081 952 856 
Q 1066 631 1291 507 
Q 1516 384 1775 384 
Q 2178 384 2440 643 
Q 2703 903 2703 1303 
Q 2703 1709 2433 1975 
Q 2163 2241 1756 2241 
Q 1359 2241 1098 1978 
Q 838 1716 838 1322 
z
" transform="scale(0.015625)"/>
       </defs>
       <use xlink:href="#ArialMT-38"/>
      </g>
     </g>
    </g>
    <g id="xtick_6">
     <g id="line2d_6">
      <path d="M 602.002857 365.1 
L 602.002857 19.44 
" clip-path="url(#p696c7a2b8c)" style="fill: none; stroke: #cccccc; stroke-width: 1.5; stroke-linecap: round"/>
     </g>
     <g id="text_6">
      <!-- 10 -->
      <g style="fill: #262626" transform="translate(592.82731 389.410391) scale(0.165 -0.165)">
       <defs>
        <path id="ArialMT-31" d="M 2384 0 
L 1822 0 
L 1822 3584 
Q 1619 3391 1289 3197 
Q 959 3003 697 2906 
L 697 3450 
Q 1169 3672 1522 3987 
Q 1875 4303 2022 4600 
L 2384 4600 
L 2384 0 
z
" transform="scale(0.015625)"/>
       </defs>
       <use xlink:href="#ArialMT-31"/>
       <use xlink:href="#ArialMT-30" x="55.615234"/>
      </g>
     </g>
    </g>
    <g id="text_7">
     <!-- Tempo -->
     <g style="fill: #262626" transform="translate(322.702969 409.573828) scale(0.18 -0.18)">
      <defs>
       <path id="ArialMT-54" d="M 1659 0 
L 1659 4041 
L 150 4041 
L 150 4581 
L 3781 4581 
L 3781 4041 
L 2266 4041 
L 2266 0 
L 1659 0 
z
" transform="scale(0.015625)"/>
       <path id="ArialMT-65" d="M 2694 1069 
L 3275 997 
Q 3138 488 2766 206 
Q 2394 -75 1816 -75 
Q 1088 -75 661 373 
Q 234 822 234 1631 
Q 234 2469 665 2931 
Q 1097 3394 1784 3394 
Q 2450 3394 2872 2941 
Q 3294 2488 3294 1666 
Q 3294 1616 3291 1516 
L 816 1516 
Q 847 969 1125 678 
Q 1403 388 1819 388 
Q 2128 388 2347 550 
Q 2566 713 2694 1069 
z
M 847 1978 
L 2700 1978 
Q 2663 2397 2488 2606 
Q 2219 2931 1791 2931 
Q 1403 2931 1139 2672 
Q 875 2413 847 1978 
z
" transform="scale(0.015625)"/>
       <path id="ArialMT-6d" d="M 422 0 
L 422 3319 
L 925 3319 
L 925 2853 
Q 1081 3097 1340 3245 
Q 1600 3394 1931 3394 
Q 2300 3394 2536 3241 
Q 2772 3088 2869 2813 
Q 3263 3394 3894 3394 
Q 4388 3394 4653 3120 
Q 4919 2847 4919 2278 
L 4919 0 
L 4359 0 
L 4359 2091 
Q 4359 2428 4304 2576 
Q 4250 2725 4106 2815 
Q 3963 2906 3769 2906 
Q 3419 2906 3187 2673 
Q 2956 2441 2956 1928 
L 2956 0 
L 2394 0 
L 2394 2156 
Q 2394 2531 2256 2718 
Q 2119 2906 1806 2906 
Q 1569 2906 1367 2781 
Q 1166 2656 1075 2415 
Q 984 2175 984 1722 
L 984 0 
L 422 0 
z
" transform="scale(0.015625)"/>
       <path id="ArialMT-70" d="M 422 -1272 
L 422 3319 
L 934 3319 
L 934 2888 
Q 1116 3141 1344 3267 
Q 1572 3394 1897 3394 
Q 2322 3394 2647 3175 
Q 2972 2956 3137 2557 
Q 3303 2159 3303 1684 
Q 3303 1175 3120 767 
Q 2938 359 2589 142 
Q 2241 -75 1856 -75 
Q 1575 -75 1351 44 
Q 1128 163 984 344 
L 984 -1272 
L 422 -1272 
z
M 931 1641 
Q 931 1000 1190 694 
Q 1450 388 1819 388 
Q 2194 388 2461 705 
Q 2728 1022 2728 1688 
Q 2728 2322 2467 2637 
Q 2206 2953 1844 2953 
Q 1484 2953 1207 2617 
Q 931 2281 931 1641 
z
" transform="scale(0.015625)"/>
       <path id="ArialMT-6f" d="M 213 1659 
Q 213 2581 725 3025 
Q 1153 3394 1769 3394 
Q 2453 3394 2887 2945 
Q 3322 2497 3322 1706 
Q 3322 1066 3130 698 
Q 2938 331 2570 128 
Q 2203 -75 1769 -75 
Q 1072 -75 642 372 
Q 213 819 213 1659 
z
M 791 1659 
Q 791 1022 1069 705 
Q 1347 388 1769 388 
Q 2188 388 2466 706 
Q 2744 1025 2744 1678 
Q 2744 2294 2464 2611 
Q 2184 2928 1769 2928 
Q 1347 2928 1069 2612 
Q 791 2297 791 1659 
z
" transform="scale(0.015625)"/>
      </defs>
      <use xlink:href="#ArialMT-54"/>
      <use xlink:href="#ArialMT-65" x="49.958984"/>
      <use xlink:href="#ArialMT-6d" x="105.574219"/>
      <use xlink:href="#ArialMT-70" x="188.875"/>
      <use xlink:href="#ArialMT-6f" x="244.490234"/>
     </g>
    </g>
   </g>
   <g id="matplotlib.axis_2">
    <g id="ytick_1">
     <g id="line2d_7">
      <path d="M 70.86 365.1 
L 628.56 365.1 
" clip-path="url(#p696c7a2b8c)" style="fill: none; stroke: #cccccc; stroke-width: 1.5; stroke-linecap: round"/>
     </g>
     <g id="text_8">
      <!-- 0 -->
      <g style="fill: #262626" transform="translate(49.184453 371.005195) scale(0.165 -0.165)">
       <use xlink:href="#ArialMT-30"/>
      </g>
     </g>
    </g>
    <g id="ytick_2">
     <g id="line2d_8">
      <path d="M 70.86 297.619077 
L 628.56 297.619077 
" clip-path="url(#p696c7a2b8c)" style="fill: none; stroke: #cccccc; stroke-width: 1.5; stroke-linecap: round"/>
     </g>
     <g id="text_9">
      <!-- 5 -->
      <g style="fill: #262626" transform="translate(49.184453 303.524272) scale(0.165 -0.165)">
       <defs>
        <path id="ArialMT-35" d="M 266 1200 
L 856 1250 
Q 922 819 1161 601 
Q 1400 384 1738 384 
Q 2144 384 2425 690 
Q 2706 997 2706 1503 
Q 2706 1984 2436 2262 
Q 2166 2541 1728 2541 
Q 1456 2541 1237 2417 
Q 1019 2294 894 2097 
L 366 2166 
L 809 4519 
L 3088 4519 
L 3088 3981 
L 1259 3981 
L 1013 2750 
Q 1425 3038 1878 3038 
Q 2478 3038 2890 2622 
Q 3303 2206 3303 1553 
Q 3303 931 2941 478 
Q 2500 -78 1738 -78 
Q 1113 -78 717 272 
Q 322 622 266 1200 
z
" transform="scale(0.015625)"/>
       </defs>
       <use xlink:href="#ArialMT-35"/>
      </g>
     </g>
    </g>
    <g id="ytick_3">
     <g id="line2d_9">
      <path d="M 70.86 230.138154 
L 628.56 230.138154 
" clip-path="url(#p696c7a2b8c)" style="fill: none; stroke: #cccccc; stroke-width: 1.5; stroke-linecap: round"/>
     </g>
     <g id="text_10">
      <!-- 10 -->
      <g style="fill: #262626" transform="translate(40.008906 236.043349) scale(0.165 -0.165)">
       <use xlink:href="#ArialMT-31"/>
       <use xlink:href="#ArialMT-30" x="55.615234"/>
      </g>
     </g>
    </g>
    <g id="ytick_4">
     <g id="line2d_10">
      <path d="M 70.86 162.65723 
L 628.56 162.65723 
" clip-path="url(#p696c7a2b8c)" style="fill: none; stroke: #cccccc; stroke-width: 1.5; stroke-linecap: round"/>
     </g>
     <g id="text_11">
      <!-- 15 -->
      <g style="fill: #262626" transform="translate(40.008906 168.562426) scale(0.165 -0.165)">
       <use xlink:href="#ArialMT-31"/>
       <use xlink:href="#ArialMT-35" x="55.615234"/>
      </g>
     </g>
    </g>
    <g id="ytick_5">
     <g id="line2d_11">
      <path d="M 70.86 95.176307 
L 628.56 95.176307 
" clip-path="url(#p696c7a2b8c)" style="fill: none; stroke: #cccccc; stroke-width: 1.5; stroke-linecap: round"/>
     </g>
     <g id="text_12">
      <!-- 20 -->
      <g style="fill: #262626" transform="translate(40.008906 101.081502) scale(0.165 -0.165)">
       <use xlink:href="#ArialMT-32"/>
       <use xlink:href="#ArialMT-30" x="55.615234"/>
      </g>
     </g>
    </g>
    <g id="ytick_6">
     <g id="line2d_12">
      <path d="M 70.86 27.695384 
L 628.56 27.695384 
" clip-path="url(#p696c7a2b8c)" style="fill: none; stroke: #cccccc; stroke-width: 1.5; stroke-linecap: round"/>
     </g>
     <g id="text_13">
      <!-- 25 -->
      <g style="fill: #262626" transform="translate(40.008906 33.600579) scale(0.165 -0.165)">
       <use xlink:href="#ArialMT-32"/>
       <use xlink:href="#ArialMT-35" x="55.615234"/>
      </g>
     </g>
    </g>
    <g id="text_14">
     <!-- Valor -->
     <g style="fill: #262626" transform="translate(32.431406 212.615625) rotate(-90) scale(0.18 -0.18)">
      <defs>
       <path id="ArialMT-56" d="M 1803 0 
L 28 4581 
L 684 4581 
L 1875 1253 
Q 2019 853 2116 503 
Q 2222 878 2363 1253 
L 3600 4581 
L 4219 4581 
L 2425 0 
L 1803 0 
z
" transform="scale(0.015625)"/>
       <path id="ArialMT-61" d="M 2588 409 
Q 2275 144 1986 34 
Q 1697 -75 1366 -75 
Q 819 -75 525 192 
Q 231 459 231 875 
Q 231 1119 342 1320 
Q 453 1522 633 1644 
Q 813 1766 1038 1828 
Q 1203 1872 1538 1913 
Q 2219 1994 2541 2106 
Q 2544 2222 2544 2253 
Q 2544 2597 2384 2738 
Q 2169 2928 1744 2928 
Q 1347 2928 1158 2789 
Q 969 2650 878 2297 
L 328 2372 
Q 403 2725 575 2942 
Q 747 3159 1072 3276 
Q 1397 3394 1825 3394 
Q 2250 3394 2515 3294 
Q 2781 3194 2906 3042 
Q 3031 2891 3081 2659 
Q 3109 2516 3109 2141 
L 3109 1391 
Q 3109 606 3145 398 
Q 3181 191 3288 0 
L 2700 0 
Q 2613 175 2588 409 
z
M 2541 1666 
Q 2234 1541 1622 1453 
Q 1275 1403 1131 1340 
Q 988 1278 909 1158 
Q 831 1038 831 891 
Q 831 666 1001 516 
Q 1172 366 1500 366 
Q 1825 366 2078 508 
Q 2331 650 2450 897 
Q 2541 1088 2541 1459 
L 2541 1666 
z
" transform="scale(0.015625)"/>
       <path id="ArialMT-6c" d="M 409 0 
L 409 4581 
L 972 4581 
L 972 0 
L 409 0 
z
" transform="scale(0.015625)"/>
       <path id="ArialMT-72" d="M 416 0 
L 416 3319 
L 922 3319 
L 922 2816 
Q 1116 3169 1280 3281 
Q 1444 3394 1641 3394 
Q 1925 3394 2219 3213 
L 2025 2691 
Q 1819 2813 1613 2813 
Q 1428 2813 1281 2702 
Q 1134 2591 1072 2394 
Q 978 2094 978 1738 
L 978 0 
L 416 0 
z
" transform="scale(0.015625)"/>
      </defs>
      <use xlink:href="#ArialMT-56"/>
      <use xlink:href="#ArialMT-61" x="59.324219"/>
      <use xlink:href="#ArialMT-6c" x="114.939453"/>
      <use xlink:href="#ArialMT-6f" x="137.15625"/>
      <use xlink:href="#ArialMT-72" x="192.771484"/>
     </g>
    </g>
   </g>
   <g id="PolyCollection_1"/>
   <g id="PolyCollection_2">
    <defs>
     <path id="mdc554d6eab" d="M 70.86 -92.120516 
L 70.86 -37.773859 
L 71.924415 -42.829387 
L 72.988829 -39.758138 
L 74.053244 -41.256206 
L 75.117658 -47.857964 
L 76.182073 -52.744119 
L 77.246487 -45.921628 
L 78.310902 -42.337545 
L 79.375316 -40.267907 
L 80.439731 -47.055154 
L 81.504145 -43.606056 
L 82.56856 -41.521419 
L 83.632975 -49.381207 
L 84.697389 -52.851659 
L 85.761804 -41.679764 
L 86.826218 -47.772721 
L 87.890633 -46.159316 
L 88.955047 -53.762644 
L 90.019462 -52.979928 
L 91.083876 -52.068693 
L 92.148291 -51.715094 
L 93.212705 -54.293941 
L 94.27712 -57.590789 
L 95.341534 -52.305452 
L 96.405949 -54.298395 
L 97.470364 -47.210339 
L 98.534778 -54.772269 
L 99.599193 -56.467555 
L 100.663607 -59.017248 
L 101.728022 -53.643583 
L 102.792436 -55.542642 
L 103.856851 -55.245757 
L 104.921265 -61.685883 
L 105.98568 -61.8792 
L 107.050094 -63.004658 
L 108.114509 -64.549911 
L 109.178924 -60.107796 
L 110.243338 -56.473327 
L 111.307753 -59.383927 
L 112.372167 -52.55833 
L 113.436582 -55.232315 
L 114.500996 -58.471249 
L 115.565411 -63.367284 
L 116.629825 -61.249313 
L 117.69424 -60.342673 
L 118.758654 -61.2047 
L 119.823069 -64.631328 
L 120.887484 -67.084256 
L 121.951898 -69.652186 
L 123.016313 -61.67975 
L 124.080727 -64.565454 
L 125.145142 -72.095238 
L 126.209556 -65.057529 
L 127.273971 -69.015517 
L 128.338385 -71.351268 
L 129.4028 -72.592815 
L 130.467214 -68.174114 
L 131.531629 -71.433981 
L 132.596044 -75.865857 
L 133.660458 -69.191136 
L 134.724873 -69.22556 
L 135.789287 -72.441652 
L 136.853702 -77.006972 
L 137.918116 -75.09124 
L 138.982531 -84.69204 
L 140.046945 -74.186473 
L 141.11136 -78.837338 
L 142.175774 -80.144611 
L 143.240189 -79.860234 
L 144.304603 -76.374781 
L 145.369018 -81.041652 
L 146.433433 -77.891977 
L 147.497847 -78.137817 
L 148.562262 -76.942737 
L 149.626676 -75.975681 
L 150.691091 -81.324096 
L 151.755505 -80.818752 
L 152.81992 -84.595434 
L 153.884334 -84.753162 
L 154.948749 -78.982802 
L 156.013163 -83.616408 
L 157.077578 -81.415811 
L 158.141993 -82.537423 
L 159.206407 -86.411963 
L 160.270822 -88.078961 
L 161.335236 -81.638861 
L 162.399651 -87.529112 
L 163.464065 -82.104491 
L 164.52848 -83.082879 
L 165.592894 -94.831326 
L 166.657309 -88.139922 
L 167.721723 -90.77035 
L 168.786138 -93.646852 
L 169.850553 -92.889985 
L 170.914967 -94.801837 
L 171.979382 -88.113202 
L 173.043796 -93.902045 
L 174.108211 -98.743093 
L 175.172625 -91.780533 
L 176.23704 -99.461667 
L 177.301454 -89.450342 
L 178.365869 -92.13077 
L 179.430283 -97.672811 
L 180.494698 -94.193784 
L 181.559113 -93.46767 
L 182.623527 -101.825127 
L 183.687942 -99.49996 
L 184.752356 -98.298728 
L 185.816771 -93.162615 
L 186.881185 -103.234947 
L 187.9456 -93.122771 
L 189.010014 -99.437469 
L 190.074429 -99.832155 
L 191.138843 -100.398608 
L 192.203258 -105.070467 
L 193.267672 -105.356604 
L 194.332087 -100.328964 
L 195.396502 -100.908244 
L 196.460916 -98.52437 
L 197.525331 -105.976817 
L 198.589745 -105.473359 
L 199.65416 -101.08469 
L 200.718574 -105.689559 
L 201.782989 -101.404129 
L 202.847403 -110.810939 
L 203.911818 -107.810265 
L 204.976232 -104.221493 
L 206.040647 -107.57259 
L 207.105062 -106.118587 
L 208.169476 -107.037781 
L 209.233891 -110.539256 
L 210.298305 -118.415087 
L 211.36272 -114.669481 
L 212.427134 -115.530707 
L 213.491549 -113.968805 
L 214.555963 -109.086261 
L 215.620378 -112.237907 
L 216.684792 -114.673703 
L 217.749207 -115.15164 
L 218.813622 -116.304229 
L 219.878036 -115.500963 
L 220.942451 -115.192888 
L 222.006865 -113.802772 
L 223.07128 -118.11141 
L 224.135694 -112.400952 
L 225.200109 -117.964764 
L 226.264523 -113.574377 
L 227.328938 -117.487721 
L 228.393352 -120.664013 
L 229.457767 -121.184062 
L 230.522182 -121.17 
L 231.586596 -122.791908 
L 232.651011 -123.894113 
L 233.715425 -126.598582 
L 234.77984 -122.528684 
L 235.844254 -126.819856 
L 236.908669 -118.231125 
L 237.973083 -127.042409 
L 239.037498 -131.083416 
L 240.101912 -122.524894 
L 241.166327 -126.445393 
L 242.230741 -120.474669 
L 243.295156 -130.51727 
L 244.359571 -129.323513 
L 245.423985 -127.510222 
L 246.4884 -128.770186 
L 247.552814 -132.012693 
L 248.617229 -130.258523 
L 249.681643 -129.345225 
L 250.746058 -126.305907 
L 251.810472 -129.911778 
L 252.874887 -132.644076 
L 253.939301 -144.299725 
L 255.003716 -133.707876 
L 256.068131 -133.871568 
L 257.132545 -139.018798 
L 258.19696 -141.889285 
L 259.261374 -133.470495 
L 260.325789 -134.673444 
L 261.390203 -139.465839 
L 262.454618 -138.476226 
L 263.519032 -136.259243 
L 264.583447 -135.235587 
L 265.647861 -137.496857 
L 266.712276 -133.723687 
L 267.776691 -142.570555 
L 268.841105 -137.878214 
L 269.90552 -143.881872 
L 270.969934 -143.09323 
L 272.034349 -143.872357 
L 273.098763 -145.523045 
L 274.163178 -143.525088 
L 275.227592 -141.441878 
L 276.292007 -149.376302 
L 277.356421 -146.375311 
L 278.420836 -143.229969 
L 279.485251 -144.672819 
L 280.549665 -146.194122 
L 281.61408 -140.926454 
L 282.678494 -143.594437 
L 283.742909 -145.880176 
L 284.807323 -148.705502 
L 285.871738 -149.526018 
L 286.936152 -149.813947 
L 288.000567 -148.279411 
L 289.064981 -156.332788 
L 290.129396 -153.179823 
L 291.19381 -150.675431 
L 292.258225 -148.926131 
L 293.32264 -148.477103 
L 294.387054 -150.936397 
L 295.451469 -159.941507 
L 296.515883 -158.602336 
L 297.580298 -158.848386 
L 298.644712 -151.333255 
L 299.709127 -152.055135 
L 300.773541 -156.271052 
L 301.837956 -159.066315 
L 302.90237 -158.333733 
L 303.966785 -156.94121 
L 305.0312 -159.866763 
L 306.095614 -151.493244 
L 307.160029 -157.930387 
L 308.224443 -155.580535 
L 309.288858 -165.121337 
L 310.353272 -162.451367 
L 311.417687 -164.098905 
L 312.482101 -162.183511 
L 313.546516 -166.339161 
L 314.61093 -168.008679 
L 315.675345 -161.856395 
L 316.73976 -165.046733 
L 317.804174 -166.451675 
L 318.868589 -169.778828 
L 319.933003 -172.276351 
L 320.997418 -165.875071 
L 322.061832 -165.062398 
L 323.126247 -171.236342 
L 324.190661 -168.786664 
L 325.255076 -167.96796 
L 326.31949 -171.337585 
L 327.383905 -167.216831 
L 328.448319 -166.688356 
L 329.512734 -171.182416 
L 330.577149 -175.602026 
L 331.641563 -172.011629 
L 332.705978 -176.99612 
L 333.770392 -170.110472 
L 334.834807 -171.695453 
L 335.899221 -173.923685 
L 336.963636 -178.822844 
L 338.02805 -177.136609 
L 339.092465 -177.103201 
L 340.156879 -178.869545 
L 341.221294 -176.4459 
L 342.285709 -174.150325 
L 343.350123 -179.309734 
L 344.414538 -180.353936 
L 345.478952 -176.040523 
L 346.543367 -181.202314 
L 347.607781 -182.454045 
L 348.672196 -181.216287 
L 349.73661 -184.717407 
L 350.801025 -189.710726 
L 351.865439 -182.493648 
L 352.929854 -188.838811 
L 353.994269 -182.195891 
L 355.058683 -186.869919 
L 356.123098 -181.138578 
L 357.187512 -184.26345 
L 358.251927 -193.233414 
L 359.316341 -182.935877 
L 360.380756 -189.135052 
L 361.44517 -191.357117 
L 362.509585 -188.542288 
L 363.573999 -188.761937 
L 364.638414 -191.747637 
L 365.702829 -186.668955 
L 366.767243 -190.214314 
L 367.831658 -190.11893 
L 368.896072 -191.993597 
L 369.960487 -194.918876 
L 371.024901 -193.954741 
L 372.089316 -192.986992 
L 373.15373 -183.762438 
L 374.218145 -198.683728 
L 375.282559 -189.359502 
L 376.346974 -201.494325 
L 377.411388 -196.140948 
L 378.475803 -198.077016 
L 379.540218 -186.25648 
L 380.604632 -199.493978 
L 381.669047 -198.201601 
L 382.733461 -197.205379 
L 383.797876 -201.132617 
L 384.86229 -199.732618 
L 385.926705 -205.117031 
L 386.991119 -199.334251 
L 388.055534 -203.422751 
L 389.119948 -202.347923 
L 390.184363 -198.857124 
L 391.248778 -200.407069 
L 392.313192 -206.402034 
L 393.377607 -203.117709 
L 394.442021 -203.763075 
L 395.506436 -210.971928 
L 396.57085 -205.426248 
L 397.635265 -203.630938 
L 398.699679 -204.656472 
L 399.764094 -206.225289 
L 400.828508 -209.300096 
L 401.892923 -207.149227 
L 402.957338 -211.069843 
L 404.021752 -212.76439 
L 405.086167 -215.673293 
L 406.150581 -211.805243 
L 407.214996 -212.987651 
L 408.27941 -210.870839 
L 409.343825 -211.260862 
L 410.408239 -212.12567 
L 411.472654 -207.455739 
L 412.537068 -219.572884 
L 413.601483 -212.428824 
L 414.665898 -209.609204 
L 415.730312 -217.620154 
L 416.794727 -217.448636 
L 417.859141 -213.962672 
L 418.923556 -216.072258 
L 419.98797 -216.759277 
L 421.052385 -221.894942 
L 422.116799 -217.512014 
L 423.181214 -217.634343 
L 424.245628 -220.795368 
L 425.310043 -223.855217 
L 426.374457 -221.302035 
L 427.438872 -223.854764 
L 428.503287 -224.156983 
L 429.567701 -218.499736 
L 430.632116 -224.241448 
L 431.69653 -226.783885 
L 432.760945 -221.750947 
L 433.825359 -227.819726 
L 434.889774 -227.447818 
L 435.954188 -228.4094 
L 437.018603 -234.106865 
L 438.083017 -229.466989 
L 439.147432 -226.89421 
L 440.211847 -226.248985 
L 441.276261 -226.781345 
L 442.340676 -234.808988 
L 443.40509 -229.213506 
L 444.469505 -230.077685 
L 445.533919 -231.147671 
L 446.598334 -232.848949 
L 447.662748 -232.312939 
L 448.727163 -234.527757 
L 449.791577 -229.362672 
L 450.855992 -231.056382 
L 451.920407 -231.630818 
L 452.984821 -235.10778 
L 454.049236 -227.699958 
L 455.11365 -233.581621 
L 456.178065 -246.631798 
L 457.242479 -234.941113 
L 458.306894 -242.92349 
L 459.371308 -238.966172 
L 460.435723 -238.409905 
L 461.500137 -239.595394 
L 462.564552 -238.271312 
L 463.628967 -237.060243 
L 464.693381 -242.978266 
L 465.757796 -242.062772 
L 466.82221 -241.348452 
L 467.886625 -238.793852 
L 468.951039 -238.969535 
L 470.015454 -238.301718 
L 471.079868 -244.240087 
L 472.144283 -240.941837 
L 473.208697 -243.574791 
L 474.273112 -247.294762 
L 475.337526 -248.711547 
L 476.401941 -245.272804 
L 477.466356 -248.918887 
L 478.53077 -247.957967 
L 479.595185 -247.105728 
L 480.659599 -246.062028 
L 481.724014 -246.684952 
L 482.788428 -248.209599 
L 483.852843 -249.382058 
L 484.917257 -258.026374 
L 485.981672 -249.536803 
L 487.046086 -252.829812 
L 488.110501 -253.985782 
L 489.174916 -251.080546 
L 490.23933 -250.586825 
L 491.303745 -250.919745 
L 492.368159 -249.618548 
L 493.432574 -249.987583 
L 494.496988 -251.86962 
L 495.561403 -254.032995 
L 496.625817 -252.554175 
L 497.690232 -257.507099 
L 498.754646 -261.372964 
L 499.819061 -260.658277 
L 500.883476 -264.81138 
L 501.94789 -260.84454 
L 503.012305 -258.243988 
L 504.076719 -263.956525 
L 505.141134 -258.833386 
L 506.205548 -261.492448 
L 507.269963 -265.269484 
L 508.334377 -265.522064 
L 509.398792 -264.796261 
L 510.463206 -261.073438 
L 511.527621 -258.702266 
L 512.592035 -266.345169 
L 513.65645 -263.115951 
L 514.720865 -267.626027 
L 515.785279 -267.886422 
L 516.849694 -267.245088 
L 517.914108 -267.106347 
L 518.978523 -269.345365 
L 520.042937 -266.779675 
L 521.107352 -265.499327 
L 522.171766 -265.447039 
L 523.236181 -269.962067 
L 524.300595 -267.667057 
L 525.36501 -265.80782 
L 526.429425 -274.600096 
L 527.493839 -273.444109 
L 528.558254 -270.14126 
L 529.622668 -275.805352 
L 530.687083 -267.920438 
L 531.751497 -272.164403 
L 532.815912 -274.692139 
L 533.880326 -270.954442 
L 534.944741 -271.732074 
L 536.009155 -278.450112 
L 537.07357 -276.452158 
L 538.137985 -281.150986 
L 539.202399 -276.363931 
L 540.266814 -280.192639 
L 541.331228 -283.78573 
L 542.395643 -279.000558 
L 543.460057 -281.426194 
L 544.524472 -280.751898 
L 545.588886 -282.978518 
L 546.653301 -276.279647 
L 547.717715 -284.480297 
L 548.78213 -280.375925 
L 549.846545 -280.644336 
L 550.910959 -282.868661 
L 551.975374 -287.977151 
L 553.039788 -287.94556 
L 554.104203 -288.729134 
L 555.168617 -291.443763 
L 556.233032 -284.682735 
L 557.297446 -284.650265 
L 558.361861 -284.063546 
L 559.426275 -295.605713 
L 560.49069 -287.48177 
L 561.555104 -291.055381 
L 562.619519 -291.84771 
L 563.683934 -292.647477 
L 564.748348 -290.478776 
L 565.812763 -290.916281 
L 566.877177 -292.2343 
L 567.941592 -293.847804 
L 569.006006 -292.903619 
L 570.070421 -292.963222 
L 571.134835 -295.89528 
L 572.19925 -292.3456 
L 573.263664 -295.747145 
L 574.328079 -297.692339 
L 575.392494 -292.695266 
L 576.456908 -295.009391 
L 577.521323 -297.351607 
L 578.585737 -298.203948 
L 579.650152 -298.877592 
L 580.714566 -296.568065 
L 581.778981 -297.689224 
L 582.843395 -298.076014 
L 583.90781 -306.068463 
L 584.972224 -304.395272 
L 586.036639 -300.952087 
L 587.101054 -305.702356 
L 588.165468 -304.602982 
L 589.229883 -304.512155 
L 590.294297 -303.946785 
L 591.358712 -302.154124 
L 592.423126 -311.077096 
L 593.487541 -307.444847 
L 594.551955 -308.111568 
L 595.61637 -308.525957 
L 596.680784 -304.131057 
L 597.745199 -314.997166 
L 598.809614 -300.644365 
L 599.874028 -309.579945 
L 600.938443 -312.974298 
L 602.002857 -307.975397 
L 602.002857 -357.439196 
L 602.002857 -357.439196 
L 600.938443 -364.211357 
L 599.874028 -359.319005 
L 598.809614 -359.571531 
L 597.745199 -360.721022 
L 596.680784 -361.967164 
L 595.61637 -363.180562 
L 594.551955 -357.460086 
L 593.487541 -359.296577 
L 592.423126 -365.960708 
L 591.358712 -358.263796 
L 590.294297 -357.391342 
L 589.229883 -353.991518 
L 588.165468 -351.335434 
L 587.101054 -359.298462 
L 586.036639 -356.568749 
L 584.972224 -356.713406 
L 583.90781 -354.615946 
L 582.843395 -353.10766 
L 581.778981 -357.44158 
L 580.714566 -353.796487 
L 579.650152 -358.564862 
L 578.585737 -349.158547 
L 577.521323 -353.087327 
L 576.456908 -343.829654 
L 575.392494 -352.529188 
L 574.328079 -351.794972 
L 573.263664 -351.251843 
L 572.19925 -351.839979 
L 571.134835 -353.775564 
L 570.070421 -349.327001 
L 569.006006 -342.719693 
L 567.941592 -351.062737 
L 566.877177 -343.214306 
L 565.812763 -342.762384 
L 564.748348 -344.787267 
L 563.683934 -346.271359 
L 562.619519 -341.315002 
L 561.555104 -343.856496 
L 560.49069 -343.642712 
L 559.426275 -344.541437 
L 558.361861 -330.367521 
L 557.297446 -338.814181 
L 556.233032 -336.850561 
L 555.168617 -341.849374 
L 554.104203 -341.907202 
L 553.039788 -336.015847 
L 551.975374 -339.432374 
L 550.910959 -333.776018 
L 549.846545 -335.55051 
L 548.78213 -337.256538 
L 547.717715 -337.593682 
L 546.653301 -334.061458 
L 545.588886 -339.602535 
L 544.524472 -334.572664 
L 543.460057 -337.142569 
L 542.395643 -330.264171 
L 541.331228 -331.84194 
L 540.266814 -340.022028 
L 539.202399 -324.381842 
L 538.137985 -331.247102 
L 537.07357 -330.128891 
L 536.009155 -330.44129 
L 534.944741 -329.869148 
L 533.880326 -336.953929 
L 532.815912 -328.506432 
L 531.751497 -325.257061 
L 530.687083 -323.910322 
L 529.622668 -331.571577 
L 528.558254 -327.097608 
L 527.493839 -329.427401 
L 526.429425 -326.544134 
L 525.36501 -321.656393 
L 524.300595 -321.742716 
L 523.236181 -319.858241 
L 522.171766 -321.834195 
L 521.107352 -313.757793 
L 520.042937 -317.87321 
L 518.978523 -320.151799 
L 517.914108 -319.625265 
L 516.849694 -316.819367 
L 515.785279 -317.46943 
L 514.720865 -319.103514 
L 513.65645 -318.847781 
L 512.592035 -316.521427 
L 511.527621 -315.799679 
L 510.463206 -313.255537 
L 509.398792 -316.516209 
L 508.334377 -317.436382 
L 507.269963 -317.930189 
L 506.205548 -318.251221 
L 505.141134 -312.067814 
L 504.076719 -311.089108 
L 503.012305 -313.162974 
L 501.94789 -311.984031 
L 500.883476 -318.307992 
L 499.819061 -315.918468 
L 498.754646 -311.530595 
L 497.690232 -310.90948 
L 496.625817 -311.047167 
L 495.561403 -309.754914 
L 494.496988 -307.851571 
L 493.432574 -304.773954 
L 492.368159 -305.295437 
L 491.303745 -306.045591 
L 490.23933 -306.574505 
L 489.174916 -309.827153 
L 488.110501 -310.666085 
L 487.046086 -302.771928 
L 485.981672 -306.689114 
L 484.917257 -310.171781 
L 483.852843 -302.200753 
L 482.788428 -304.828007 
L 481.724014 -298.280305 
L 480.659599 -299.670233 
L 479.595185 -302.402539 
L 478.53077 -302.421835 
L 477.466356 -298.292039 
L 476.401941 -297.828718 
L 475.337526 -295.814065 
L 474.273112 -302.032015 
L 473.208697 -302.444466 
L 472.144283 -299.612688 
L 471.079868 -290.006057 
L 470.015454 -290.904256 
L 468.951039 -291.924938 
L 467.886625 -295.470417 
L 466.82221 -291.232379 
L 465.757796 -303.463834 
L 464.693381 -290.579614 
L 463.628967 -289.453968 
L 462.564552 -288.991363 
L 461.500137 -287.557306 
L 460.435723 -287.619624 
L 459.371308 -292.95687 
L 458.306894 -294.861074 
L 457.242479 -285.477084 
L 456.178065 -291.180858 
L 455.11365 -293.670365 
L 454.049236 -285.855415 
L 452.984821 -281.796978 
L 451.920407 -289.410913 
L 450.855992 -285.594115 
L 449.791577 -284.282944 
L 448.727163 -286.205864 
L 447.662748 -281.764513 
L 446.598334 -285.682325 
L 445.533919 -281.667331 
L 444.469505 -277.541889 
L 443.40509 -279.466494 
L 442.340676 -277.064739 
L 441.276261 -282.878066 
L 440.211847 -279.201486 
L 439.147432 -280.705567 
L 438.083017 -283.563099 
L 437.018603 -284.473939 
L 435.954188 -281.609924 
L 434.889774 -282.900224 
L 433.825359 -276.748864 
L 432.760945 -278.081137 
L 431.69653 -282.894184 
L 430.632116 -267.520913 
L 429.567701 -273.272823 
L 428.503287 -274.403465 
L 427.438872 -278.724492 
L 426.374457 -277.305357 
L 425.310043 -270.609324 
L 424.245628 -268.340162 
L 423.181214 -280.603842 
L 422.116799 -272.185812 
L 421.052385 -273.171024 
L 419.98797 -264.857165 
L 418.923556 -269.676558 
L 417.859141 -268.544219 
L 416.794727 -267.213312 
L 415.730312 -269.78453 
L 414.665898 -273.296773 
L 413.601483 -265.331299 
L 412.537068 -270.936143 
L 411.472654 -266.414628 
L 410.408239 -269.538506 
L 409.343825 -266.985336 
L 408.27941 -264.143209 
L 407.214996 -266.867487 
L 406.150581 -265.869447 
L 405.086167 -268.784121 
L 404.021752 -259.906397 
L 402.957338 -261.185131 
L 401.892923 -257.112861 
L 400.828508 -260.822794 
L 399.764094 -259.871107 
L 398.699679 -256.773514 
L 397.635265 -265.368927 
L 396.57085 -257.69831 
L 395.506436 -260.976507 
L 394.442021 -259.108163 
L 393.377607 -257.556044 
L 392.313192 -258.146303 
L 391.248778 -255.440213 
L 390.184363 -257.420864 
L 389.119948 -259.89032 
L 388.055534 -258.109447 
L 386.991119 -256.522609 
L 385.926705 -254.327023 
L 384.86229 -259.233093 
L 383.797876 -254.302768 
L 382.733461 -250.219475 
L 381.669047 -250.845011 
L 380.604632 -257.73555 
L 379.540218 -244.520621 
L 378.475803 -249.321858 
L 377.411388 -253.135647 
L 376.346974 -250.874191 
L 375.282559 -246.955816 
L 374.218145 -251.125658 
L 373.15373 -240.29895 
L 372.089316 -250.66159 
L 371.024901 -244.517121 
L 369.960487 -250.252647 
L 368.896072 -242.398041 
L 367.831658 -242.685373 
L 366.767243 -242.604149 
L 365.702829 -244.646856 
L 364.638414 -241.580467 
L 363.573999 -238.477308 
L 362.509585 -239.038848 
L 361.44517 -248.636744 
L 360.380756 -239.196917 
L 359.316341 -235.561311 
L 358.251927 -242.828352 
L 357.187512 -235.015399 
L 356.123098 -238.398468 
L 355.058683 -240.922735 
L 353.994269 -240.405032 
L 352.929854 -238.910091 
L 351.865439 -236.917861 
L 350.801025 -241.401646 
L 349.73661 -234.002233 
L 348.672196 -235.026845 
L 347.607781 -234.12433 
L 346.543367 -238.117848 
L 345.478952 -232.704427 
L 344.414538 -235.966543 
L 343.350123 -227.056081 
L 342.285709 -229.278884 
L 341.221294 -237.176424 
L 340.156879 -230.347973 
L 339.092465 -233.839558 
L 338.02805 -230.193334 
L 336.963636 -227.982853 
L 335.899221 -222.489431 
L 334.834807 -226.563886 
L 333.770392 -224.535784 
L 332.705978 -227.332279 
L 331.641563 -226.217825 
L 330.577149 -229.306359 
L 329.512734 -227.971419 
L 328.448319 -220.207861 
L 327.383905 -218.695982 
L 326.31949 -222.815074 
L 325.255076 -224.27475 
L 324.190661 -219.3644 
L 323.126247 -221.132106 
L 322.061832 -214.639815 
L 320.997418 -222.179361 
L 319.933003 -221.563998 
L 318.868589 -226.66631 
L 317.804174 -219.162788 
L 316.73976 -219.688411 
L 315.675345 -214.080918 
L 314.61093 -216.03415 
L 313.546516 -214.443521 
L 312.482101 -208.077816 
L 311.417687 -222.562816 
L 310.353272 -216.480751 
L 309.288858 -215.393547 
L 308.224443 -213.570285 
L 307.160029 -216.748867 
L 306.095614 -209.807061 
L 305.0312 -208.344553 
L 303.966785 -215.579372 
L 302.90237 -213.931129 
L 301.837956 -209.609497 
L 300.773541 -206.165962 
L 299.709127 -211.174968 
L 298.644712 -206.920206 
L 297.580298 -207.911585 
L 296.515883 -210.849058 
L 295.451469 -208.303603 
L 294.387054 -208.997838 
L 293.32264 -204.740211 
L 292.258225 -206.058282 
L 291.19381 -211.057753 
L 290.129396 -208.45192 
L 289.064981 -208.659328 
L 288.000567 -204.405342 
L 286.936152 -198.367382 
L 285.871738 -205.795445 
L 284.807323 -201.258751 
L 283.742909 -200.432641 
L 282.678494 -198.05157 
L 281.61408 -194.6265 
L 280.549665 -199.910287 
L 279.485251 -194.262839 
L 278.420836 -197.031595 
L 277.356421 -198.251883 
L 276.292007 -199.300062 
L 275.227592 -194.433048 
L 274.163178 -193.348683 
L 273.098763 -201.935405 
L 272.034349 -196.285532 
L 270.969934 -201.070552 
L 269.90552 -194.547018 
L 268.841105 -196.136385 
L 267.776691 -200.580519 
L 266.712276 -186.991545 
L 265.647861 -189.892357 
L 264.583447 -195.805877 
L 263.519032 -190.984748 
L 262.454618 -193.105286 
L 261.390203 -194.051911 
L 260.325789 -189.350046 
L 259.261374 -188.408178 
L 258.19696 -190.663286 
L 257.132545 -191.307949 
L 256.068131 -190.118574 
L 255.003716 -181.004353 
L 253.939301 -190.517409 
L 252.874887 -188.669116 
L 251.810472 -181.479672 
L 250.746058 -177.074003 
L 249.681643 -189.710165 
L 248.617229 -181.778916 
L 247.552814 -186.003287 
L 246.4884 -181.347161 
L 245.423985 -180.848023 
L 244.359571 -186.988099 
L 243.295156 -177.528032 
L 242.230741 -181.154813 
L 241.166327 -178.887831 
L 240.101912 -176.936693 
L 239.037498 -180.35876 
L 237.973083 -175.749937 
L 236.908669 -177.108388 
L 235.844254 -178.450729 
L 234.77984 -175.64353 
L 233.715425 -178.786069 
L 232.651011 -184.54495 
L 231.586596 -176.42085 
L 230.522182 -177.739683 
L 229.457767 -174.895907 
L 228.393352 -179.38181 
L 227.328938 -169.871629 
L 226.264523 -173.135105 
L 225.200109 -175.112546 
L 224.135694 -169.25395 
L 223.07128 -171.313313 
L 222.006865 -172.105612 
L 220.942451 -172.410617 
L 219.878036 -170.427336 
L 218.813622 -168.927198 
L 217.749207 -165.583311 
L 216.684792 -169.860987 
L 215.620378 -165.634974 
L 214.555963 -166.02799 
L 213.491549 -170.490269 
L 212.427134 -169.803706 
L 211.36272 -167.63186 
L 210.298305 -170.639598 
L 209.233891 -163.411583 
L 208.169476 -166.025393 
L 207.105062 -157.641661 
L 206.040647 -158.174472 
L 204.976232 -160.042118 
L 203.911818 -161.645776 
L 202.847403 -159.394201 
L 201.782989 -157.662834 
L 200.718574 -159.934786 
L 199.65416 -155.466553 
L 198.589745 -161.544249 
L 197.525331 -160.783035 
L 196.460916 -153.717759 
L 195.396502 -157.951615 
L 194.332087 -155.181167 
L 193.267672 -152.305848 
L 192.203258 -154.418505 
L 191.138843 -155.537378 
L 190.074429 -153.447312 
L 189.010014 -158.043222 
L 187.9456 -153.314574 
L 186.881185 -150.726264 
L 185.816771 -149.804814 
L 184.752356 -153.157563 
L 183.687942 -150.485318 
L 182.623527 -153.379758 
L 181.559113 -147.617645 
L 180.494698 -145.477718 
L 179.430283 -153.76138 
L 178.365869 -142.652693 
L 177.301454 -154.726788 
L 176.23704 -151.306171 
L 175.172625 -142.924783 
L 174.108211 -147.454461 
L 173.043796 -144.396077 
L 171.979382 -139.527941 
L 170.914967 -147.204267 
L 169.850553 -144.514826 
L 168.786138 -148.697262 
L 167.721723 -147.086628 
L 166.657309 -145.597576 
L 165.592894 -141.937578 
L 164.52848 -142.839507 
L 163.464065 -140.3558 
L 162.399651 -137.322789 
L 161.335236 -137.404075 
L 160.270822 -142.86824 
L 159.206407 -138.510616 
L 158.141993 -138.857358 
L 157.077578 -135.866049 
L 156.013163 -135.081021 
L 154.948749 -133.223271 
L 153.884334 -136.645071 
L 152.81992 -135.977618 
L 151.755505 -128.943735 
L 150.691091 -136.900562 
L 149.626676 -136.68464 
L 148.562262 -130.442585 
L 147.497847 -135.082226 
L 146.433433 -126.304587 
L 145.369018 -130.728128 
L 144.304603 -131.514791 
L 143.240189 -127.189836 
L 142.175774 -135.023344 
L 141.11136 -132.604824 
L 140.046945 -129.757599 
L 138.982531 -139.329225 
L 137.918116 -129.027102 
L 136.853702 -130.116146 
L 135.789287 -132.815994 
L 134.724873 -126.313882 
L 133.660458 -125.164065 
L 132.596044 -118.252136 
L 131.531629 -125.552832 
L 130.467214 -121.265293 
L 129.4028 -128.345028 
L 128.338385 -126.660155 
L 127.273971 -122.947394 
L 126.209556 -123.754949 
L 125.145142 -119.15805 
L 124.080727 -119.167164 
L 123.016313 -117.920741 
L 121.951898 -115.046358 
L 120.887484 -115.663171 
L 119.823069 -114.987719 
L 118.758654 -110.958504 
L 117.69424 -116.233618 
L 116.629825 -114.913813 
L 115.565411 -114.653204 
L 114.500996 -110.137025 
L 113.436582 -111.582166 
L 112.372167 -114.994024 
L 111.307753 -110.426512 
L 110.243338 -114.139415 
L 109.178924 -119.601796 
L 108.114509 -113.538414 
L 107.050094 -114.175803 
L 105.98568 -114.235116 
L 104.921265 -111.661616 
L 103.856851 -103.383325 
L 102.792436 -109.737951 
L 101.728022 -105.837697 
L 100.663607 -108.254622 
L 99.599193 -109.916111 
L 98.534778 -114.616346 
L 97.470364 -104.563668 
L 96.405949 -107.694471 
L 95.341534 -108.441039 
L 94.27712 -104.487258 
L 93.212705 -108.991954 
L 92.148291 -105.801216 
L 91.083876 -104.506812 
L 90.019462 -102.088467 
L 88.955047 -107.644242 
L 87.890633 -101.696279 
L 86.826218 -95.979481 
L 85.761804 -104.533696 
L 84.697389 -99.203959 
L 83.632975 -101.694027 
L 82.56856 -93.531899 
L 81.504145 -99.96137 
L 80.439731 -99.049063 
L 79.375316 -95.783308 
L 78.310902 -90.93161 
L 77.246487 -96.148402 
L 76.182073 -97.89173 
L 75.117658 -96.685906 
L 74.053244 -97.56556 
L 72.988829 -90.136218 
L 71.924415 -92.462266 
L 70.86 -92.120516 
z
" style="stroke: #ffa500; stroke-opacity: 0.3; stroke-width: 1.5"/>
    </defs>
    <g clip-path="url(#p696c7a2b8c)">
     <use xlink:href="#mdc554d6eab" x="0" y="432" style="fill: #ffa500; fill-opacity: 0.3; stroke: #ffa500; stroke-opacity: 0.3; stroke-width: 1.5"/>
    </g>
   </g>
   <g id="PolyCollection_3">
    <defs>
     <path id="m92acb5df94" d="M 70.86 -119.293844 
L 70.86 -10.60053 
L 71.924415 -18.012948 
L 72.988829 -14.569098 
L 74.053244 -13.101529 
L 75.117658 -23.443992 
L 76.182073 -30.170314 
L 77.246487 -20.808241 
L 78.310902 -18.040513 
L 79.375316 -12.510207 
L 80.439731 -21.0582 
L 81.504145 -15.4284 
L 82.56856 -15.51618 
L 83.632975 -23.224797 
L 84.697389 -29.675509 
L 85.761804 -10.252797 
L 86.826218 -23.669341 
L 87.890633 -18.390834 
L 88.955047 -26.821845 
L 90.019462 -28.425659 
L 91.083876 -25.849634 
L 92.148291 -24.672033 
L 93.212705 -26.944934 
L 94.27712 -34.142555 
L 95.341534 -24.237659 
L 96.405949 -27.600356 
L 97.470364 -18.533675 
L 98.534778 -24.850231 
L 99.599193 -29.743278 
L 100.663607 -34.39856 
L 101.728022 -27.546525 
L 102.792436 -28.444988 
L 103.856851 -31.176973 
L 104.921265 -36.698017 
L 105.98568 -35.701242 
L 107.050094 -37.419085 
L 108.114509 -40.055659 
L 109.178924 -30.360796 
L 110.243338 -27.640283 
L 111.307753 -33.862634 
L 112.372167 -21.340483 
L 113.436582 -27.057389 
L 114.500996 -32.638361 
L 115.565411 -37.724324 
L 116.629825 -34.417063 
L 117.69424 -32.397201 
L 118.758654 -36.327799 
L 119.823069 -39.453133 
L 120.887484 -42.794798 
L 121.951898 -46.955101 
L 123.016313 -33.559254 
L 124.080727 -37.264598 
L 125.145142 -48.563832 
L 126.209556 -35.708818 
L 127.273971 -42.049579 
L 128.338385 -43.696825 
L 129.4028 -44.716708 
L 130.467214 -41.628525 
L 131.531629 -44.374556 
L 132.596044 -54.672718 
L 133.660458 -41.204672 
L 134.724873 -40.681398 
L 135.789287 -42.254482 
L 136.853702 -50.452385 
L 137.918116 -48.123309 
L 138.982531 -57.373448 
L 140.046945 -46.400911 
L 141.11136 -51.953595 
L 142.175774 -52.705244 
L 143.240189 -56.195433 
L 144.304603 -48.804775 
L 145.369018 -56.198415 
L 146.433433 -53.685672 
L 147.497847 -49.665613 
L 148.562262 -50.192813 
L 149.626676 -45.621202 
L 150.691091 -53.535862 
L 151.755505 -56.756261 
L 152.81992 -58.904342 
L 153.884334 -58.807208 
L 154.948749 -51.862568 
L 156.013163 -57.884102 
L 157.077578 -54.190693 
L 158.141993 -54.377456 
L 159.206407 -60.362637 
L 160.270822 -60.684322 
L 161.335236 -53.756254 
L 162.399651 -62.632273 
L 163.464065 -52.978836 
L 164.52848 -53.204564 
L 165.592894 -71.2782 
L 166.657309 -59.411094 
L 167.721723 -62.612211 
L 168.786138 -66.121647 
L 169.850553 -67.077565 
L 170.914967 -68.600622 
L 171.979382 -62.405833 
L 173.043796 -68.655029 
L 174.108211 -74.387409 
L 175.172625 -66.208408 
L 176.23704 -73.539416 
L 177.301454 -56.812119 
L 178.365869 -66.869808 
L 179.430283 -69.628527 
L 180.494698 -68.551816 
L 181.559113 -66.392683 
L 182.623527 -76.047811 
L 183.687942 -74.00728 
L 184.752356 -70.869311 
L 185.816771 -64.841516 
L 186.881185 -79.489288 
L 187.9456 -63.02687 
L 189.010014 -70.134593 
L 190.074429 -73.024577 
L 191.138843 -72.829223 
L 192.203258 -80.396448 
L 193.267672 -81.881982 
L 194.332087 -72.902862 
L 195.396502 -72.386559 
L 196.460916 -70.927676 
L 197.525331 -78.573708 
L 198.589745 -77.437913 
L 199.65416 -73.893759 
L 200.718574 -78.566945 
L 201.782989 -73.274777 
L 202.847403 -86.519308 
L 203.911818 -80.89251 
L 204.976232 -76.311181 
L 206.040647 -82.271649 
L 207.105062 -80.35705 
L 208.169476 -77.543975 
L 209.233891 -84.103093 
L 210.298305 -92.302831 
L 211.36272 -88.188291 
L 212.427134 -88.394208 
L 213.491549 -85.708073 
L 214.555963 -80.615396 
L 215.620378 -85.539373 
L 216.684792 -87.080062 
L 217.749207 -89.935804 
L 218.813622 -89.992744 
L 219.878036 -88.037777 
L 220.942451 -86.584023 
L 222.006865 -84.651352 
L 223.07128 -91.510458 
L 224.135694 -83.974453 
L 225.200109 -89.390873 
L 226.264523 -83.794013 
L 227.328938 -91.295767 
L 228.393352 -91.305115 
L 229.457767 -94.328139 
L 230.522182 -92.885159 
L 231.586596 -95.977438 
L 232.651011 -93.568694 
L 233.715425 -100.504839 
L 234.77984 -95.97126 
L 235.844254 -101.00442 
L 236.908669 -88.792493 
L 237.973083 -102.688645 
L 239.037498 -106.445744 
L 240.101912 -95.318995 
L 241.166327 -100.224173 
L 242.230741 -90.134598 
L 243.295156 -107.011888 
L 244.359571 -100.49122 
L 245.423985 -100.841321 
L 246.4884 -102.481698 
L 247.552814 -105.017397 
L 248.617229 -104.498327 
L 249.681643 -99.162754 
L 250.746058 -100.921858 
L 251.810472 -104.127831 
L 252.874887 -104.631556 
L 253.939301 -121.190883 
L 255.003716 -110.059637 
L 256.068131 -105.748065 
L 257.132545 -112.874223 
L 258.19696 -117.502285 
L 259.261374 -106.001654 
L 260.325789 -107.335143 
L 261.390203 -112.172804 
L 262.454618 -111.161697 
L 263.519032 -108.89649 
L 264.583447 -104.950442 
L 265.647861 -111.299107 
L 266.712276 -107.089758 
L 267.776691 -113.565572 
L 268.841105 -108.749128 
L 269.90552 -118.549299 
L 270.969934 -114.104569 
L 272.034349 -117.665769 
L 273.098763 -117.316865 
L 274.163178 -118.613291 
L 275.227592 -114.946292 
L 276.292007 -124.414422 
L 277.356421 -120.437024 
L 278.420836 -116.329156 
L 279.485251 -119.877809 
L 280.549665 -119.33604 
L 281.61408 -114.076431 
L 282.678494 -116.365871 
L 283.742909 -118.603944 
L 284.807323 -122.428878 
L 285.871738 -121.391304 
L 286.936152 -125.53723 
L 288.000567 -120.216445 
L 289.064981 -130.169518 
L 290.129396 -125.543774 
L 291.19381 -120.484271 
L 292.258225 -120.360055 
L 293.32264 -120.345549 
L 294.387054 -121.905677 
L 295.451469 -135.760458 
L 296.515883 -132.478974 
L 297.580298 -134.316787 
L 298.644712 -123.53978 
L 299.709127 -122.495218 
L 300.773541 -131.323597 
L 301.837956 -133.794724 
L 302.90237 -130.535035 
L 303.966785 -127.622129 
L 305.0312 -135.627867 
L 306.095614 -122.336335 
L 307.160029 -128.521147 
L 308.224443 -126.58566 
L 309.288858 -139.985232 
L 310.353272 -135.436675 
L 311.417687 -134.866949 
L 312.482101 -139.236359 
L 313.546516 -142.286981 
L 314.61093 -143.995944 
L 315.675345 -135.744134 
L 316.73976 -137.725894 
L 317.804174 -140.096118 
L 318.868589 -141.335087 
L 319.933003 -147.632528 
L 320.997418 -137.722926 
L 322.061832 -140.273689 
L 323.126247 -146.28846 
L 324.190661 -143.497796 
L 325.255076 -139.814566 
L 326.31949 -145.598841 
L 327.383905 -141.477256 
L 328.448319 -139.928604 
L 329.512734 -142.787915 
L 330.577149 -148.74986 
L 331.641563 -144.908531 
L 332.705978 -151.828041 
L 333.770392 -142.897816 
L 334.834807 -144.261237 
L 335.899221 -149.640811 
L 336.963636 -154.24284 
L 338.02805 -150.608247 
L 339.092465 -148.735023 
L 340.156879 -153.130331 
L 341.221294 -146.080637 
L 342.285709 -146.586045 
L 343.350123 -155.436561 
L 344.414538 -152.547632 
L 345.478952 -147.708571 
L 346.543367 -152.744547 
L 347.607781 -156.618903 
L 348.672196 -154.311008 
L 349.73661 -160.074994 
L 350.801025 -163.865267 
L 351.865439 -155.281541 
L 352.929854 -163.80317 
L 353.994269 -153.091321 
L 355.058683 -159.843511 
L 356.123098 -152.508633 
L 357.187512 -158.887476 
L 358.251927 -168.435944 
L 359.316341 -156.62316 
L 360.380756 -164.10412 
L 361.44517 -162.717304 
L 362.509585 -163.294008 
L 363.573999 -163.904252 
L 364.638414 -166.831222 
L 365.702829 -157.680005 
L 366.767243 -164.019397 
L 367.831658 -163.835709 
L 368.896072 -166.791375 
L 369.960487 -167.251991 
L 371.024901 -168.673551 
L 372.089316 -164.149692 
L 373.15373 -155.494182 
L 374.218145 -172.462764 
L 375.282559 -160.561346 
L 376.346974 -176.804392 
L 377.411388 -167.643598 
L 378.475803 -172.454595 
L 379.540218 -157.12441 
L 380.604632 -170.373191 
L 381.669047 -171.879895 
L 382.733461 -170.698331 
L 383.797876 -174.547541 
L 384.86229 -169.982381 
L 385.926705 -180.512036 
L 386.991119 -170.740072 
L 388.055534 -176.079403 
L 389.119948 -173.576725 
L 390.184363 -169.575255 
L 391.248778 -172.890496 
L 392.313192 -180.529899 
L 393.377607 -175.898542 
L 394.442021 -176.090531 
L 395.506436 -185.969639 
L 396.57085 -179.290218 
L 397.635265 -172.761943 
L 398.699679 -178.597951 
L 399.764094 -179.40238 
L 400.828508 -183.538747 
L 401.892923 -182.16741 
L 402.957338 -186.0122 
L 404.021752 -189.193386 
L 405.086167 -189.117879 
L 406.150581 -184.77314 
L 407.214996 -186.047733 
L 408.27941 -184.234654 
L 409.343825 -183.398625 
L 410.408239 -183.419251 
L 411.472654 -177.976295 
L 412.537068 -193.891255 
L 413.601483 -185.977586 
L 414.665898 -177.76542 
L 415.730312 -191.537966 
L 416.794727 -192.566298 
L 417.859141 -186.671899 
L 418.923556 -189.270108 
L 419.98797 -192.710333 
L 421.052385 -196.256902 
L 422.116799 -190.175115 
L 423.181214 -186.149593 
L 424.245628 -197.022971 
L 425.310043 -200.478164 
L 426.374457 -193.300374 
L 427.438872 -196.419899 
L 428.503287 -199.033742 
L 429.567701 -191.113193 
L 430.632116 -202.601716 
L 431.69653 -198.728736 
L 432.760945 -193.585852 
L 433.825359 -203.355157 
L 434.889774 -199.721615 
L 435.954188 -201.809138 
L 437.018603 -208.923328 
L 438.083017 -202.418934 
L 439.147432 -199.988531 
L 440.211847 -199.772735 
L 441.276261 -198.732985 
L 442.340676 -213.681112 
L 443.40509 -204.087012 
L 444.469505 -206.345583 
L 445.533919 -205.88784 
L 446.598334 -206.43226 
L 447.662748 -207.587151 
L 448.727163 -208.688703 
L 449.791577 -201.902536 
L 450.855992 -203.787516 
L 451.920407 -202.74077 
L 452.984821 -211.76318 
L 454.049236 -198.622229 
L 455.11365 -203.537248 
L 456.178065 -224.357269 
L 457.242479 -209.673127 
L 458.306894 -216.954698 
L 459.371308 -211.970824 
L 460.435723 -213.805045 
L 461.500137 -215.614439 
L 462.564552 -212.911286 
L 463.628967 -210.86338 
L 464.693381 -219.177592 
L 465.757796 -211.362241 
L 466.82221 -216.406489 
L 467.886625 -210.45557 
L 468.951039 -212.491833 
L 470.015454 -212.000449 
L 471.079868 -221.357102 
L 472.144283 -211.606412 
L 473.208697 -214.139953 
L 474.273112 -219.926136 
L 475.337526 -225.160288 
L 476.401941 -218.994847 
L 477.466356 -224.232312 
L 478.53077 -220.726033 
L 479.595185 -219.457322 
L 480.659599 -219.257926 
L 481.724014 -220.887275 
L 482.788428 -219.900394 
L 483.852843 -222.972711 
L 484.917257 -231.95367 
L 485.981672 -220.960648 
L 487.046086 -227.858754 
L 488.110501 -225.645631 
L 489.174916 -221.707243 
L 490.23933 -222.592985 
L 491.303745 -223.356821 
L 492.368159 -221.780104 
L 493.432574 -222.594398 
L 494.496988 -223.878644 
L 495.561403 -226.172035 
L 496.625817 -223.307679 
L 497.690232 -230.805909 
L 498.754646 -236.294148 
L 499.819061 -233.028181 
L 500.883476 -238.063074 
L 501.94789 -235.274794 
L 503.012305 -230.784495 
L 504.076719 -240.390234 
L 505.141134 -232.216172 
L 506.205548 -233.113062 
L 507.269963 -238.939132 
L 508.334377 -239.564904 
L 509.398792 -238.936287 
L 510.463206 -234.982389 
L 511.527621 -230.153559 
L 512.592035 -241.25704 
L 513.65645 -235.250037 
L 514.720865 -241.887284 
L 515.785279 -243.094918 
L 516.849694 -242.457948 
L 517.914108 -240.846888 
L 518.978523 -243.942147 
L 520.042937 -241.232908 
L 521.107352 -241.370095 
L 522.171766 -237.253461 
L 523.236181 -245.013979 
L 524.300595 -240.629227 
L 525.36501 -237.883533 
L 526.429425 -248.628077 
L 527.493839 -245.452463 
L 528.558254 -241.663085 
L 529.622668 -247.92224 
L 530.687083 -239.925496 
L 531.751497 -245.618074 
L 532.815912 -247.784993 
L 533.880326 -237.954698 
L 534.944741 -242.663537 
L 536.009155 -252.454523 
L 537.07357 -249.613792 
L 538.137985 -256.102927 
L 539.202399 -252.354975 
L 540.266814 -250.277945 
L 541.331228 -259.757624 
L 542.395643 -253.368752 
L 543.460057 -253.568006 
L 544.524472 -253.841515 
L 545.588886 -254.666509 
L 546.653301 -247.388741 
L 547.717715 -257.923604 
L 548.78213 -251.935619 
L 549.846545 -253.191249 
L 550.910959 -257.414982 
L 551.975374 -262.249539 
L 553.039788 -263.910417 
L 554.104203 -262.1401 
L 555.168617 -266.240958 
L 556.233032 -258.598822 
L 557.297446 -257.568306 
L 558.361861 -260.911558 
L 559.426275 -271.137851 
L 560.49069 -259.401299 
L 561.555104 -264.654823 
L 562.619519 -267.114064 
L 563.683934 -265.835535 
L 564.748348 -263.32453 
L 565.812763 -264.99323 
L 566.877177 -266.744297 
L 567.941592 -265.240338 
L 569.006006 -267.995581 
L 570.070421 -264.781332 
L 571.134835 -266.955138 
L 572.19925 -262.59841 
L 573.263664 -267.994796 
L 574.328079 -270.641022 
L 575.392494 -262.778304 
L 576.456908 -270.59926 
L 577.521323 -269.483747 
L 578.585737 -272.726648 
L 579.650152 -269.033957 
L 580.714566 -267.953854 
L 581.778981 -267.813046 
L 582.843395 -270.560192 
L 583.90781 -281.794722 
L 584.972224 -278.236204 
L 586.036639 -273.143756 
L 587.101054 -278.904303 
L 588.165468 -281.236756 
L 589.229883 -279.772473 
L 590.294297 -277.224507 
L 591.358712 -274.099287 
L 592.423126 -283.635289 
L 593.487541 -281.518982 
L 594.551955 -283.437309 
L 595.61637 -281.198654 
L 596.680784 -275.213003 
L 597.745199 -292.135238 
L 598.809614 -271.180782 
L 599.874028 -284.710415 
L 600.938443 -287.355768 
L 602.002857 -283.243498 
L 602.002857 -382.171095 
L 602.002857 -382.171095 
L 600.938443 -389.829887 
L 599.874028 -384.188535 
L 598.809614 -389.035114 
L 597.745199 -383.58295 
L 596.680784 -390.885217 
L 595.61637 -390.507865 
L 594.551955 -382.134345 
L 593.487541 -385.222441 
L 592.423126 -393.402514 
L 591.358712 -386.318632 
L 590.294297 -384.11362 
L 589.229883 -378.7312 
L 588.165468 -374.70166 
L 587.101054 -386.096515 
L 586.036639 -384.37708 
L 584.972224 -382.872474 
L 583.90781 -378.889688 
L 582.843395 -380.623483 
L 581.778981 -387.317758 
L 580.714566 -382.410698 
L 579.650152 -388.408497 
L 578.585737 -374.635847 
L 577.521323 -380.955187 
L 576.456908 -368.239785 
L 575.392494 -382.446149 
L 574.328079 -378.846289 
L 573.263664 -379.004192 
L 572.19925 -381.587169 
L 571.134835 -382.715706 
L 570.070421 -377.50889 
L 569.006006 -367.627731 
L 567.941592 -379.670203 
L 566.877177 -368.70431 
L 565.812763 -368.685436 
L 564.748348 -371.941513 
L 563.683934 -373.083301 
L 562.619519 -366.048649 
L 561.555104 -370.257054 
L 560.49069 -371.723183 
L 559.426275 -369.009299 
L 558.361861 -353.519508 
L 557.297446 -365.89614 
L 556.233032 -362.934474 
L 555.168617 -367.05218 
L 554.104203 -368.496236 
L 553.039788 -360.05099 
L 551.975374 -365.159986 
L 550.910959 -359.229697 
L 549.846545 -363.003597 
L 548.78213 -365.696844 
L 547.717715 -364.150374 
L 546.653301 -362.952364 
L 545.588886 -367.914544 
L 544.524472 -361.483047 
L 543.460057 -365.000757 
L 542.395643 -355.895978 
L 541.331228 -355.870046 
L 540.266814 -369.936722 
L 539.202399 -348.390798 
L 538.137985 -356.295161 
L 537.07357 -356.967258 
L 536.009155 -356.436879 
L 534.944741 -358.937685 
L 533.880326 -369.953673 
L 532.815912 -355.413578 
L 531.751497 -351.80339 
L 530.687083 -351.905264 
L 529.622668 -359.454689 
L 528.558254 -355.575783 
L 527.493839 -357.419047 
L 526.429425 -352.516153 
L 525.36501 -349.580679 
L 524.300595 -348.780546 
L 523.236181 -344.806329 
L 522.171766 -350.027773 
L 521.107352 -337.887026 
L 520.042937 -343.419977 
L 518.978523 -345.555017 
L 517.914108 -345.884725 
L 516.849694 -341.606507 
L 515.785279 -342.260934 
L 514.720865 -344.842258 
L 513.65645 -346.713696 
L 512.592035 -341.609556 
L 511.527621 -344.348385 
L 510.463206 -339.346586 
L 509.398792 -342.376183 
L 508.334377 -343.393542 
L 507.269963 -344.260541 
L 506.205548 -346.630607 
L 505.141134 -338.685027 
L 504.076719 -334.655399 
L 503.012305 -340.622467 
L 501.94789 -337.553777 
L 500.883476 -345.056298 
L 499.819061 -343.548564 
L 498.754646 -336.609411 
L 497.690232 -337.61067 
L 496.625817 -340.293662 
L 495.561403 -337.615874 
L 494.496988 -335.842547 
L 493.432574 -332.16714 
L 492.368159 -333.133882 
L 491.303745 -333.608515 
L 490.23933 -334.568345 
L 489.174916 -339.200456 
L 488.110501 -339.006236 
L 487.046086 -327.742986 
L 485.981672 -335.26527 
L 484.917257 -336.244484 
L 483.852843 -328.610101 
L 482.788428 -333.137211 
L 481.724014 -324.077982 
L 480.659599 -326.474335 
L 479.595185 -330.050945 
L 478.53077 -329.653768 
L 477.466356 -322.978614 
L 476.401941 -324.106674 
L 475.337526 -319.365324 
L 474.273112 -329.400641 
L 473.208697 -331.879303 
L 472.144283 -328.948114 
L 471.079868 -312.889042 
L 470.015454 -317.205525 
L 468.951039 -318.402639 
L 467.886625 -323.808699 
L 466.82221 -316.174342 
L 465.757796 -334.164364 
L 464.693381 -314.380289 
L 463.628967 -315.650831 
L 462.564552 -314.351389 
L 461.500137 -311.538261 
L 460.435723 -312.224484 
L 459.371308 -319.952218 
L 458.306894 -320.829865 
L 457.242479 -310.74507 
L 456.178065 -313.455387 
L 455.11365 -323.714738 
L 454.049236 -314.933144 
L 452.984821 -305.141577 
L 451.920407 -318.300961 
L 450.855992 -312.862981 
L 449.791577 -311.743081 
L 448.727163 -312.044918 
L 447.662748 -306.490301 
L 446.598334 -312.099013 
L 445.533919 -306.927161 
L 444.469505 -301.27399 
L 443.40509 -304.592988 
L 442.340676 -298.192615 
L 441.276261 -310.926426 
L 440.211847 -305.677737 
L 439.147432 -307.611246 
L 438.083017 -310.611153 
L 437.018603 -309.657476 
L 435.954188 -308.210186 
L 434.889774 -310.626427 
L 433.825359 -301.213432 
L 432.760945 -306.246232 
L 431.69653 -310.949333 
L 430.632116 -289.160645 
L 429.567701 -300.659366 
L 428.503287 -299.526705 
L 427.438872 -306.159356 
L 426.374457 -305.307018 
L 425.310043 -293.986377 
L 424.245628 -292.112559 
L 423.181214 -312.088591 
L 422.116799 -299.522711 
L 421.052385 -298.809064 
L 419.98797 -288.906109 
L 418.923556 -296.478708 
L 417.859141 -295.834992 
L 416.794727 -292.09565 
L 415.730312 -295.866718 
L 414.665898 -305.140557 
L 413.601483 -291.782537 
L 412.537068 -296.617772 
L 411.472654 -295.894073 
L 410.408239 -298.244924 
L 409.343825 -294.847572 
L 408.27941 -290.779394 
L 407.214996 -293.807405 
L 406.150581 -292.901549 
L 405.086167 -295.339535 
L 404.021752 -283.4774 
L 402.957338 -286.242775 
L 401.892923 -282.094678 
L 400.828508 -286.584143 
L 399.764094 -286.694016 
L 398.699679 -282.832035 
L 397.635265 -296.237922 
L 396.57085 -283.834341 
L 395.506436 -285.978796 
L 394.442021 -286.780707 
L 393.377607 -284.775211 
L 392.313192 -284.018438 
L 391.248778 -282.956786 
L 390.184363 -286.702733 
L 389.119948 -288.661519 
L 388.055534 -285.452794 
L 386.991119 -285.116788 
L 385.926705 -278.932018 
L 384.86229 -288.98333 
L 383.797876 -280.887843 
L 382.733461 -276.726523 
L 381.669047 -277.166717 
L 380.604632 -286.856337 
L 379.540218 -273.652691 
L 378.475803 -274.944279 
L 377.411388 -281.632997 
L 376.346974 -275.564124 
L 375.282559 -275.753972 
L 374.218145 -277.346622 
L 373.15373 -268.567206 
L 372.089316 -279.49889 
L 371.024901 -269.798311 
L 369.960487 -277.919532 
L 368.896072 -267.600263 
L 367.831658 -268.968594 
L 366.767243 -268.799066 
L 365.702829 -273.635806 
L 364.638414 -266.496882 
L 363.573999 -263.334993 
L 362.509585 -264.287128 
L 361.44517 -277.276557 
L 360.380756 -264.227849 
L 359.316341 -261.874027 
L 358.251927 -267.625821 
L 357.187512 -260.391373 
L 356.123098 -267.028412 
L 355.058683 -267.949142 
L 353.994269 -269.509602 
L 352.929854 -263.945732 
L 351.865439 -264.129968 
L 350.801025 -267.247106 
L 349.73661 -258.644646 
L 348.672196 -261.932124 
L 347.607781 -259.959472 
L 346.543367 -266.575615 
L 345.478952 -261.036379 
L 344.414538 -263.772847 
L 343.350123 -250.929254 
L 342.285709 -256.843164 
L 341.221294 -267.541687 
L 340.156879 -256.087187 
L 339.092465 -262.207737 
L 338.02805 -256.721697 
L 336.963636 -252.562857 
L 335.899221 -246.772305 
L 334.834807 -253.998103 
L 333.770392 -251.74844 
L 332.705978 -252.500358 
L 331.641563 -253.320922 
L 330.577149 -256.158526 
L 329.512734 -256.365921 
L 328.448319 -246.967614 
L 327.383905 -244.435558 
L 326.31949 -248.553819 
L 325.255076 -252.428145 
L 324.190661 -244.653268 
L 323.126247 -246.079988 
L 322.061832 -239.428524 
L 320.997418 -250.331506 
L 319.933003 -246.207822 
L 318.868589 -255.110051 
L 317.804174 -245.518345 
L 316.73976 -247.00925 
L 315.675345 -240.19318 
L 314.61093 -240.046886 
L 313.546516 -238.495701 
L 312.482101 -231.024969 
L 311.417687 -251.794771 
L 310.353272 -243.495443 
L 309.288858 -240.529653 
L 308.224443 -242.56516 
L 307.160029 -246.158107 
L 306.095614 -238.96397 
L 305.0312 -232.583448 
L 303.966785 -244.898453 
L 302.90237 -241.729827 
L 301.837956 -234.881089 
L 300.773541 -231.113417 
L 299.709127 -240.734884 
L 298.644712 -234.713681 
L 297.580298 -232.443184 
L 296.515883 -236.972419 
L 295.451469 -232.484651 
L 294.387054 -238.028558 
L 293.32264 -232.871765 
L 292.258225 -234.624358 
L 291.19381 -241.248914 
L 290.129396 -236.087969 
L 289.064981 -234.822598 
L 288.000567 -232.468307 
L 286.936152 -222.644099 
L 285.871738 -233.930158 
L 284.807323 -227.535376 
L 283.742909 -227.708873 
L 282.678494 -225.280136 
L 281.61408 -221.476523 
L 280.549665 -226.768369 
L 279.485251 -219.057849 
L 278.420836 -223.932408 
L 277.356421 -224.19017 
L 276.292007 -224.261942 
L 275.227592 -220.928634 
L 274.163178 -218.260481 
L 273.098763 -230.141586 
L 272.034349 -222.49212 
L 270.969934 -230.059213 
L 269.90552 -219.87959 
L 268.841105 -225.26547 
L 267.776691 -229.585502 
L 266.712276 -213.625474 
L 265.647861 -216.090107 
L 264.583447 -226.091021 
L 263.519032 -218.347501 
L 262.454618 -220.419816 
L 261.390203 -221.344946 
L 260.325789 -216.688347 
L 259.261374 -215.87702 
L 258.19696 -215.050286 
L 257.132545 -217.452524 
L 256.068131 -218.242077 
L 255.003716 -204.652592 
L 253.939301 -213.626251 
L 252.874887 -216.681636 
L 251.810472 -207.263619 
L 250.746058 -202.458052 
L 249.681643 -219.892636 
L 248.617229 -207.539112 
L 247.552814 -212.998584 
L 246.4884 -207.635649 
L 245.423985 -207.516924 
L 244.359571 -215.820391 
L 243.295156 -201.033414 
L 242.230741 -211.494885 
L 241.166327 -205.10905 
L 240.101912 -204.142592 
L 239.037498 -204.996432 
L 237.973083 -200.103701 
L 236.908669 -206.54702 
L 235.844254 -204.266166 
L 234.77984 -202.200954 
L 233.715425 -204.879812 
L 232.651011 -214.870368 
L 231.586596 -203.23532 
L 230.522182 -206.024525 
L 229.457767 -201.751829 
L 228.393352 -208.740708 
L 227.328938 -196.063583 
L 226.264523 -202.915469 
L 225.200109 -203.686437 
L 224.135694 -197.68045 
L 223.07128 -197.914265 
L 222.006865 -201.257033 
L 220.942451 -201.019482 
L 219.878036 -197.890522 
L 218.813622 -195.238683 
L 217.749207 -190.799147 
L 216.684792 -197.454629 
L 215.620378 -192.333508 
L 214.555963 -194.498855 
L 213.491549 -198.751001 
L 212.427134 -196.940205 
L 211.36272 -194.11305 
L 210.298305 -196.751854 
L 209.233891 -189.847747 
L 208.169476 -195.5192 
L 207.105062 -183.403198 
L 206.040647 -183.475413 
L 204.976232 -187.952431 
L 203.911818 -188.563531 
L 202.847403 -183.685832 
L 201.782989 -185.792186 
L 200.718574 -187.0574 
L 199.65416 -182.657484 
L 198.589745 -189.579694 
L 197.525331 -188.186143 
L 196.460916 -181.314454 
L 195.396502 -186.4733 
L 194.332087 -182.607268 
L 193.267672 -175.780469 
L 192.203258 -179.092524 
L 191.138843 -183.106764 
L 190.074429 -180.254891 
L 189.010014 -187.346099 
L 187.9456 -183.410475 
L 186.881185 -174.471923 
L 185.816771 -178.125913 
L 184.752356 -180.586981 
L 183.687942 -175.977997 
L 182.623527 -179.157074 
L 181.559113 -174.692632 
L 180.494698 -171.119685 
L 179.430283 -181.805664 
L 178.365869 -167.913655 
L 177.301454 -187.36501 
L 176.23704 -177.228423 
L 175.172625 -168.496908 
L 174.108211 -171.810144 
L 173.043796 -169.643092 
L 171.979382 -165.23531 
L 170.914967 -173.405482 
L 169.850553 -170.327246 
L 168.786138 -176.222467 
L 167.721723 -175.244767 
L 166.657309 -174.326404 
L 165.592894 -165.490703 
L 164.52848 -172.717821 
L 163.464065 -169.481454 
L 162.399651 -162.219628 
L 161.335236 -165.286683 
L 160.270822 -170.262879 
L 159.206407 -164.559942 
L 158.141993 -167.017326 
L 157.077578 -163.091167 
L 156.013163 -160.813327 
L 154.948749 -160.343505 
L 153.884334 -162.591025 
L 152.81992 -161.66871 
L 151.755505 -153.006226 
L 150.691091 -164.688795 
L 149.626676 -167.039119 
L 148.562262 -157.192509 
L 147.497847 -163.554431 
L 146.433433 -150.510892 
L 145.369018 -155.571366 
L 144.304603 -159.084796 
L 143.240189 -150.854637 
L 142.175774 -162.46271 
L 141.11136 -159.488568 
L 140.046945 -157.543161 
L 138.982531 -166.647818 
L 137.918116 -155.995033 
L 136.853702 -156.670733 
L 135.789287 -163.003164 
L 134.724873 -154.858043 
L 133.660458 -153.150529 
L 132.596044 -139.445275 
L 131.531629 -152.612257 
L 130.467214 -147.810883 
L 129.4028 -156.221134 
L 128.338385 -154.314598 
L 127.273971 -149.913333 
L 126.209556 -153.10366 
L 125.145142 -142.689456 
L 124.080727 -146.468019 
L 123.016313 -146.041237 
L 121.951898 -137.743444 
L 120.887484 -139.952628 
L 119.823069 -140.165914 
L 118.758654 -135.835405 
L 117.69424 -144.179091 
L 116.629825 -141.746063 
L 115.565411 -140.296163 
L 114.500996 -135.969912 
L 113.436582 -139.757092 
L 112.372167 -146.211871 
L 111.307753 -135.947804 
L 110.243338 -142.972459 
L 109.178924 -149.348796 
L 108.114509 -138.032666 
L 107.050094 -139.761376 
L 105.98568 -140.413074 
L 104.921265 -136.649482 
L 103.856851 -127.452109 
L 102.792436 -136.835605 
L 101.728022 -131.934755 
L 100.663607 -132.87331 
L 99.599193 -136.640389 
L 98.534778 -144.538385 
L 97.470364 -133.240332 
L 96.405949 -134.392509 
L 95.341534 -136.508832 
L 94.27712 -127.935492 
L 93.212705 -136.340961 
L 92.148291 -132.844278 
L 91.083876 -130.725871 
L 90.019462 -126.642736 
L 88.955047 -134.585042 
L 87.890633 -129.464761 
L 86.826218 -120.082861 
L 85.761804 -135.960663 
L 84.697389 -122.380109 
L 83.632975 -127.850437 
L 82.56856 -119.537138 
L 81.504145 -128.139026 
L 80.439731 -125.046018 
L 79.375316 -123.541008 
L 78.310902 -115.228642 
L 77.246487 -121.261788 
L 76.182073 -120.465535 
L 75.117658 -121.099878 
L 74.053244 -125.720237 
L 72.988829 -115.325259 
L 71.924415 -117.278705 
L 70.86 -119.293844 
z
" style="stroke: #ffa500; stroke-opacity: 0.1; stroke-width: 1.5"/>
    </defs>
    <g clip-path="url(#p696c7a2b8c)">
     <use xlink:href="#m92acb5df94" x="0" y="432" style="fill: #ffa500; fill-opacity: 0.1; stroke: #ffa500; stroke-opacity: 0.1; stroke-width: 1.5"/>
    </g>
   </g>
   <g id="line2d_13">
    <path d="M 70.86 367.052813 
L 71.924415 364.354173 
L 72.988829 367.052822 
L 74.053244 362.589117 
L 76.182073 356.682076 
L 78.310902 365.365422 
L 79.375316 363.974392 
L 80.439731 358.947891 
L 81.504145 360.216287 
L 82.56856 364.473341 
L 83.632975 356.462383 
L 84.697389 355.972191 
L 85.761804 358.89327 
L 86.826218 360.123899 
L 87.890633 358.072202 
L 88.955047 351.296557 
L 90.019462 354.465803 
L 91.083876 353.712248 
L 92.148291 353.241845 
L 93.212705 350.357053 
L 95.341534 351.626754 
L 96.405949 351.003567 
L 97.470364 356.112996 
L 98.534778 347.305692 
L 99.599193 348.808167 
L 100.663607 348.364065 
L 101.728022 352.25936 
L 102.792436 349.359703 
L 103.856851 352.685459 
L 104.921265 345.326251 
L 105.98568 343.942842 
L 108.114509 342.955838 
L 109.178924 342.145204 
L 110.243338 346.693629 
L 111.307753 347.094781 
L 112.372167 348.223823 
L 113.436582 348.592759 
L 114.500996 347.695863 
L 115.565411 342.989756 
L 116.629825 343.918437 
L 117.69424 343.711854 
L 118.758654 345.918398 
L 119.823069 342.190476 
L 120.887484 340.626287 
L 121.951898 339.650728 
L 123.016313 342.199755 
L 124.080727 340.133691 
L 125.145142 336.373356 
L 126.209556 337.593761 
L 127.273971 336.018544 
L 128.338385 332.994289 
L 129.4028 331.531079 
L 130.467214 337.280296 
L 131.531629 333.506593 
L 132.596044 334.941004 
L 133.660458 334.8224 
L 134.724873 334.230279 
L 135.789287 329.371177 
L 136.853702 328.438441 
L 137.918116 329.940829 
L 138.982531 319.989367 
L 140.046945 330.027964 
L 141.11136 326.278919 
L 142.175774 324.416023 
L 143.240189 328.474965 
L 144.304603 328.055214 
L 145.369018 326.11511 
L 146.433433 329.901718 
L 147.497847 325.389978 
L 148.562262 328.307339 
L 150.691091 322.887671 
L 151.755505 327.118757 
L 152.81992 321.713474 
L 153.884334 321.300883 
L 154.948749 325.896963 
L 156.013163 322.651286 
L 157.077578 323.35907 
L 158.141993 321.302609 
L 159.206407 319.53871 
L 160.270822 316.526399 
L 161.335236 322.478532 
L 162.399651 319.57405 
L 163.464065 320.769855 
L 164.52848 319.038807 
L 165.592894 313.615548 
L 166.657309 315.131251 
L 168.786138 310.827943 
L 169.850553 313.297595 
L 170.914967 310.996948 
L 171.979382 318.179428 
L 173.043796 312.850939 
L 174.108211 308.901223 
L 175.172625 314.647342 
L 176.23704 306.616081 
L 177.301454 309.911435 
L 178.365869 314.608268 
L 179.430283 306.282905 
L 180.494698 312.164249 
L 181.559113 311.457342 
L 182.623527 304.397558 
L 183.687942 307.007361 
L 184.752356 306.271854 
L 185.816771 310.516285 
L 186.881185 305.019394 
L 187.9456 308.781327 
L 189.010014 303.259654 
L 190.074429 305.360266 
L 191.138843 304.032007 
L 192.203258 302.255514 
L 193.267672 303.168774 
L 194.332087 304.244935 
L 195.396502 302.57007 
L 196.460916 305.878935 
L 197.525331 298.620074 
L 198.589745 298.491196 
L 199.65416 303.724378 
L 200.718574 299.187828 
L 201.782989 302.466519 
L 202.847403 296.89743 
L 203.911818 297.271979 
L 204.976232 299.868194 
L 206.040647 299.126469 
L 207.105062 300.119876 
L 208.169476 295.468413 
L 209.233891 295.02458 
L 210.298305 287.472657 
L 211.36272 290.84933 
L 212.427134 289.332794 
L 213.491549 289.770463 
L 214.555963 294.442875 
L 215.620378 293.063559 
L 216.684792 289.732655 
L 217.749207 291.632525 
L 218.813622 289.384286 
L 219.878036 289.03585 
L 220.942451 288.198247 
L 222.006865 289.045808 
L 223.07128 287.287638 
L 224.135694 291.172549 
L 225.200109 285.461345 
L 226.264523 288.645259 
L 227.328938 288.320325 
L 228.393352 281.977089 
L 229.457767 283.960016 
L 230.522182 282.545158 
L 231.586596 282.393621 
L 232.651011 277.780469 
L 233.715425 279.307674 
L 234.77984 282.913893 
L 235.844254 279.364707 
L 236.908669 284.330243 
L 237.973083 280.603827 
L 239.037498 276.278912 
L 240.101912 282.269206 
L 241.166327 279.333388 
L 242.230741 281.185259 
L 243.295156 277.977349 
L 244.359571 273.844194 
L 245.423985 277.820878 
L 246.4884 276.941326 
L 247.552814 272.99201 
L 248.617229 275.98128 
L 249.681643 272.472305 
L 250.746058 280.310045 
L 251.810472 276.304275 
L 252.874887 271.343404 
L 253.939301 264.591433 
L 255.003716 274.643885 
L 256.068131 270.004929 
L 257.132545 266.836626 
L 258.19696 265.723715 
L 259.261374 271.060663 
L 260.325789 269.988255 
L 261.390203 265.241125 
L 262.454618 266.209244 
L 263.519032 268.378004 
L 264.583447 266.479268 
L 265.647861 268.305393 
L 266.712276 271.642384 
L 267.776691 260.424463 
L 268.841105 264.992701 
L 269.90552 262.785555 
L 270.969934 259.918109 
L 272.034349 261.921056 
L 273.098763 258.270775 
L 274.163178 263.563114 
L 275.227592 264.062537 
L 276.292007 257.661818 
L 278.420836 261.869218 
L 279.485251 262.532171 
L 280.549665 258.947795 
L 281.61408 264.223523 
L 282.678494 261.176996 
L 283.742909 258.843592 
L 284.807323 257.017873 
L 285.871738 254.339269 
L 286.936152 257.909336 
L 288.000567 255.657624 
L 289.064981 249.503942 
L 290.129396 251.184128 
L 291.19381 251.133408 
L 292.258225 254.507793 
L 293.32264 255.391343 
L 294.387054 252.032882 
L 295.451469 247.877445 
L 296.515883 247.274303 
L 297.580298 248.620014 
L 298.644712 252.873269 
L 299.709127 250.384949 
L 300.773541 250.781493 
L 301.837956 247.662094 
L 302.90237 245.867569 
L 303.966785 245.739709 
L 305.0312 247.894342 
L 306.095614 251.349848 
L 307.160029 244.660373 
L 308.224443 247.42459 
L 309.288858 241.742558 
L 310.353272 242.533941 
L 311.417687 238.66914 
L 312.482101 246.869336 
L 313.546516 241.608659 
L 314.61093 239.978585 
L 315.675345 244.031343 
L 316.73976 239.632428 
L 317.804174 239.192769 
L 318.868589 233.777431 
L 319.933003 235.079825 
L 320.997418 237.972784 
L 322.061832 242.148893 
L 323.126247 235.815776 
L 324.190661 237.924468 
L 325.255076 235.878645 
L 326.31949 234.92367 
L 327.383905 239.043593 
L 328.448319 238.551891 
L 329.512734 232.423082 
L 330.577149 229.545807 
L 331.641563 232.885273 
L 332.705978 229.8358 
L 333.770392 234.676872 
L 334.834807 232.87033 
L 335.899221 233.793442 
L 336.963636 228.597151 
L 338.02805 228.335028 
L 339.092465 226.52862 
L 340.156879 227.391241 
L 341.221294 225.188838 
L 342.285709 230.285395 
L 343.350123 228.817093 
L 344.414538 223.839761 
L 345.478952 227.627525 
L 346.543367 222.339919 
L 347.607781 223.710813 
L 348.672196 223.878434 
L 349.73661 222.64018 
L 350.801025 216.443814 
L 351.865439 222.294245 
L 352.929854 218.125549 
L 353.994269 220.699538 
L 355.058683 218.103673 
L 356.123098 222.231477 
L 357.187512 222.360575 
L 358.251927 213.969117 
L 359.316341 222.751406 
L 360.380756 217.834016 
L 361.44517 212.00307 
L 362.509585 218.209432 
L 363.573999 218.380378 
L 364.638414 215.335948 
L 365.702829 216.342095 
L 366.767243 215.590769 
L 367.831658 215.597849 
L 368.896072 214.804181 
L 369.960487 209.414239 
L 371.024901 212.764069 
L 372.089316 210.175709 
L 373.15373 219.969306 
L 374.218145 207.095307 
L 375.282559 213.842341 
L 376.346974 205.815742 
L 377.411388 207.361702 
L 378.475803 208.300563 
L 379.540218 216.611449 
L 380.604632 203.385236 
L 381.669047 207.476694 
L 382.733461 208.287573 
L 383.797876 204.282308 
L 384.86229 202.517144 
L 385.926705 202.277973 
L 386.991119 204.07157 
L 388.055534 201.233901 
L 389.119948 200.880878 
L 390.184363 203.861006 
L 391.248778 204.076359 
L 392.313192 199.725832 
L 393.377607 201.663123 
L 394.442021 200.564381 
L 395.506436 196.025782 
L 396.57085 200.437721 
L 397.635265 197.500068 
L 398.699679 201.285007 
L 399.764094 198.951802 
L 400.828508 196.938555 
L 401.892923 199.868956 
L 402.957338 195.872513 
L 404.021752 195.664607 
L 405.086167 189.771293 
L 406.150581 193.162655 
L 407.214996 192.072431 
L 408.27941 194.492976 
L 410.408239 191.167912 
L 411.472654 195.064816 
L 412.537068 186.745487 
L 413.601483 193.119939 
L 414.665898 190.547012 
L 415.730312 188.297658 
L 416.794727 189.669026 
L 417.859141 190.746554 
L 418.923556 189.125592 
L 419.98797 191.191779 
L 421.052385 184.467017 
L 422.116799 187.151087 
L 423.181214 182.880908 
L 424.245628 187.432235 
L 425.310043 184.76773 
L 427.438872 180.710372 
L 428.503287 182.719776 
L 429.567701 186.11372 
L 430.632116 186.11882 
L 431.69653 177.160966 
L 432.760945 182.083958 
L 433.825359 179.715705 
L 434.889774 176.825979 
L 435.954188 176.990338 
L 437.018603 172.709598 
L 439.147432 178.200112 
L 440.211847 179.274764 
L 441.276261 177.170295 
L 442.340676 176.063136 
L 443.40509 177.66 
L 444.469505 178.190213 
L 446.598334 172.734363 
L 447.662748 174.961274 
L 448.727163 171.633189 
L 449.791577 175.177192 
L 450.855992 173.674752 
L 451.920407 171.479134 
L 452.984821 173.547621 
L 454.049236 175.222314 
L 455.11365 168.374007 
L 456.178065 163.093672 
L 457.242479 171.790901 
L 458.306894 163.107718 
L 460.435723 168.985235 
L 461.500137 168.42365 
L 462.564552 168.368662 
L 463.628967 168.742894 
L 464.693381 165.22106 
L 465.757796 159.236697 
L 466.82221 165.709584 
L 467.886625 164.867866 
L 468.951039 166.552764 
L 470.015454 167.397013 
L 471.079868 164.876928 
L 472.144283 161.722737 
L 473.208697 158.990372 
L 474.273112 157.336612 
L 475.337526 159.737194 
L 476.401941 160.449239 
L 477.466356 158.394537 
L 478.53077 156.810099 
L 479.595185 157.245866 
L 480.659599 159.13387 
L 481.724014 159.517371 
L 482.788428 155.481197 
L 483.852843 156.208594 
L 484.917257 147.900923 
L 485.981672 153.887041 
L 487.046086 154.19913 
L 488.110501 149.674067 
L 490.23933 153.419335 
L 491.303745 153.517332 
L 492.368159 154.543007 
L 493.432574 154.619231 
L 494.496988 152.139405 
L 495.561403 150.106046 
L 496.625817 150.199329 
L 498.754646 145.548221 
L 499.819061 143.711628 
L 500.883476 140.440314 
L 501.94789 145.585715 
L 503.012305 146.296519 
L 504.076719 144.477184 
L 505.141134 146.5494 
L 506.205548 142.128165 
L 507.269963 140.400164 
L 508.334377 140.520777 
L 509.398792 141.343765 
L 510.463206 144.835513 
L 511.527621 144.749028 
L 512.592035 140.566702 
L 513.65645 141.018134 
L 514.720865 138.635229 
L 516.849694 139.967772 
L 518.978523 137.251418 
L 521.107352 142.37144 
L 522.171766 138.359383 
L 523.236181 137.089846 
L 524.300595 137.295113 
L 525.36501 138.267894 
L 526.429425 131.427885 
L 527.493839 130.564245 
L 528.558254 133.380566 
L 529.622668 128.311536 
L 530.687083 136.08462 
L 532.815912 130.400714 
L 533.880326 128.045815 
L 534.944741 131.199389 
L 536.009155 127.554299 
L 537.07357 128.709475 
L 538.137985 125.800956 
L 539.202399 131.627114 
L 540.266814 121.892667 
L 541.331228 124.186165 
L 542.395643 127.367635 
L 543.460057 122.715618 
L 544.524472 124.337719 
L 545.588886 120.709473 
L 546.653301 126.829448 
L 547.717715 120.963011 
L 548.78213 123.183768 
L 549.846545 123.902577 
L 550.910959 123.677661 
L 551.975374 118.295238 
L 553.039788 120.019296 
L 554.104203 116.681832 
L 555.168617 115.353431 
L 556.233032 121.233352 
L 557.297446 120.267777 
L 558.361861 124.784467 
L 559.426275 111.926425 
L 560.49069 116.437759 
L 561.555104 114.544061 
L 562.619519 115.418644 
L 563.683934 112.540582 
L 564.748348 114.366979 
L 565.812763 115.160667 
L 566.877177 114.275697 
L 567.941592 109.54473 
L 569.006006 114.188344 
L 571.134835 107.164578 
L 572.19925 109.90721 
L 574.328079 107.256344 
L 575.392494 109.387773 
L 576.456908 112.580477 
L 577.521323 106.780533 
L 578.585737 108.318752 
L 579.650152 103.278773 
L 580.714566 106.817724 
L 581.778981 104.434598 
L 582.843395 106.408163 
L 583.90781 101.657795 
L 584.972224 101.445661 
L 586.036639 103.239582 
L 587.101054 99.499591 
L 588.165468 104.030792 
L 590.294297 101.330936 
L 591.358712 101.79104 
L 592.423126 93.481098 
L 593.487541 98.629288 
L 594.551955 99.214173 
L 595.61637 96.146741 
L 596.680784 98.95089 
L 597.745199 94.140906 
L 598.809614 101.892052 
L 600.938443 93.407173 
L 602.002857 99.292703 
L 602.002857 99.292703 
" clip-path="url(#p696c7a2b8c)" style="fill: none; stroke: #4c72b0; stroke-width: 2.25; stroke-linecap: round"/>
   </g>
   <g id="patch_3">
    <path d="M 70.86 365.1 
L 70.86 19.44 
" style="fill: none; stroke: #cccccc; stroke-width: 1.875; stroke-linejoin: miter; stroke-linecap: square"/>
   </g>
   <g id="patch_4">
    <path d="M 70.86 365.1 
L 628.56 365.1 
" style="fill: none; stroke: #cccccc; stroke-width: 1.875; stroke-linejoin: miter; stroke-linecap: square"/>
   </g>
   <g id="legend_1">
    <g id="patch_5">
     <path d="M 82.41 102.659297 
L 204.912188 102.659297 
Q 208.212188 102.659297 208.212188 99.359297 
L 208.212188 30.99 
Q 208.212188 27.69 204.912188 27.69 
L 82.41 27.69 
Q 79.11 27.69 79.11 30.99 
L 79.11 99.359297 
Q 79.11 102.659297 82.41 102.659297 
z
" style="fill: #ffffff; opacity: 0.8; stroke: #cccccc; stroke-width: 1.5; stroke-linejoin: miter"/>
    </g>
    <g id="line2d_14">
     <path d="M 85.71 40.325391 
L 102.21 40.325391 
L 118.71 40.325391 
" style="fill: none; stroke: #4c72b0; stroke-width: 2.25; stroke-linecap: round"/>
    </g>
    <g id="text_15">
     <!-- Mdia -->
     <g style="fill: #262626" transform="translate(131.91 46.100391) scale(0.165 -0.165)">
      <defs>
       <path id="ArialMT-4d" d="M 475 0 
L 475 4581 
L 1388 4581 
L 2472 1338 
Q 2622 884 2691 659 
Q 2769 909 2934 1394 
L 4031 4581 
L 4847 4581 
L 4847 0 
L 4263 0 
L 4263 3834 
L 2931 0 
L 2384 0 
L 1059 3900 
L 1059 0 
L 475 0 
z
" transform="scale(0.015625)"/>
       <path id="ArialMT-e9" d="M 2694 1069 
L 3275 997 
Q 3138 488 2766 206 
Q 2394 -75 1816 -75 
Q 1088 -75 661 373 
Q 234 822 234 1631 
Q 234 2469 665 2931 
Q 1097 3394 1784 3394 
Q 2450 3394 2872 2941 
Q 3294 2488 3294 1666 
Q 3294 1616 3291 1516 
L 816 1516 
Q 847 969 1125 678 
Q 1403 388 1819 388 
Q 2128 388 2347 550 
Q 2566 713 2694 1069 
z
M 847 1978 
L 2700 1978 
Q 2663 2397 2488 2606 
Q 2219 2931 1791 2931 
Q 1403 2931 1139 2672 
Q 875 2413 847 1978 
z
M 1454 3731 
L 1869 4606 
L 2607 4606 
L 1919 3731 
L 1454 3731 
z
" transform="scale(0.015625)"/>
       <path id="ArialMT-64" d="M 2575 0 
L 2575 419 
Q 2259 -75 1647 -75 
Q 1250 -75 917 144 
Q 584 363 401 755 
Q 219 1147 219 1656 
Q 219 2153 384 2558 
Q 550 2963 881 3178 
Q 1213 3394 1622 3394 
Q 1922 3394 2156 3267 
Q 2391 3141 2538 2938 
L 2538 4581 
L 3097 4581 
L 3097 0 
L 2575 0 
z
M 797 1656 
Q 797 1019 1065 703 
Q 1334 388 1700 388 
Q 2069 388 2326 689 
Q 2584 991 2584 1609 
Q 2584 2291 2321 2609 
Q 2059 2928 1675 2928 
Q 1300 2928 1048 2622 
Q 797 2316 797 1656 
z
" transform="scale(0.015625)"/>
       <path id="ArialMT-69" d="M 425 3934 
L 425 4581 
L 988 4581 
L 988 3934 
L 425 3934 
z
M 425 0 
L 425 3319 
L 988 3319 
L 988 0 
L 425 0 
z
" transform="scale(0.015625)"/>
      </defs>
      <use xlink:href="#ArialMT-4d"/>
      <use xlink:href="#ArialMT-e9" x="83.300781"/>
      <use xlink:href="#ArialMT-64" x="138.916016"/>
      <use xlink:href="#ArialMT-69" x="194.53125"/>
      <use xlink:href="#ArialMT-61" x="216.748047"/>
     </g>
    </g>
    <g id="patch_6">
     <path d="M 85.71 69.440156 
L 118.71 69.440156 
L 118.71 57.890156 
L 85.71 57.890156 
z
" style="fill: #ffa500; fill-opacity: 0.3; stroke: #ffa500; stroke-opacity: 0.3; stroke-width: 1.5; stroke-linejoin: miter"/>
    </g>
    <g id="text_16">
     <!-- 1 desvio -->
     <g style="fill: #262626" transform="translate(131.91 69.440156) scale(0.165 -0.165)">
      <defs>
       <path id="ArialMT-20" transform="scale(0.015625)"/>
       <path id="ArialMT-73" d="M 197 991 
L 753 1078 
Q 800 744 1014 566 
Q 1228 388 1613 388 
Q 2000 388 2187 545 
Q 2375 703 2375 916 
Q 2375 1106 2209 1216 
Q 2094 1291 1634 1406 
Q 1016 1563 777 1677 
Q 538 1791 414 1992 
Q 291 2194 291 2438 
Q 291 2659 392 2848 
Q 494 3038 669 3163 
Q 800 3259 1026 3326 
Q 1253 3394 1513 3394 
Q 1903 3394 2198 3281 
Q 2494 3169 2634 2976 
Q 2775 2784 2828 2463 
L 2278 2388 
Q 2241 2644 2061 2787 
Q 1881 2931 1553 2931 
Q 1166 2931 1000 2803 
Q 834 2675 834 2503 
Q 834 2394 903 2306 
Q 972 2216 1119 2156 
Q 1203 2125 1616 2013 
Q 2213 1853 2448 1751 
Q 2684 1650 2818 1456 
Q 2953 1263 2953 975 
Q 2953 694 2789 445 
Q 2625 197 2315 61 
Q 2006 -75 1616 -75 
Q 969 -75 630 194 
Q 291 463 197 991 
z
" transform="scale(0.015625)"/>
       <path id="ArialMT-76" d="M 1344 0 
L 81 3319 
L 675 3319 
L 1388 1331 
Q 1503 1009 1600 663 
Q 1675 925 1809 1294 
L 2547 3319 
L 3125 3319 
L 1869 0 
L 1344 0 
z
" transform="scale(0.015625)"/>
      </defs>
      <use xlink:href="#ArialMT-31"/>
      <use xlink:href="#ArialMT-20" x="55.615234"/>
      <use xlink:href="#ArialMT-64" x="83.398438"/>
      <use xlink:href="#ArialMT-65" x="139.013672"/>
      <use xlink:href="#ArialMT-73" x="194.628906"/>
      <use xlink:href="#ArialMT-76" x="244.628906"/>
      <use xlink:href="#ArialMT-69" x="294.628906"/>
      <use xlink:href="#ArialMT-6f" x="316.845703"/>
     </g>
    </g>
    <g id="patch_7">
     <path d="M 85.71 92.779922 
L 118.71 92.779922 
L 118.71 81.229922 
L 85.71 81.229922 
z
" style="fill: #ffa500; fill-opacity: 0.1; stroke: #ffa500; stroke-opacity: 0.1; stroke-width: 1.5; stroke-linejoin: miter"/>
    </g>
    <g id="text_17">
     <!-- 2 desvios -->
     <g style="fill: #262626" transform="translate(131.91 92.779922) scale(0.165 -0.165)">
      <use xlink:href="#ArialMT-32"/>
      <use xlink:href="#ArialMT-20" x="55.615234"/>
      <use xlink:href="#ArialMT-64" x="83.398438"/>
      <use xlink:href="#ArialMT-65" x="139.013672"/>
      <use xlink:href="#ArialMT-73" x="194.628906"/>
      <use xlink:href="#ArialMT-76" x="244.628906"/>
      <use xlink:href="#ArialMT-69" x="294.628906"/>
      <use xlink:href="#ArialMT-6f" x="316.845703"/>
      <use xlink:href="#ArialMT-73" x="372.460938"/>
     </g>
    </g>
   </g>
  </g>
 </g>
 <defs>
  <clipPath id="p696c7a2b8c">
   <rect x="70.86" y="19.44" width="557.7" height="345.66"/>
  </clipPath>
 </defs>
</svg>
