<?xml version="1.0" encoding="utf-8" standalone="no"?>
<!DOCTYPE svg PUBLIC "-//W3C//DTD SVG 1.1//EN"
  "http://www.w3.org/Graphics/SVG/1.1/DTD/svg11.dtd">
<svg xmlns:xlink="http://www.w3.org/1999/xlink" width="648pt" height="432pt" viewBox="0 0 648 432" xmlns="http://www.w3.org/2000/svg" version="1.1">
 <metadata>
  <rdf:RDF xmlns:dc="http://purl.org/dc/elements/1.1/" xmlns:cc="http://creativecommons.org/ns#" xmlns:rdf="http://www.w3.org/1999/02/22-rdf-syntax-ns#">
   <cc:Work>
    <dc:type rdf:resource="http://purl.org/dc/dcmitype/StillImage"/>
    <dc:date>2024-10-06T11:13:55.425318</dc:date>
    <dc:format>image/svg+xml</dc:format>
    <dc:creator>
     <cc:Agent>
      <dc:title>Matplotlib v3.9.2, https://matplotlib.org/</dc:title>
     </cc:Agent>
    </dc:creator>
   </cc:Work>
  </rdf:RDF>
 </metadata>
 <defs>
  <style type="text/css">*{stroke-linejoin: round; stroke-linecap: butt}</style>
 </defs>
 <g id="figure_1">
  <g id="patch_1">
   <path d="M 0 432 
L 648 432 
L 648 0 
L 0 0 
z
" style="fill: #ffffff"/>
  </g>
  <g id="axes_1">
   <g id="patch_2">
    <path d="M 70.86 365.1 
L 628.56 365.1 
L 628.56 20.118379 
L 70.86 20.118379 
z
" style="fill: #ffffff"/>
   </g>
   <g id="matplotlib.axis_1">
    <g id="xtick_1">
     <g id="line2d_1">
      <path d="M 70.86 365.1 
L 70.86 20.118379 
" clip-path="url(#p2e7110d9ac)" style="fill: none; stroke: #cccccc; stroke-width: 1.5; stroke-linecap: round"/>
     </g>
     <g id="text_1">
      <!-- 0 -->
      <g style="fill: #262626" transform="translate(66.272227 389.410391) scale(0.165 -0.165)">
       <defs>
        <path id="ArialMT-30" d="M 266 2259 
Q 266 3072 433 3567 
Q 600 4063 929 4331 
Q 1259 4600 1759 4600 
Q 2128 4600 2406 4451 
Q 2684 4303 2865 4023 
Q 3047 3744 3150 3342 
Q 3253 2941 3253 2259 
Q 3253 1453 3087 958 
Q 2922 463 2592 192 
Q 2263 -78 1759 -78 
Q 1097 -78 719 397 
Q 266 969 266 2259 
z
M 844 2259 
Q 844 1131 1108 757 
Q 1372 384 1759 384 
Q 2147 384 2411 759 
Q 2675 1134 2675 2259 
Q 2675 3391 2411 3762 
Q 2147 4134 1753 4134 
Q 1366 4134 1134 3806 
Q 844 3388 844 2259 
z
" transform="scale(0.015625)"/>
       </defs>
       <use xlink:href="#ArialMT-30"/>
      </g>
     </g>
    </g>
    <g id="xtick_2">
     <g id="line2d_2">
      <path d="M 177.088571 365.1 
L 177.088571 20.118379 
" clip-path="url(#p2e7110d9ac)" style="fill: none; stroke: #cccccc; stroke-width: 1.5; stroke-linecap: round"/>
     </g>
     <g id="text_2">
      <!-- 2 -->
      <g style="fill: #262626" transform="translate(172.500798 389.410391) scale(0.165 -0.165)">
       <defs>
        <path id="ArialMT-32" d="M 3222 541 
L 3222 0 
L 194 0 
Q 188 203 259 391 
Q 375 700 629 1000 
Q 884 1300 1366 1694 
Q 2113 2306 2375 2664 
Q 2638 3022 2638 3341 
Q 2638 3675 2398 3904 
Q 2159 4134 1775 4134 
Q 1369 4134 1125 3890 
Q 881 3647 878 3216 
L 300 3275 
Q 359 3922 746 4261 
Q 1134 4600 1788 4600 
Q 2447 4600 2831 4234 
Q 3216 3869 3216 3328 
Q 3216 3053 3103 2787 
Q 2991 2522 2730 2228 
Q 2469 1934 1863 1422 
Q 1356 997 1212 845 
Q 1069 694 975 541 
L 3222 541 
z
" transform="scale(0.015625)"/>
       </defs>
       <use xlink:href="#ArialMT-32"/>
      </g>
     </g>
    </g>
    <g id="xtick_3">
     <g id="line2d_3">
      <path d="M 283.317143 365.1 
L 283.317143 20.118379 
" clip-path="url(#p2e7110d9ac)" style="fill: none; stroke: #cccccc; stroke-width: 1.5; stroke-linecap: round"/>
     </g>
     <g id="text_3">
      <!-- 4 -->
      <g style="fill: #262626" transform="translate(278.729369 389.410391) scale(0.165 -0.165)">
       <defs>
        <path id="ArialMT-34" d="M 2069 0 
L 2069 1097 
L 81 1097 
L 81 1613 
L 2172 4581 
L 2631 4581 
L 2631 1613 
L 3250 1613 
L 3250 1097 
L 2631 1097 
L 2631 0 
L 2069 0 
z
M 2069 1613 
L 2069 3678 
L 634 1613 
L 2069 1613 
z
" transform="scale(0.015625)"/>
       </defs>
       <use xlink:href="#ArialMT-34"/>
      </g>
     </g>
    </g>
    <g id="xtick_4">
     <g id="line2d_4">
      <path d="M 389.545714 365.1 
L 389.545714 20.118379 
" clip-path="url(#p2e7110d9ac)" style="fill: none; stroke: #cccccc; stroke-width: 1.5; stroke-linecap: round"/>
     </g>
     <g id="text_4">
      <!-- 6 -->
      <g style="fill: #262626" transform="translate(384.957941 389.410391) scale(0.165 -0.165)">
       <defs>
        <path id="ArialMT-36" d="M 3184 3459 
L 2625 3416 
Q 2550 3747 2413 3897 
Q 2184 4138 1850 4138 
Q 1581 4138 1378 3988 
Q 1113 3794 959 3422 
Q 806 3050 800 2363 
Q 1003 2672 1297 2822 
Q 1591 2972 1913 2972 
Q 2475 2972 2870 2558 
Q 3266 2144 3266 1488 
Q 3266 1056 3080 686 
Q 2894 316 2569 119 
Q 2244 -78 1831 -78 
Q 1128 -78 684 439 
Q 241 956 241 2144 
Q 241 3472 731 4075 
Q 1159 4600 1884 4600 
Q 2425 4600 2770 4297 
Q 3116 3994 3184 3459 
z
M 888 1484 
Q 888 1194 1011 928 
Q 1134 663 1356 523 
Q 1578 384 1822 384 
Q 2178 384 2434 671 
Q 2691 959 2691 1453 
Q 2691 1928 2437 2201 
Q 2184 2475 1800 2475 
Q 1419 2475 1153 2201 
Q 888 1928 888 1484 
z
" transform="scale(0.015625)"/>
       </defs>
       <use xlink:href="#ArialMT-36"/>
      </g>
     </g>
    </g>
    <g id="xtick_5">
     <g id="line2d_5">
      <path d="M 495.774286 365.1 
L 495.774286 20.118379 
" clip-path="url(#p2e7110d9ac)" style="fill: none; stroke: #cccccc; stroke-width: 1.5; stroke-linecap: round"/>
     </g>
     <g id="text_5">
      <!-- 8 -->
      <g style="fill: #262626" transform="translate(491.186512 389.410391) scale(0.165 -0.165)">
       <defs>
        <path id="ArialMT-38" d="M 1131 2484 
Q 781 2613 612 2850 
Q 444 3088 444 3419 
Q 444 3919 803 4259 
Q 1163 4600 1759 4600 
Q 2359 4600 2725 4251 
Q 3091 3903 3091 3403 
Q 3091 3084 2923 2848 
Q 2756 2613 2416 2484 
Q 2838 2347 3058 2040 
Q 3278 1734 3278 1309 
Q 3278 722 2862 322 
Q 2447 -78 1769 -78 
Q 1091 -78 675 323 
Q 259 725 259 1325 
Q 259 1772 486 2073 
Q 713 2375 1131 2484 
z
M 1019 3438 
Q 1019 3113 1228 2906 
Q 1438 2700 1772 2700 
Q 2097 2700 2305 2904 
Q 2513 3109 2513 3406 
Q 2513 3716 2298 3927 
Q 2084 4138 1766 4138 
Q 1444 4138 1231 3931 
Q 1019 3725 1019 3438 
z
M 838 1322 
Q 838 1081 952 856 
Q 1066 631 1291 507 
Q 1516 384 1775 384 
Q 2178 384 2440 643 
Q 2703 903 2703 1303 
Q 2703 1709 2433 1975 
Q 2163 2241 1756 2241 
Q 1359 2241 1098 1978 
Q 838 1716 838 1322 
z
" transform="scale(0.015625)"/>
       </defs>
       <use xlink:href="#ArialMT-38"/>
      </g>
     </g>
    </g>
    <g id="xtick_6">
     <g id="line2d_6">
      <path d="M 602.002857 365.1 
L 602.002857 20.118379 
" clip-path="url(#p2e7110d9ac)" style="fill: none; stroke: #cccccc; stroke-width: 1.5; stroke-linecap: round"/>
     </g>
     <g id="text_6">
      <!-- 10 -->
      <g style="fill: #262626" transform="translate(592.82731 389.410391) scale(0.165 -0.165)">
       <defs>
        <path id="ArialMT-31" d="M 2384 0 
L 1822 0 
L 1822 3584 
Q 1619 3391 1289 3197 
Q 959 3003 697 2906 
L 697 3450 
Q 1169 3672 1522 3987 
Q 1875 4303 2022 4600 
L 2384 4600 
L 2384 0 
z
" transform="scale(0.015625)"/>
       </defs>
       <use xlink:href="#ArialMT-31"/>
       <use xlink:href="#ArialMT-30" x="55.615234"/>
      </g>
     </g>
    </g>
    <g id="text_7">
     <!-- Tempo -->
     <g style="fill: #262626" transform="translate(322.702969 409.573828) scale(0.18 -0.18)">
      <defs>
       <path id="ArialMT-54" d="M 1659 0 
L 1659 4041 
L 150 4041 
L 150 4581 
L 3781 4581 
L 3781 4041 
L 2266 4041 
L 2266 0 
L 1659 0 
z
" transform="scale(0.015625)"/>
       <path id="ArialMT-65" d="M 2694 1069 
L 3275 997 
Q 3138 488 2766 206 
Q 2394 -75 1816 -75 
Q 1088 -75 661 373 
Q 234 822 234 1631 
Q 234 2469 665 2931 
Q 1097 3394 1784 3394 
Q 2450 3394 2872 2941 
Q 3294 2488 3294 1666 
Q 3294 1616 3291 1516 
L 816 1516 
Q 847 969 1125 678 
Q 1403 388 1819 388 
Q 2128 388 2347 550 
Q 2566 713 2694 1069 
z
M 847 1978 
L 2700 1978 
Q 2663 2397 2488 2606 
Q 2219 2931 1791 2931 
Q 1403 2931 1139 2672 
Q 875 2413 847 1978 
z
" transform="scale(0.015625)"/>
       <path id="ArialMT-6d" d="M 422 0 
L 422 3319 
L 925 3319 
L 925 2853 
Q 1081 3097 1340 3245 
Q 1600 3394 1931 3394 
Q 2300 3394 2536 3241 
Q 2772 3088 2869 2813 
Q 3263 3394 3894 3394 
Q 4388 3394 4653 3120 
Q 4919 2847 4919 2278 
L 4919 0 
L 4359 0 
L 4359 2091 
Q 4359 2428 4304 2576 
Q 4250 2725 4106 2815 
Q 3963 2906 3769 2906 
Q 3419 2906 3187 2673 
Q 2956 2441 2956 1928 
L 2956 0 
L 2394 0 
L 2394 2156 
Q 2394 2531 2256 2718 
Q 2119 2906 1806 2906 
Q 1569 2906 1367 2781 
Q 1166 2656 1075 2415 
Q 984 2175 984 1722 
L 984 0 
L 422 0 
z
" transform="scale(0.015625)"/>
       <path id="ArialMT-70" d="M 422 -1272 
L 422 3319 
L 934 3319 
L 934 2888 
Q 1116 3141 1344 3267 
Q 1572 3394 1897 3394 
Q 2322 3394 2647 3175 
Q 2972 2956 3137 2557 
Q 3303 2159 3303 1684 
Q 3303 1175 3120 767 
Q 2938 359 2589 142 
Q 2241 -75 1856 -75 
Q 1575 -75 1351 44 
Q 1128 163 984 344 
L 984 -1272 
L 422 -1272 
z
M 931 1641 
Q 931 1000 1190 694 
Q 1450 388 1819 388 
Q 2194 388 2461 705 
Q 2728 1022 2728 1688 
Q 2728 2322 2467 2637 
Q 2206 2953 1844 2953 
Q 1484 2953 1207 2617 
Q 931 2281 931 1641 
z
" transform="scale(0.015625)"/>
       <path id="ArialMT-6f" d="M 213 1659 
Q 213 2581 725 3025 
Q 1153 3394 1769 3394 
Q 2453 3394 2887 2945 
Q 3322 2497 3322 1706 
Q 3322 1066 3130 698 
Q 2938 331 2570 128 
Q 2203 -75 1769 -75 
Q 1072 -75 642 372 
Q 213 819 213 1659 
z
M 791 1659 
Q 791 1022 1069 705 
Q 1347 388 1769 388 
Q 2188 388 2466 706 
Q 2744 1025 2744 1678 
Q 2744 2294 2464 2611 
Q 2184 2928 1769 2928 
Q 1347 2928 1069 2612 
Q 791 2297 791 1659 
z
" transform="scale(0.015625)"/>
      </defs>
      <use xlink:href="#ArialMT-54"/>
      <use xlink:href="#ArialMT-65" x="49.958984"/>
      <use xlink:href="#ArialMT-6d" x="105.574219"/>
      <use xlink:href="#ArialMT-70" x="188.875"/>
      <use xlink:href="#ArialMT-6f" x="244.490234"/>
     </g>
    </g>
   </g>
   <g id="matplotlib.axis_2">
    <g id="ytick_1">
     <g id="line2d_7">
      <path d="M 70.86 365.1 
L 628.56 365.1 
" clip-path="url(#p2e7110d9ac)" style="fill: none; stroke: #cccccc; stroke-width: 1.5; stroke-linecap: round"/>
     </g>
     <g id="text_8">
      <!-- 0 -->
      <g style="fill: #262626" transform="translate(49.184453 371.005195) scale(0.165 -0.165)">
       <use xlink:href="#ArialMT-30"/>
      </g>
     </g>
    </g>
    <g id="ytick_2">
     <g id="line2d_8">
      <path d="M 70.86 297.157708 
L 628.56 297.157708 
" clip-path="url(#p2e7110d9ac)" style="fill: none; stroke: #cccccc; stroke-width: 1.5; stroke-linecap: round"/>
     </g>
     <g id="text_9">
      <!-- 5 -->
      <g style="fill: #262626" transform="translate(49.184453 303.062903) scale(0.165 -0.165)">
       <defs>
        <path id="ArialMT-35" d="M 266 1200 
L 856 1250 
Q 922 819 1161 601 
Q 1400 384 1738 384 
Q 2144 384 2425 690 
Q 2706 997 2706 1503 
Q 2706 1984 2436 2262 
Q 2166 2541 1728 2541 
Q 1456 2541 1237 2417 
Q 1019 2294 894 2097 
L 366 2166 
L 809 4519 
L 3088 4519 
L 3088 3981 
L 1259 3981 
L 1013 2750 
Q 1425 3038 1878 3038 
Q 2478 3038 2890 2622 
Q 3303 2206 3303 1553 
Q 3303 931 2941 478 
Q 2500 -78 1738 -78 
Q 1113 -78 717 272 
Q 322 622 266 1200 
z
" transform="scale(0.015625)"/>
       </defs>
       <use xlink:href="#ArialMT-35"/>
      </g>
     </g>
    </g>
    <g id="ytick_3">
     <g id="line2d_9">
      <path d="M 70.86 229.215415 
L 628.56 229.215415 
" clip-path="url(#p2e7110d9ac)" style="fill: none; stroke: #cccccc; stroke-width: 1.5; stroke-linecap: round"/>
     </g>
     <g id="text_10">
      <!-- 10 -->
      <g style="fill: #262626" transform="translate(40.008906 235.120611) scale(0.165 -0.165)">
       <use xlink:href="#ArialMT-31"/>
       <use xlink:href="#ArialMT-30" x="55.615234"/>
      </g>
     </g>
    </g>
    <g id="ytick_4">
     <g id="line2d_10">
      <path d="M 70.86 161.273123 
L 628.56 161.273123 
" clip-path="url(#p2e7110d9ac)" style="fill: none; stroke: #cccccc; stroke-width: 1.5; stroke-linecap: round"/>
     </g>
     <g id="text_11">
      <!-- 15 -->
      <g style="fill: #262626" transform="translate(40.008906 167.178318) scale(0.165 -0.165)">
       <use xlink:href="#ArialMT-31"/>
       <use xlink:href="#ArialMT-35" x="55.615234"/>
      </g>
     </g>
    </g>
    <g id="ytick_5">
     <g id="line2d_11">
      <path d="M 70.86 93.330831 
L 628.56 93.330831 
" clip-path="url(#p2e7110d9ac)" style="fill: none; stroke: #cccccc; stroke-width: 1.5; stroke-linecap: round"/>
     </g>
     <g id="text_12">
      <!-- 20 -->
      <g style="fill: #262626" transform="translate(40.008906 99.236026) scale(0.165 -0.165)">
       <use xlink:href="#ArialMT-32"/>
       <use xlink:href="#ArialMT-30" x="55.615234"/>
      </g>
     </g>
    </g>
    <g id="ytick_6">
     <g id="line2d_12">
      <path d="M 70.86 25.388538 
L 628.56 25.388538 
" clip-path="url(#p2e7110d9ac)" style="fill: none; stroke: #cccccc; stroke-width: 1.5; stroke-linecap: round"/>
     </g>
     <g id="text_13">
      <!-- 25 -->
      <g style="fill: #262626" transform="translate(40.008906 31.293734) scale(0.165 -0.165)">
       <use xlink:href="#ArialMT-32"/>
       <use xlink:href="#ArialMT-35" x="55.615234"/>
      </g>
     </g>
    </g>
    <g id="text_14">
     <!-- Valor -->
     <g style="fill: #262626" transform="translate(32.431406 212.954815) rotate(-90) scale(0.18 -0.18)">
      <defs>
       <path id="ArialMT-56" d="M 1803 0 
L 28 4581 
L 684 4581 
L 1875 1253 
Q 2019 853 2116 503 
Q 2222 878 2363 1253 
L 3600 4581 
L 4219 4581 
L 2425 0 
L 1803 0 
z
" transform="scale(0.015625)"/>
       <path id="ArialMT-61" d="M 2588 409 
Q 2275 144 1986 34 
Q 1697 -75 1366 -75 
Q 819 -75 525 192 
Q 231 459 231 875 
Q 231 1119 342 1320 
Q 453 1522 633 1644 
Q 813 1766 1038 1828 
Q 1203 1872 1538 1913 
Q 2219 1994 2541 2106 
Q 2544 2222 2544 2253 
Q 2544 2597 2384 2738 
Q 2169 2928 1744 2928 
Q 1347 2928 1158 2789 
Q 969 2650 878 2297 
L 328 2372 
Q 403 2725 575 2942 
Q 747 3159 1072 3276 
Q 1397 3394 1825 3394 
Q 2250 3394 2515 3294 
Q 2781 3194 2906 3042 
Q 3031 2891 3081 2659 
Q 3109 2516 3109 2141 
L 3109 1391 
Q 3109 606 3145 398 
Q 3181 191 3288 0 
L 2700 0 
Q 2613 175 2588 409 
z
M 2541 1666 
Q 2234 1541 1622 1453 
Q 1275 1403 1131 1340 
Q 988 1278 909 1158 
Q 831 1038 831 891 
Q 831 666 1001 516 
Q 1172 366 1500 366 
Q 1825 366 2078 508 
Q 2331 650 2450 897 
Q 2541 1088 2541 1459 
L 2541 1666 
z
" transform="scale(0.015625)"/>
       <path id="ArialMT-6c" d="M 409 0 
L 409 4581 
L 972 4581 
L 972 0 
L 409 0 
z
" transform="scale(0.015625)"/>
       <path id="ArialMT-72" d="M 416 0 
L 416 3319 
L 922 3319 
L 922 2816 
Q 1116 3169 1280 3281 
Q 1444 3394 1641 3394 
Q 1925 3394 2219 3213 
L 2025 2691 
Q 1819 2813 1613 2813 
Q 1428 2813 1281 2702 
Q 1134 2591 1072 2394 
Q 978 2094 978 1738 
L 978 0 
L 416 0 
z
" transform="scale(0.015625)"/>
      </defs>
      <use xlink:href="#ArialMT-56"/>
      <use xlink:href="#ArialMT-61" x="59.324219"/>
      <use xlink:href="#ArialMT-6c" x="114.939453"/>
      <use xlink:href="#ArialMT-6f" x="137.15625"/>
      <use xlink:href="#ArialMT-72" x="192.771484"/>
     </g>
    </g>
   </g>
   <g id="PolyCollection_1"/>
   <g id="PolyCollection_2">
    <defs>
     <path id="m5f6bb98cfc" d="M 70.86 -94.086103 
L 70.86 -39.707442 
L 71.924415 -40.251246 
L 72.988829 -40.52446 
L 74.053244 -41.574432 
L 75.117658 -41.866594 
L 76.182073 -42.342904 
L 77.246487 -42.917832 
L 78.310902 -43.542929 
L 79.375316 -44.066822 
L 80.439731 -44.301911 
L 81.504145 -45.290845 
L 82.56856 -45.677319 
L 83.632975 -46.209436 
L 84.697389 -46.898522 
L 85.761804 -47.208745 
L 86.826218 -47.671264 
L 87.890633 -48.371785 
L 88.955047 -49.150037 
L 90.019462 -49.551984 
L 91.083876 -50.153832 
L 92.148291 -50.651466 
L 93.212705 -51.062225 
L 94.27712 -51.576019 
L 95.341534 -52.32745 
L 96.405949 -52.652491 
L 97.470364 -53.123652 
L 98.534778 -53.690679 
L 99.599193 -54.29718 
L 100.663607 -54.916336 
L 101.728022 -55.46626 
L 102.792436 -56.250486 
L 103.856851 -56.547478 
L 104.921265 -57.165822 
L 105.98568 -57.530146 
L 107.050094 -58.248877 
L 108.114509 -58.734506 
L 109.178924 -59.266412 
L 110.243338 -59.876975 
L 111.307753 -60.360187 
L 112.372167 -60.788058 
L 113.436582 -61.345982 
L 114.500996 -62.114896 
L 115.565411 -62.616144 
L 116.629825 -63.022826 
L 117.69424 -63.641351 
L 118.758654 -64.408286 
L 119.823069 -64.657155 
L 120.887484 -65.395553 
L 121.951898 -65.829885 
L 123.016313 -66.448314 
L 124.080727 -67.1796 
L 125.145142 -67.574678 
L 126.209556 -68.055308 
L 127.273971 -68.681266 
L 128.338385 -69.044872 
L 129.4028 -69.820135 
L 130.467214 -70.316576 
L 131.531629 -70.951919 
L 132.596044 -71.245403 
L 133.660458 -71.929922 
L 134.724873 -72.549672 
L 135.789287 -72.897936 
L 136.853702 -73.483018 
L 137.918116 -74.043261 
L 138.982531 -74.673202 
L 140.046945 -74.977584 
L 141.11136 -75.599741 
L 142.175774 -76.25364 
L 143.240189 -76.728335 
L 144.304603 -77.134121 
L 145.369018 -77.758646 
L 146.433433 -78.441769 
L 147.497847 -78.979869 
L 148.562262 -79.333082 
L 149.626676 -80.101392 
L 150.691091 -80.63203 
L 151.755505 -80.945654 
L 152.81992 -81.716308 
L 153.884334 -82.270933 
L 154.948749 -82.614087 
L 156.013163 -83.262333 
L 157.077578 -83.776255 
L 158.141993 -84.420439 
L 159.206407 -84.875701 
L 160.270822 -85.355099 
L 161.335236 -86.025049 
L 162.399651 -86.596844 
L 163.464065 -87.234295 
L 164.52848 -87.893808 
L 165.592894 -88.21103 
L 166.657309 -88.731481 
L 167.721723 -89.560376 
L 168.786138 -90.069259 
L 169.850553 -90.332777 
L 170.914967 -90.644813 
L 171.979382 -91.394761 
L 173.043796 -91.958631 
L 174.108211 -92.60737 
L 175.172625 -93.04445 
L 176.23704 -93.469488 
L 177.301454 -94.271732 
L 178.365869 -94.807765 
L 179.430283 -95.255369 
L 180.494698 -95.685145 
L 181.559113 -96.233598 
L 182.623527 -97.077936 
L 183.687942 -97.479122 
L 184.752356 -98.039603 
L 185.816771 -98.672977 
L 186.881185 -99.055304 
L 187.9456 -99.867468 
L 189.010014 -100.137509 
L 190.074429 -100.577933 
L 191.138843 -101.220565 
L 192.203258 -101.855776 
L 193.267672 -102.311545 
L 194.332087 -102.981395 
L 195.396502 -103.245556 
L 196.460916 -103.863487 
L 197.525331 -104.655331 
L 198.589745 -105.20902 
L 199.65416 -105.691008 
L 200.718574 -106.030316 
L 201.782989 -106.729468 
L 202.847403 -107.135706 
L 203.911818 -107.674347 
L 204.976232 -108.352611 
L 206.040647 -109.050452 
L 207.105062 -109.556999 
L 208.169476 -109.8332 
L 209.233891 -110.531983 
L 210.298305 -110.906974 
L 211.36272 -111.538147 
L 212.427134 -112.336726 
L 213.491549 -112.784574 
L 214.555963 -113.081473 
L 215.620378 -113.784225 
L 216.684792 -114.36202 
L 217.749207 -114.735234 
L 218.813622 -115.4879 
L 219.878036 -115.919146 
L 220.942451 -116.440504 
L 222.006865 -116.966067 
L 223.07128 -117.518876 
L 224.135694 -118.259467 
L 225.200109 -118.555627 
L 226.264523 -119.419 
L 227.328938 -119.629281 
L 228.393352 -120.343049 
L 229.457767 -120.931622 
L 230.522182 -121.175758 
L 231.586596 -121.78545 
L 232.651011 -122.634784 
L 233.715425 -122.927822 
L 234.77984 -123.710791 
L 235.844254 -124.292693 
L 236.908669 -124.756123 
L 237.973083 -125.276084 
L 239.037498 -126.012127 
L 240.101912 -126.370473 
L 241.166327 -126.878239 
L 242.230741 -127.297697 
L 243.295156 -127.967387 
L 244.359571 -128.532596 
L 245.423985 -129.017735 
L 246.4884 -129.594504 
L 247.552814 -130.102153 
L 248.617229 -130.667475 
L 249.681643 -131.15362 
L 250.746058 -131.792856 
L 251.810472 -132.177888 
L 252.874887 -132.896864 
L 253.939301 -133.190085 
L 255.003716 -133.906853 
L 256.068131 -134.433972 
L 257.132545 -135.151335 
L 258.19696 -135.589017 
L 259.261374 -136.069755 
L 260.325789 -136.674836 
L 261.390203 -137.278323 
L 262.454618 -137.777097 
L 263.519032 -138.335926 
L 264.583447 -139.011013 
L 265.647861 -139.362679 
L 266.712276 -139.953754 
L 267.776691 -140.456521 
L 268.841105 -140.866817 
L 269.90552 -141.704728 
L 270.969934 -142.102559 
L 272.034349 -142.584622 
L 273.098763 -142.977148 
L 274.163178 -143.710225 
L 275.227592 -144.233493 
L 276.292007 -144.864917 
L 277.356421 -145.358169 
L 278.420836 -146.069461 
L 279.485251 -146.483079 
L 280.549665 -147.0152 
L 281.61408 -147.530435 
L 282.678494 -148.122744 
L 283.742909 -148.584369 
L 284.807323 -149.408884 
L 285.871738 -149.708736 
L 286.936152 -150.242338 
L 288.000567 -150.881698 
L 289.064981 -151.42889 
L 290.129396 -151.832899 
L 291.19381 -152.316908 
L 292.258225 -153.008766 
L 293.32264 -153.447272 
L 294.387054 -154.270404 
L 295.451469 -154.52806 
L 296.515883 -155.063628 
L 297.580298 -155.819751 
L 298.644712 -156.263126 
L 299.709127 -156.806151 
L 300.773541 -157.530315 
L 301.837956 -157.657004 
L 302.90237 -158.594043 
L 303.966785 -158.915329 
L 305.0312 -159.598065 
L 306.095614 -160.123811 
L 307.160029 -160.67271 
L 308.224443 -161.190774 
L 309.288858 -161.577475 
L 310.353272 -162.335815 
L 311.417687 -162.813152 
L 312.482101 -163.342657 
L 313.546516 -163.681877 
L 314.61093 -164.365848 
L 315.675345 -165.164594 
L 316.73976 -165.36933 
L 317.804174 -165.987534 
L 318.868589 -166.552962 
L 319.933003 -167.165345 
L 320.997418 -167.708432 
L 322.061832 -168.212452 
L 323.126247 -169.213063 
L 324.190661 -169.124699 
L 325.255076 -169.735279 
L 326.31949 -170.461529 
L 327.383905 -171.103064 
L 328.448319 -171.404852 
L 329.512734 -171.860685 
L 330.577149 -172.465277 
L 331.641563 -173.111776 
L 332.705978 -173.671049 
L 333.770392 -174.335387 
L 334.834807 -174.899069 
L 335.899221 -175.4387 
L 336.963636 -175.909811 
L 338.02805 -176.406253 
L 339.092465 -176.87604 
L 340.156879 -177.519297 
L 341.221294 -177.989028 
L 342.285709 -178.742825 
L 343.350123 -179.170821 
L 344.414538 -179.782776 
L 345.478952 -180.321171 
L 346.543367 -180.871625 
L 347.607781 -181.252608 
L 348.672196 -181.91434 
L 349.73661 -182.57559 
L 350.801025 -182.83365 
L 351.865439 -183.585006 
L 352.929854 -184.230182 
L 353.994269 -184.689855 
L 355.058683 -185.190268 
L 356.123098 -185.476229 
L 357.187512 -186.154883 
L 358.251927 -186.850306 
L 359.316341 -187.268597 
L 360.380756 -187.735392 
L 361.44517 -188.657256 
L 362.509585 -188.903176 
L 363.573999 -189.64621 
L 364.638414 -190.045189 
L 365.702829 -190.79145 
L 366.767243 -191.090792 
L 367.831658 -191.72714 
L 368.896072 -192.115226 
L 369.960487 -192.848424 
L 371.024901 -193.321612 
L 372.089316 -193.787851 
L 373.15373 -194.485537 
L 374.218145 -194.983953 
L 375.282559 -195.663727 
L 376.346974 -196.181735 
L 377.411388 -196.595091 
L 378.475803 -197.192859 
L 379.540218 -197.708031 
L 380.604632 -198.340506 
L 381.669047 -198.76373 
L 382.733461 -199.311937 
L 383.797876 -199.848243 
L 384.86229 -200.466791 
L 385.926705 -200.873227 
L 386.991119 -201.417238 
L 388.055534 -201.886022 
L 389.119948 -202.660666 
L 390.184363 -203.054858 
L 391.248778 -203.419742 
L 392.313192 -204.184493 
L 393.377607 -204.676372 
L 394.442021 -205.349862 
L 395.506436 -205.804656 
L 396.57085 -206.452944 
L 397.635265 -206.910567 
L 398.699679 -207.436659 
L 399.764094 -208.065006 
L 400.828508 -208.430903 
L 401.892923 -209.086647 
L 402.957338 -209.634689 
L 404.021752 -210.27221 
L 405.086167 -210.805155 
L 406.150581 -211.236038 
L 407.214996 -212.015764 
L 408.27941 -212.545295 
L 409.343825 -212.962413 
L 410.408239 -213.518201 
L 411.472654 -214.083541 
L 412.537068 -214.391591 
L 413.601483 -215.350832 
L 414.665898 -215.767687 
L 415.730312 -216.191355 
L 416.794727 -216.616615 
L 417.859141 -217.181089 
L 418.923556 -217.790804 
L 419.98797 -218.341832 
L 421.052385 -219.011608 
L 422.116799 -219.519874 
L 423.181214 -219.863226 
L 424.245628 -220.494678 
L 425.310043 -221.147712 
L 426.374457 -221.71174 
L 427.438872 -222.33647 
L 428.503287 -222.669356 
L 429.567701 -223.392571 
L 430.632116 -223.875619 
L 431.69653 -224.25806 
L 432.760945 -225.058045 
L 433.825359 -225.383806 
L 434.889774 -225.965727 
L 435.954188 -226.400928 
L 437.018603 -226.918707 
L 438.083017 -227.419831 
L 439.147432 -228.109126 
L 440.211847 -228.836135 
L 441.276261 -229.337911 
L 442.340676 -229.875057 
L 443.40509 -230.391138 
L 444.469505 -230.950917 
L 445.533919 -231.28758 
L 446.598334 -232.038637 
L 447.662748 -232.536855 
L 448.727163 -233.119151 
L 449.791577 -233.603411 
L 450.855992 -234.156906 
L 451.920407 -234.611957 
L 452.984821 -235.182351 
L 454.049236 -235.881763 
L 455.11365 -236.145313 
L 456.178065 -236.729451 
L 457.242479 -237.306724 
L 458.306894 -237.946053 
L 459.371308 -238.565907 
L 460.435723 -239.066555 
L 461.500137 -239.679942 
L 462.564552 -240.267526 
L 463.628967 -240.768356 
L 464.693381 -241.209727 
L 465.757796 -241.789448 
L 466.82221 -242.421557 
L 467.886625 -242.839787 
L 468.951039 -243.278545 
L 470.015454 -243.905017 
L 471.079868 -244.531178 
L 472.144283 -245.045901 
L 473.208697 -245.522369 
L 474.273112 -246.192774 
L 475.337526 -246.664483 
L 476.401941 -247.384326 
L 477.466356 -247.66567 
L 478.53077 -248.216946 
L 479.595185 -248.808667 
L 480.659599 -249.43203 
L 481.724014 -249.946979 
L 482.788428 -250.329733 
L 483.852843 -250.974245 
L 484.917257 -251.424615 
L 485.981672 -252.118965 
L 487.046086 -252.918938 
L 488.110501 -253.226506 
L 489.174916 -253.723189 
L 490.23933 -254.104195 
L 491.303745 -254.960884 
L 492.368159 -255.664636 
L 493.432574 -256.084258 
L 494.496988 -256.561504 
L 495.561403 -257.103718 
L 496.625817 -257.529095 
L 497.690232 -258.137582 
L 498.754646 -258.644868 
L 499.819061 -259.007644 
L 500.883476 -259.606698 
L 501.94789 -260.227097 
L 503.012305 -260.793663 
L 504.076719 -261.363672 
L 505.141134 -261.945078 
L 506.205548 -262.654295 
L 507.269963 -263.076644 
L 508.334377 -263.643771 
L 509.398792 -264.066149 
L 510.463206 -264.606196 
L 511.527621 -265.300534 
L 512.592035 -265.82336 
L 513.65645 -266.359829 
L 514.720865 -266.827848 
L 515.785279 -267.493228 
L 516.849694 -268.061302 
L 517.914108 -268.469885 
L 518.978523 -269.186429 
L 520.042937 -269.615153 
L 521.107352 -270.039312 
L 522.171766 -270.684512 
L 523.236181 -271.122206 
L 524.300595 -271.861685 
L 525.36501 -272.382228 
L 526.429425 -272.674876 
L 527.493839 -273.437421 
L 528.558254 -273.866922 
L 529.622668 -274.590551 
L 530.687083 -275.022014 
L 531.751497 -275.397418 
L 532.815912 -276.181748 
L 533.880326 -276.519006 
L 534.944741 -277.082492 
L 536.009155 -277.646486 
L 537.07357 -278.242261 
L 538.137985 -278.833772 
L 539.202399 -279.502139 
L 540.266814 -279.947957 
L 541.331228 -280.337876 
L 542.395643 -281.210532 
L 543.460057 -281.50639 
L 544.524472 -282.101568 
L 545.588886 -282.608565 
L 546.653301 -283.109494 
L 547.717715 -283.518114 
L 548.78213 -284.179168 
L 549.846545 -284.758323 
L 550.910959 -285.108342 
L 551.975374 -285.907718 
L 553.039788 -286.526085 
L 554.104203 -286.950256 
L 555.168617 -287.682887 
L 556.233032 -288.207737 
L 557.297446 -288.732387 
L 558.361861 -289.238866 
L 559.426275 -289.654906 
L 560.49069 -290.334248 
L 561.555104 -290.753987 
L 562.619519 -291.626213 
L 563.683934 -291.810168 
L 564.748348 -292.490285 
L 565.812763 -293.028079 
L 566.877177 -293.558367 
L 567.941592 -294.013846 
L 569.006006 -294.635379 
L 570.070421 -295.140704 
L 571.134835 -295.807892 
L 572.19925 -296.32964 
L 573.263664 -296.934281 
L 574.328079 -297.335327 
L 575.392494 -297.818761 
L 576.456908 -298.486304 
L 577.521323 -299.046104 
L 578.585737 -299.579078 
L 579.650152 -299.99565 
L 580.714566 -300.519463 
L 581.778981 -301.19098 
L 582.843395 -301.73742 
L 583.90781 -302.071508 
L 584.972224 -302.661344 
L 586.036639 -303.224784 
L 587.101054 -303.726243 
L 588.165468 -304.276419 
L 589.229883 -305.095712 
L 590.294297 -305.501244 
L 591.358712 -306.119225 
L 592.423126 -306.788986 
L 593.487541 -307.026532 
L 594.551955 -307.699908 
L 595.61637 -308.34237 
L 596.680784 -308.9086 
L 597.745199 -309.21675 
L 598.809614 -309.69112 
L 599.874028 -310.450676 
L 600.938443 -310.978892 
L 602.002857 -311.437832 
L 602.002857 -365.722151 
L 602.002857 -365.722151 
L 600.938443 -365.21002 
L 599.874028 -364.783942 
L 598.809614 -364.161605 
L 597.745199 -363.65702 
L 596.680784 -363.168759 
L 595.61637 -362.65124 
L 594.551955 -362.122531 
L 593.487541 -361.527209 
L 592.423126 -361.044008 
L 591.358712 -360.478673 
L 590.294297 -359.732567 
L 589.229883 -359.202291 
L 588.165468 -358.561803 
L 587.101054 -358.237009 
L 586.036639 -357.388573 
L 584.972224 -357.196747 
L 583.90781 -356.459388 
L 582.843395 -356.147097 
L 581.778981 -355.426127 
L 580.714566 -354.84797 
L 579.650152 -354.390376 
L 578.585737 -353.86373 
L 577.521323 -353.388931 
L 576.456908 -352.915049 
L 575.392494 -352.079648 
L 574.328079 -351.627994 
L 573.263664 -351.311345 
L 572.19925 -350.815645 
L 571.134835 -350.036567 
L 570.070421 -349.475008 
L 569.006006 -348.924128 
L 567.941592 -348.501445 
L 566.877177 -348.022724 
L 565.812763 -347.498204 
L 564.748348 -346.837409 
L 563.683934 -346.312076 
L 562.619519 -345.907458 
L 561.555104 -345.103884 
L 560.49069 -344.682544 
L 559.426275 -344.018541 
L 558.361861 -343.54634 
L 557.297446 -343.103518 
L 556.233032 -342.421698 
L 555.168617 -341.887451 
L 554.104203 -341.292874 
L 553.039788 -340.754966 
L 551.975374 -340.328573 
L 550.910959 -339.425662 
L 549.846545 -339.31419 
L 548.78213 -338.615003 
L 547.717715 -337.946884 
L 546.653301 -337.371033 
L 545.588886 -337.136186 
L 544.524472 -336.507323 
L 543.460057 -335.669785 
L 542.395643 -335.459203 
L 541.331228 -334.762675 
L 540.266814 -334.278135 
L 539.202399 -333.636381 
L 538.137985 -333.204795 
L 537.07357 -332.654606 
L 536.009155 -331.922575 
L 534.944741 -331.547403 
L 533.880326 -330.917451 
L 532.815912 -330.382369 
L 531.751497 -329.850784 
L 530.687083 -329.515277 
L 529.622668 -328.765134 
L 528.558254 -328.171346 
L 527.493839 -327.788879 
L 526.429425 -327.121706 
L 525.36501 -326.743609 
L 524.300595 -326.016703 
L 523.236181 -325.665208 
L 522.171766 -324.907807 
L 521.107352 -324.502532 
L 520.042937 -323.80527 
L 518.978523 -323.374642 
L 517.914108 -322.924645 
L 516.849694 -322.449512 
L 515.785279 -321.824462 
L 514.720865 -320.848273 
L 513.65645 -320.855982 
L 512.592035 -319.969795 
L 511.527621 -319.442832 
L 510.463206 -319.092563 
L 509.398792 -318.573312 
L 508.334377 -317.886857 
L 507.269963 -317.330247 
L 506.205548 -316.991065 
L 505.141134 -316.404791 
L 504.076719 -315.697319 
L 503.012305 -315.213947 
L 501.94789 -314.86118 
L 500.883476 -313.924251 
L 499.819061 -313.610683 
L 498.754646 -313.040473 
L 497.690232 -312.476637 
L 496.625817 -311.960587 
L 495.561403 -311.447832 
L 494.496988 -310.881492 
L 493.432574 -310.59875 
L 492.368159 -309.840284 
L 491.303745 -309.192633 
L 490.23933 -308.5719 
L 489.174916 -308.063932 
L 488.110501 -307.580313 
L 487.046086 -307.158807 
L 485.981672 -306.506107 
L 484.917257 -305.605842 
L 483.852843 -305.479353 
L 482.788428 -304.719561 
L 481.724014 -304.479323 
L 480.659599 -303.648191 
L 479.595185 -303.269157 
L 478.53077 -302.661706 
L 477.466356 -302.094826 
L 476.401941 -301.575765 
L 475.337526 -301.20457 
L 474.273112 -300.402825 
L 473.208697 -299.744369 
L 472.144283 -299.378384 
L 471.079868 -298.89955 
L 470.015454 -298.420771 
L 468.951039 -297.731581 
L 467.886625 -297.466195 
L 466.82221 -296.628595 
L 465.757796 -296.083019 
L 464.693381 -295.525704 
L 463.628967 -295.166062 
L 462.564552 -294.525188 
L 461.500137 -293.866964 
L 460.435723 -293.461891 
L 459.371308 -292.736149 
L 458.306894 -292.115589 
L 457.242479 -291.73656 
L 456.178065 -291.255713 
L 455.11365 -290.48178 
L 454.049236 -290.194572 
L 452.984821 -289.693436 
L 451.920407 -289.052009 
L 450.855992 -288.43627 
L 449.791577 -287.88126 
L 448.727163 -287.559175 
L 447.662748 -287.081837 
L 446.598334 -286.246438 
L 445.533919 -285.656404 
L 444.469505 -285.278898 
L 443.40509 -284.666005 
L 442.340676 -284.068453 
L 441.276261 -283.762093 
L 440.211847 -283.174573 
L 439.147432 -282.464504 
L 438.083017 -281.821274 
L 437.018603 -281.250172 
L 435.954188 -280.795884 
L 434.889774 -280.276235 
L 433.825359 -279.772515 
L 432.760945 -279.336666 
L 431.69653 -278.476444 
L 430.632116 -278.244163 
L 429.567701 -277.687955 
L 428.503287 -277.182457 
L 427.438872 -276.465581 
L 426.374457 -276.034781 
L 425.310043 -275.629302 
L 424.245628 -274.710409 
L 423.181214 -274.226156 
L 422.116799 -273.959113 
L 421.052385 -273.34658 
L 419.98797 -272.590129 
L 418.923556 -272.033588 
L 417.859141 -271.583006 
L 416.794727 -271.062975 
L 415.730312 -270.477076 
L 414.665898 -270.003672 
L 413.601483 -269.508398 
L 412.537068 -268.781695 
L 411.472654 -268.507727 
L 410.408239 -267.608202 
L 409.343825 -267.219147 
L 408.27941 -266.671459 
L 407.214996 -266.245919 
L 406.150581 -265.541139 
L 405.086167 -265.112791 
L 404.021752 -264.716318 
L 402.957338 -263.937148 
L 401.892923 -263.420674 
L 400.828508 -262.823124 
L 399.764094 -262.355938 
L 398.699679 -261.754688 
L 397.635265 -261.297831 
L 396.57085 -260.753583 
L 395.506436 -260.121433 
L 394.442021 -259.558195 
L 393.377607 -259.062884 
L 392.313192 -258.461239 
L 391.248778 -258.07456 
L 390.184363 -257.528832 
L 389.119948 -257.072292 
L 388.055534 -256.237458 
L 386.991119 -255.979568 
L 385.926705 -255.269724 
L 384.86229 -254.693328 
L 383.797876 -254.25399 
L 382.733461 -253.784758 
L 381.669047 -253.069271 
L 380.604632 -252.769136 
L 379.540218 -252.16244 
L 378.475803 -251.416609 
L 377.411388 -250.935106 
L 376.346974 -250.460478 
L 375.282559 -249.907475 
L 374.218145 -249.34709 
L 373.15373 -248.886349 
L 372.089316 -248.140908 
L 371.024901 -247.515965 
L 369.960487 -246.981616 
L 368.896072 -246.378724 
L 367.831658 -246.09143 
L 366.767243 -245.568022 
L 365.702829 -245.060741 
L 364.638414 -244.477239 
L 363.573999 -243.924381 
L 362.509585 -243.273838 
L 361.44517 -242.895157 
L 360.380756 -242.137252 
L 359.316341 -241.432228 
L 358.251927 -241.359635 
L 357.187512 -240.616343 
L 356.123098 -239.988322 
L 355.058683 -239.515329 
L 353.994269 -238.935822 
L 352.929854 -238.492605 
L 351.865439 -237.812604 
L 350.801025 -237.221365 
L 349.73661 -236.736369 
L 348.672196 -236.256709 
L 347.607781 -235.612882 
L 346.543367 -235.181443 
L 345.478952 -234.630339 
L 344.414538 -234.086251 
L 343.350123 -233.284757 
L 342.285709 -233.04826 
L 341.221294 -232.350757 
L 340.156879 -231.938088 
L 339.092465 -231.1564 
L 338.02805 -230.820673 
L 336.963636 -230.300529 
L 335.899221 -229.814275 
L 334.834807 -229.274805 
L 333.770392 -228.589231 
L 332.705978 -228.312456 
L 331.641563 -227.539968 
L 330.577149 -226.701829 
L 329.512734 -226.402257 
L 328.448319 -225.859703 
L 327.383905 -225.455815 
L 326.31949 -224.717043 
L 325.255076 -224.396036 
L 324.190661 -223.520879 
L 323.126247 -223.268932 
L 322.061832 -222.611501 
L 320.997418 -221.974376 
L 319.933003 -221.561027 
L 318.868589 -220.922203 
L 317.804174 -220.411216 
L 316.73976 -219.780924 
L 315.675345 -219.492903 
L 314.61093 -218.664365 
L 313.546516 -218.151898 
L 312.482101 -217.674838 
L 311.417687 -217.19238 
L 310.353272 -216.676421 
L 309.288858 -215.818169 
L 308.224443 -215.551604 
L 307.160029 -215.022588 
L 306.095614 -214.446191 
L 305.0312 -213.722545 
L 303.966785 -213.351305 
L 302.90237 -212.861676 
L 301.837956 -212.224249 
L 300.773541 -211.838888 
L 299.709127 -211.091148 
L 298.644712 -210.562289 
L 297.580298 -210.056535 
L 296.515883 -209.475449 
L 295.451469 -208.84894 
L 294.387054 -208.344035 
L 293.32264 -207.867266 
L 292.258225 -207.446938 
L 291.19381 -206.870299 
L 290.129396 -206.193469 
L 289.064981 -205.860572 
L 288.000567 -205.214189 
L 286.936152 -204.694463 
L 285.871738 -204.246137 
L 284.807323 -203.650692 
L 283.742909 -203.053093 
L 282.678494 -202.443272 
L 281.61408 -201.766076 
L 280.549665 -201.331529 
L 279.485251 -200.829249 
L 278.420836 -200.212635 
L 277.356421 -199.672849 
L 276.292007 -199.310645 
L 275.227592 -198.625789 
L 274.163178 -197.970197 
L 273.098763 -197.523475 
L 272.034349 -197.002372 
L 270.969934 -196.407729 
L 269.90552 -195.837797 
L 268.841105 -195.370868 
L 267.776691 -194.864348 
L 266.712276 -194.232138 
L 265.647861 -193.727292 
L 264.583447 -193.400839 
L 263.519032 -192.723251 
L 262.454618 -192.171154 
L 261.390203 -191.704037 
L 260.325789 -191.09131 
L 259.261374 -190.453766 
L 258.19696 -189.84587 
L 257.132545 -189.56845 
L 256.068131 -188.791157 
L 255.003716 -188.435423 
L 253.939301 -187.649946 
L 252.874887 -187.343244 
L 251.810472 -186.700419 
L 250.746058 -186.17775 
L 249.681643 -185.578701 
L 248.617229 -185.103627 
L 247.552814 -184.53698 
L 246.4884 -183.899562 
L 245.423985 -183.491423 
L 244.359571 -182.864864 
L 243.295156 -182.22903 
L 242.230741 -181.688588 
L 241.166327 -181.193534 
L 240.101912 -180.59256 
L 239.037498 -180.1196 
L 237.973083 -179.586354 
L 236.908669 -179.066008 
L 235.844254 -178.571903 
L 234.77984 -178.075442 
L 233.715425 -177.438537 
L 232.651011 -176.826504 
L 231.586596 -176.157072 
L 230.522182 -175.560457 
L 229.457767 -175.185693 
L 228.393352 -174.579818 
L 227.328938 -174.135356 
L 226.264523 -173.438188 
L 225.200109 -172.907586 
L 224.135694 -172.502208 
L 223.07128 -172.061677 
L 222.006865 -171.30959 
L 220.942451 -170.778876 
L 219.878036 -170.347217 
L 218.813622 -169.910186 
L 217.749207 -169.32566 
L 216.684792 -168.729111 
L 215.620378 -168.208956 
L 214.555963 -167.62501 
L 213.491549 -167.025324 
L 212.427134 -166.567062 
L 211.36272 -165.971833 
L 210.298305 -165.335491 
L 209.233891 -164.805544 
L 208.169476 -164.271227 
L 207.105062 -163.947884 
L 206.040647 -163.275761 
L 204.976232 -162.603966 
L 203.911818 -162.079056 
L 202.847403 -161.657414 
L 201.782989 -161.115139 
L 200.718574 -160.382354 
L 199.65416 -159.967741 
L 198.589745 -159.573006 
L 197.525331 -158.998812 
L 196.460916 -158.308952 
L 195.396502 -157.678262 
L 194.332087 -157.407844 
L 193.267672 -156.773521 
L 192.203258 -156.399164 
L 191.138843 -155.525453 
L 190.074429 -155.214148 
L 189.010014 -154.564953 
L 187.9456 -153.95916 
L 186.881185 -153.414554 
L 185.816771 -152.951941 
L 184.752356 -152.304613 
L 183.687942 -151.642503 
L 182.623527 -151.498203 
L 181.559113 -150.663824 
L 180.494698 -150.122034 
L 179.430283 -149.536364 
L 178.365869 -149.233659 
L 177.301454 -148.603297 
L 176.23704 -147.888624 
L 175.172625 -147.483305 
L 174.108211 -146.933545 
L 173.043796 -146.21635 
L 171.979382 -145.559937 
L 170.914967 -145.280429 
L 169.850553 -144.812746 
L 168.786138 -144.347364 
L 167.721723 -143.719494 
L 166.657309 -143.102851 
L 165.592894 -142.407945 
L 164.52848 -141.991634 
L 163.464065 -141.387477 
L 162.399651 -140.991299 
L 161.335236 -140.478533 
L 160.270822 -139.667709 
L 159.206407 -139.304729 
L 158.141993 -138.746723 
L 157.077578 -138.084817 
L 156.013163 -137.643959 
L 154.948749 -137.018303 
L 153.884334 -136.596264 
L 152.81992 -136.079151 
L 151.755505 -135.537768 
L 150.691091 -135.064162 
L 149.626676 -134.28101 
L 148.562262 -133.76939 
L 147.497847 -133.363344 
L 146.433433 -132.680584 
L 145.369018 -132.250462 
L 144.304603 -131.448384 
L 143.240189 -131.155055 
L 142.175774 -130.682259 
L 141.11136 -129.967902 
L 140.046945 -129.373576 
L 138.982531 -129.105797 
L 137.918116 -128.463936 
L 136.853702 -127.750875 
L 135.789287 -127.154775 
L 134.724873 -126.813383 
L 133.660458 -126.288 
L 132.596044 -125.489896 
L 131.531629 -124.99381 
L 130.467214 -124.514438 
L 129.4028 -124.169787 
L 128.338385 -123.571866 
L 127.273971 -123.083485 
L 126.209556 -122.395222 
L 125.145142 -122.059464 
L 124.080727 -121.395334 
L 123.016313 -120.924689 
L 121.951898 -120.249578 
L 120.887484 -119.613897 
L 119.823069 -119.179447 
L 118.758654 -118.657012 
L 117.69424 -118.146459 
L 116.629825 -117.540097 
L 115.565411 -116.84742 
L 114.500996 -116.380623 
L 113.436582 -115.70464 
L 112.372167 -115.41347 
L 111.307753 -114.756268 
L 110.243338 -114.141239 
L 109.178924 -113.6639 
L 108.114509 -113.04818 
L 107.050094 -112.637983 
L 105.98568 -112.310213 
L 104.921265 -111.547472 
L 103.856851 -110.88973 
L 102.792436 -110.529599 
L 101.728022 -109.773522 
L 100.663607 -109.310208 
L 99.599193 -108.724354 
L 98.534778 -108.220178 
L 97.470364 -107.552989 
L 96.405949 -106.950978 
L 95.341534 -106.612977 
L 94.27712 -106.032331 
L 93.212705 -105.512812 
L 92.148291 -105.023474 
L 91.083876 -104.314305 
L 90.019462 -103.797066 
L 88.955047 -103.339203 
L 87.890633 -102.802197 
L 86.826218 -102.120819 
L 85.761804 -101.708333 
L 84.697389 -101.281731 
L 83.632975 -100.717363 
L 82.56856 -100.022194 
L 81.504145 -99.612625 
L 80.439731 -98.829901 
L 79.375316 -98.394768 
L 78.310902 -98.002528 
L 77.246487 -97.226929 
L 76.182073 -96.819977 
L 75.117658 -96.179518 
L 74.053244 -95.81319 
L 72.988829 -95.105842 
L 71.924415 -94.748215 
L 70.86 -94.086103 
z
" style="stroke: #ffa500; stroke-opacity: 0.3; stroke-width: 1.5"/>
    </defs>
    <g clip-path="url(#p2e7110d9ac)">
     <use xlink:href="#m5f6bb98cfc" x="0" y="432" style="fill: #ffa500; fill-opacity: 0.3; stroke: #ffa500; stroke-opacity: 0.3; stroke-width: 1.5"/>
    </g>
   </g>
   <g id="PolyCollection_3">
    <defs>
     <path id="m81759df9d1" d="M 70.86 -121.275434 
L 70.86 -12.518111 
L 71.924415 -13.002762 
L 72.988829 -13.233768 
L 74.053244 -14.455053 
L 75.117658 -14.710131 
L 76.182073 -15.104368 
L 77.246487 -15.763284 
L 78.310902 -16.313129 
L 79.375316 -16.902849 
L 80.439731 -17.037917 
L 81.504145 -18.129956 
L 82.56856 -18.504881 
L 83.632975 -18.955472 
L 84.697389 -19.706918 
L 85.761804 -19.95895 
L 86.826218 -20.446487 
L 87.890633 -21.15658 
L 88.955047 -22.055455 
L 90.019462 -22.429443 
L 91.083876 -23.073596 
L 92.148291 -23.465462 
L 93.212705 -23.836931 
L 94.27712 -24.347863 
L 95.341534 -25.184686 
L 96.405949 -25.503248 
L 97.470364 -25.908983 
L 98.534778 -26.42593 
L 99.599193 -27.083593 
L 100.663607 -27.719401 
L 101.728022 -28.312628 
L 102.792436 -29.110929 
L 103.856851 -29.376352 
L 104.921265 -29.974998 
L 105.98568 -30.140113 
L 107.050094 -31.054324 
L 108.114509 -31.57767 
L 109.178924 -32.067668 
L 110.243338 -32.744843 
L 111.307753 -33.162146 
L 112.372167 -33.475352 
L 113.436582 -34.166654 
L 114.500996 -34.982033 
L 115.565411 -35.500506 
L 116.629825 -35.76419 
L 117.69424 -36.388798 
L 118.758654 -37.283923 
L 119.823069 -37.396009 
L 120.887484 -38.286381 
L 121.951898 -38.620038 
L 123.016313 -39.210126 
L 124.080727 -40.071733 
L 125.145142 -40.332285 
L 126.209556 -40.885351 
L 127.273971 -41.480156 
L 128.338385 -41.781375 
L 129.4028 -42.645309 
L 130.467214 -43.217645 
L 131.531629 -43.930973 
L 132.596044 -44.123156 
L 133.660458 -44.750882 
L 134.724873 -45.417817 
L 135.789287 -45.769516 
L 136.853702 -46.34909 
L 137.918116 -46.832924 
L 138.982531 -47.456904 
L 140.046945 -47.779587 
L 141.11136 -48.415661 
L 142.175774 -49.039331 
L 143.240189 -49.514975 
L 144.304603 -49.97699 
L 145.369018 -50.512739 
L 146.433433 -51.322361 
L 147.497847 -51.788131 
L 148.562262 -52.114929 
L 149.626676 -53.011584 
L 150.691091 -53.415965 
L 151.755505 -53.649597 
L 152.81992 -54.534887 
L 153.884334 -55.108267 
L 154.948749 -55.411979 
L 156.013163 -56.07152 
L 157.077578 -56.621973 
L 158.141993 -57.257297 
L 159.206407 -57.661187 
L 160.270822 -58.198794 
L 161.335236 -58.798306 
L 162.399651 -59.399617 
L 163.464065 -60.157704 
L 164.52848 -60.844896 
L 165.592894 -61.112572 
L 166.657309 -61.545797 
L 167.721723 -62.480817 
L 168.786138 -62.930207 
L 169.850553 -63.092792 
L 170.914967 -63.327005 
L 171.979382 -64.312173 
L 173.043796 -64.829771 
L 174.108211 -65.444283 
L 175.172625 -65.825022 
L 176.23704 -66.25992 
L 177.301454 -67.105949 
L 178.365869 -67.594818 
L 179.430283 -68.114872 
L 180.494698 -68.466701 
L 181.559113 -69.018486 
L 182.623527 -69.867803 
L 183.687942 -70.397432 
L 184.752356 -70.907098 
L 185.816771 -71.533495 
L 186.881185 -71.875679 
L 187.9456 -72.821622 
L 189.010014 -72.923787 
L 190.074429 -73.259825 
L 191.138843 -74.068121 
L 192.203258 -74.584082 
L 193.267672 -75.080557 
L 194.332087 -75.76817 
L 195.396502 -76.029203 
L 196.460916 -76.640755 
L 197.525331 -77.483591 
L 198.589745 -78.027027 
L 199.65416 -78.552642 
L 200.718574 -78.854298 
L 201.782989 -79.536633 
L 202.847403 -79.874852 
L 203.911818 -80.471992 
L 204.976232 -81.226934 
L 206.040647 -81.937798 
L 207.105062 -82.361556 
L 208.169476 -82.614187 
L 209.233891 -83.395202 
L 210.298305 -83.692715 
L 211.36272 -84.321304 
L 212.427134 -85.221559 
L 213.491549 -85.664199 
L 214.555963 -85.809705 
L 215.620378 -86.571859 
L 216.684792 -87.178475 
L 217.749207 -87.440021 
L 218.813622 -88.276758 
L 219.878036 -88.70511 
L 220.942451 -89.271318 
L 222.006865 -89.794305 
L 223.07128 -90.247475 
L 224.135694 -91.138097 
L 225.200109 -91.379648 
L 226.264523 -92.409406 
L 227.328938 -92.376244 
L 228.393352 -93.224665 
L 229.457767 -93.804587 
L 230.522182 -93.983409 
L 231.586596 -94.599639 
L 232.651011 -95.538924 
L 233.715425 -95.672464 
L 234.77984 -96.528466 
L 235.844254 -97.153088 
L 236.908669 -97.60118 
L 237.973083 -98.120949 
L 239.037498 -98.958391 
L 240.101912 -99.25943 
L 241.166327 -99.720592 
L 242.230741 -100.102251 
L 243.295156 -100.836566 
L 244.359571 -101.366462 
L 245.423985 -101.780891 
L 246.4884 -102.441975 
L 247.552814 -102.884739 
L 248.617229 -103.4494 
L 249.681643 -103.941079 
L 250.746058 -104.600408 
L 251.810472 -104.916622 
L 252.874887 -105.673674 
L 253.939301 -105.960155 
L 255.003716 -106.642568 
L 256.068131 -107.25538 
L 257.132545 -107.942778 
L 258.19696 -108.46059 
L 259.261374 -108.87775 
L 260.325789 -109.466599 
L 261.390203 -110.065466 
L 262.454618 -110.580068 
L 263.519032 -111.142264 
L 264.583447 -111.8161 
L 265.647861 -112.180373 
L 266.712276 -112.814562 
L 267.776691 -113.252607 
L 268.841105 -113.614791 
L 269.90552 -114.638193 
L 270.969934 -114.949974 
L 272.034349 -115.375748 
L 273.098763 -115.703984 
L 274.163178 -116.58024 
L 275.227592 -117.037345 
L 276.292007 -117.642052 
L 277.356421 -118.200829 
L 278.420836 -118.997874 
L 279.485251 -119.309994 
L 280.549665 -119.857035 
L 281.61408 -120.412615 
L 282.678494 -120.96248 
L 283.742909 -121.350007 
L 284.807323 -122.28798 
L 285.871738 -122.440036 
L 286.936152 -123.016276 
L 288.000567 -123.715452 
L 289.064981 -124.21305 
L 290.129396 -124.652614 
L 291.19381 -125.040212 
L 292.258225 -125.78968 
L 293.32264 -126.237275 
L 294.387054 -127.233588 
L 295.451469 -127.36762 
L 296.515883 -127.857717 
L 297.580298 -128.701359 
L 298.644712 -129.113544 
L 299.709127 -129.663653 
L 300.773541 -130.376029 
L 301.837956 -130.373382 
L 302.90237 -131.460227 
L 303.966785 -131.697341 
L 305.0312 -132.535825 
L 306.095614 -132.962621 
L 307.160029 -133.497772 
L 308.224443 -134.010359 
L 309.288858 -134.457128 
L 310.353272 -135.165512 
L 311.417687 -135.623537 
L 312.482101 -136.176566 
L 313.546516 -136.446867 
L 314.61093 -137.216589 
L 315.675345 -138.00044 
L 316.73976 -138.163533 
L 317.804174 -138.775693 
L 318.868589 -139.368341 
L 319.933003 -139.967504 
L 320.997418 -140.575461 
L 322.061832 -141.012928 
L 323.126247 -142.185128 
L 324.190661 -141.926609 
L 325.255076 -142.404901 
L 326.31949 -143.333773 
L 327.383905 -143.926688 
L 328.448319 -144.177426 
L 329.512734 -144.589899 
L 330.577149 -145.347002 
L 331.641563 -145.89768 
L 332.705978 -146.350345 
L 333.770392 -147.208465 
L 334.834807 -147.7112 
L 335.899221 -148.250912 
L 336.963636 -148.714452 
L 338.02805 -149.199042 
L 339.092465 -149.735861 
L 340.156879 -150.309902 
L 341.221294 -150.808164 
L 342.285709 -151.590107 
L 343.350123 -152.113853 
L 344.414538 -152.631038 
L 345.478952 -153.166588 
L 346.543367 -153.716715 
L 347.607781 -154.07247 
L 348.672196 -154.743156 
L 349.73661 -155.495201 
L 350.801025 -155.639793 
L 351.865439 -156.471206 
L 352.929854 -157.09897 
L 353.994269 -157.566872 
L 355.058683 -158.027737 
L 356.123098 -158.220182 
L 357.187512 -158.924152 
L 358.251927 -159.595642 
L 359.316341 -160.186782 
L 360.380756 -160.534462 
L 361.44517 -161.538306 
L 362.509585 -161.717844 
L 363.573999 -162.507124 
L 364.638414 -162.829164 
L 365.702829 -163.656805 
L 366.767243 -163.852176 
L 367.831658 -164.544994 
L 368.896072 -164.983477 
L 369.960487 -165.781828 
L 371.024901 -166.224435 
L 372.089316 -166.611322 
L 373.15373 -167.285131 
L 374.218145 -167.802385 
L 375.282559 -168.541854 
L 376.346974 -169.042364 
L 377.411388 -169.425084 
L 378.475803 -170.080984 
L 379.540218 -170.480826 
L 380.604632 -171.126191 
L 381.669047 -171.610959 
L 382.733461 -172.075527 
L 383.797876 -172.645369 
L 384.86229 -173.353523 
L 385.926705 -173.674978 
L 386.991119 -174.136073 
L 388.055534 -174.710304 
L 389.119948 -175.454852 
L 390.184363 -175.817871 
L 391.248778 -176.092333 
L 392.313192 -177.04612 
L 393.377607 -177.483116 
L 394.442021 -178.245696 
L 395.506436 -178.646268 
L 396.57085 -179.302624 
L 397.635265 -179.716935 
L 398.699679 -180.277644 
L 399.764094 -180.91954 
L 400.828508 -181.234792 
L 401.892923 -181.919633 
L 402.957338 -182.483459 
L 404.021752 -183.050156 
L 405.086167 -183.651338 
L 406.150581 -184.083487 
L 407.214996 -184.900686 
L 408.27941 -185.482213 
L 409.343825 -185.834047 
L 410.408239 -186.473201 
L 411.472654 -186.871447 
L 412.537068 -187.196539 
L 413.601483 -188.272049 
L 414.665898 -188.649695 
L 415.730312 -189.048494 
L 416.794727 -189.393435 
L 417.859141 -189.98013 
L 418.923556 -190.669412 
L 419.98797 -191.217684 
L 421.052385 -191.844122 
L 422.116799 -192.300254 
L 423.181214 -192.681761 
L 424.245628 -193.386813 
L 425.310043 -193.906916 
L 426.374457 -194.55022 
L 427.438872 -195.271914 
L 428.503287 -195.412805 
L 429.567701 -196.244879 
L 430.632116 -196.691347 
L 431.69653 -197.148868 
L 432.760945 -197.918735 
L 433.825359 -198.189451 
L 434.889774 -198.810473 
L 435.954188 -199.203449 
L 437.018603 -199.752974 
L 438.083017 -200.21911 
L 439.147432 -200.931437 
L 440.211847 -201.666917 
L 441.276261 -202.125819 
L 442.340676 -202.77836 
L 443.40509 -203.253704 
L 444.469505 -203.786926 
L 445.533919 -204.103168 
L 446.598334 -204.934736 
L 447.662748 -205.264364 
L 448.727163 -205.89914 
L 449.791577 -206.464486 
L 450.855992 -207.017224 
L 451.920407 -207.391931 
L 452.984821 -207.926809 
L 454.049236 -208.725359 
L 455.11365 -208.97708 
L 456.178065 -209.466321 
L 457.242479 -210.091805 
L 458.306894 -210.861285 
L 459.371308 -211.480786 
L 460.435723 -211.868887 
L 461.500137 -212.58643 
L 462.564552 -213.138694 
L 463.628967 -213.569502 
L 464.693381 -214.051739 
L 465.757796 -214.642663 
L 466.82221 -215.318037 
L 467.886625 -215.526583 
L 468.951039 -216.052027 
L 470.015454 -216.64714 
L 471.079868 -217.346992 
L 472.144283 -217.879659 
L 473.208697 -218.411369 
L 474.273112 -219.087748 
L 475.337526 -219.394439 
L 476.401941 -220.288606 
L 477.466356 -220.451092 
L 478.53077 -220.994566 
L 479.595185 -221.578422 
L 480.659599 -222.323949 
L 481.724014 -222.680808 
L 482.788428 -223.13482 
L 483.852843 -223.72169 
L 484.917257 -224.334002 
L 485.981672 -224.925394 
L 487.046086 -225.799003 
L 488.110501 -226.049602 
L 489.174916 -226.552818 
L 490.23933 -226.870342 
L 491.303745 -227.84501 
L 492.368159 -228.576811 
L 493.432574 -228.827012 
L 494.496988 -229.40151 
L 495.561403 -229.931661 
L 496.625817 -230.313349 
L 497.690232 -230.968055 
L 498.754646 -231.447065 
L 499.819061 -231.706125 
L 500.883476 -232.447922 
L 501.94789 -232.910055 
L 503.012305 -233.583522 
L 504.076719 -234.196848 
L 505.141134 -234.715222 
L 506.205548 -235.48591 
L 507.269963 -235.949842 
L 508.334377 -236.522227 
L 509.398792 -236.812568 
L 510.463206 -237.363013 
L 511.527621 -238.229384 
L 512.592035 -238.750143 
L 513.65645 -239.111753 
L 514.720865 -239.817635 
L 515.785279 -240.327611 
L 516.849694 -240.867197 
L 517.914108 -241.242504 
L 518.978523 -242.092322 
L 520.042937 -242.520094 
L 521.107352 -242.807703 
L 522.171766 -243.572865 
L 523.236181 -243.850705 
L 524.300595 -244.784176 
L 525.36501 -245.201537 
L 526.429425 -245.451461 
L 527.493839 -246.261692 
L 528.558254 -246.71471 
L 529.622668 -247.50326 
L 530.687083 -247.775383 
L 531.751497 -248.170735 
L 532.815912 -249.081437 
L 533.880326 -249.319783 
L 534.944741 -249.850037 
L 536.009155 -250.508441 
L 537.07357 -251.036088 
L 538.137985 -251.648261 
L 539.202399 -252.435018 
L 540.266814 -252.782867 
L 541.331228 -253.125476 
L 542.395643 -254.086196 
L 543.460057 -254.424693 
L 544.524472 -254.89869 
L 545.588886 -255.344755 
L 546.653301 -255.978725 
L 547.717715 -256.303729 
L 548.78213 -256.96125 
L 549.846545 -257.480389 
L 550.910959 -257.949683 
L 551.975374 -258.697291 
L 553.039788 -259.411644 
L 554.104203 -259.778947 
L 555.168617 -260.580605 
L 556.233032 -261.100757 
L 557.297446 -261.546821 
L 558.361861 -262.085129 
L 559.426275 -262.473089 
L 560.49069 -263.160101 
L 561.555104 -263.579039 
L 562.619519 -264.48559 
L 563.683934 -264.559214 
L 564.748348 -265.316722 
L 565.812763 -265.793017 
L 566.877177 -266.326189 
L 567.941592 -266.770047 
L 569.006006 -267.491005 
L 570.070421 -267.973552 
L 571.134835 -268.693554 
L 572.19925 -269.086637 
L 573.263664 -269.745749 
L 574.328079 -270.188993 
L 575.392494 -270.688317 
L 576.456908 -271.271931 
L 577.521323 -271.874691 
L 578.585737 -272.436752 
L 579.650152 -272.798286 
L 580.714566 -273.355209 
L 581.778981 -274.073406 
L 582.843395 -274.532581 
L 583.90781 -274.877568 
L 584.972224 -275.393643 
L 586.036639 -276.142889 
L 587.101054 -276.470859 
L 588.165468 -277.133727 
L 589.229883 -278.042422 
L 590.294297 -278.385582 
L 591.358712 -278.939501 
L 592.423126 -279.661475 
L 593.487541 -279.776193 
L 594.551955 -280.488597 
L 595.61637 -281.187934 
L 596.680784 -281.778521 
L 597.745199 -281.996614 
L 598.809614 -282.455878 
L 599.874028 -283.284043 
L 600.938443 -283.863328 
L 602.002857 -284.295672 
L 602.002857 -392.864311 
L 602.002857 -392.864311 
L 600.938443 -392.325584 
L 599.874028 -391.950575 
L 598.809614 -391.396847 
L 597.745199 -390.877156 
L 596.680784 -390.298838 
L 595.61637 -389.805675 
L 594.551955 -389.333843 
L 593.487541 -388.777548 
L 592.423126 -388.171519 
L 591.358712 -387.658397 
L 590.294297 -386.848229 
L 589.229883 -386.25558 
L 588.165468 -385.704496 
L 587.101054 -385.492393 
L 586.036639 -384.470467 
L 584.972224 -384.464449 
L 583.90781 -383.653328 
L 582.843395 -383.351936 
L 581.778981 -382.543701 
L 580.714566 -382.012224 
L 579.650152 -381.58774 
L 578.585737 -381.006056 
L 577.521323 -380.560345 
L 576.456908 -380.129422 
L 575.392494 -379.210091 
L 574.328079 -378.774328 
L 573.263664 -378.499877 
L 572.19925 -378.058648 
L 571.134835 -377.150904 
L 570.070421 -376.64216 
L 569.006006 -376.068502 
L 567.941592 -375.745244 
L 566.877177 -375.254902 
L 565.812763 -374.733266 
L 564.748348 -374.010971 
L 563.683934 -373.56303 
L 562.619519 -373.04808 
L 561.555104 -372.278832 
L 560.49069 -371.856691 
L 559.426275 -371.200359 
L 558.361861 -370.700077 
L 557.297446 -370.289084 
L 556.233032 -369.528678 
L 555.168617 -368.989733 
L 554.104203 -368.464183 
L 553.039788 -367.869407 
L 551.975374 -367.539001 
L 550.910959 -366.584322 
L 549.846545 -366.592123 
L 548.78213 -365.832921 
L 547.717715 -365.161269 
L 546.653301 -364.501802 
L 545.588886 -364.399997 
L 544.524472 -363.710201 
L 543.460057 -362.751482 
L 542.395643 -362.583538 
L 541.331228 -361.975074 
L 540.266814 -361.443225 
L 539.202399 -360.703501 
L 538.137985 -360.390307 
L 537.07357 -359.860779 
L 536.009155 -359.06062 
L 534.944741 -358.779858 
L 533.880326 -358.116674 
L 532.815912 -357.48268 
L 531.751497 -357.077467 
L 530.687083 -356.761908 
L 529.622668 -355.852426 
L 528.558254 -355.323559 
L 527.493839 -354.964608 
L 526.429425 -354.34512 
L 525.36501 -353.9243 
L 524.300595 -353.094212 
L 523.236181 -352.936709 
L 522.171766 -352.019455 
L 521.107352 -351.734141 
L 520.042937 -350.900328 
L 518.978523 -350.468748 
L 517.914108 -350.152025 
L 516.849694 -349.643617 
L 515.785279 -348.990079 
L 514.720865 -347.858486 
L 513.65645 -348.104058 
L 512.592035 -347.043012 
L 511.527621 -346.513982 
L 510.463206 -346.335746 
L 509.398792 -345.826894 
L 508.334377 -345.0084 
L 507.269963 -344.457049 
L 506.205548 -344.15945 
L 505.141134 -343.634648 
L 504.076719 -342.864142 
L 503.012305 -342.424089 
L 501.94789 -342.178221 
L 500.883476 -341.083027 
L 499.819061 -340.912203 
L 498.754646 -340.238276 
L 497.690232 -339.646165 
L 496.625817 -339.176333 
L 495.561403 -338.61989 
L 494.496988 -338.041486 
L 493.432574 -337.855996 
L 492.368159 -336.928109 
L 491.303745 -336.308507 
L 490.23933 -335.805753 
L 489.174916 -335.234303 
L 488.110501 -334.757216 
L 487.046086 -334.278742 
L 485.981672 -333.699678 
L 484.917257 -332.696456 
L 483.852843 -332.731907 
L 482.788428 -331.914474 
L 481.724014 -331.745495 
L 480.659599 -330.756272 
L 479.595185 -330.499402 
L 478.53077 -329.884086 
L 477.466356 -329.309404 
L 476.401941 -328.671485 
L 475.337526 -328.474614 
L 474.273112 -327.50785 
L 473.208697 -326.855369 
L 472.144283 -326.544625 
L 471.079868 -326.083736 
L 470.015454 -325.678649 
L 468.951039 -324.958099 
L 467.886625 -324.779399 
L 466.82221 -323.732114 
L 465.757796 -323.229804 
L 464.693381 -322.683693 
L 463.628967 -322.364915 
L 462.564552 -321.654019 
L 461.500137 -320.960475 
L 460.435723 -320.65956 
L 459.371308 -319.82127 
L 458.306894 -319.200357 
L 457.242479 -318.951479 
L 456.178065 -318.518844 
L 455.11365 -317.650013 
L 454.049236 -317.350976 
L 452.984821 -316.948979 
L 451.920407 -316.272034 
L 450.855992 -315.575952 
L 449.791577 -315.020185 
L 448.727163 -314.779187 
L 447.662748 -314.354328 
L 446.598334 -313.350339 
L 445.533919 -312.840816 
L 444.469505 -312.442888 
L 443.40509 -311.803439 
L 442.340676 -311.16515 
L 441.276261 -310.974184 
L 440.211847 -310.343791 
L 439.147432 -309.642193 
L 438.083017 -309.021996 
L 437.018603 -308.415905 
L 435.954188 -307.993362 
L 434.889774 -307.431489 
L 433.825359 -306.96687 
L 432.760945 -306.475976 
L 431.69653 -305.585635 
L 430.632116 -305.428435 
L 429.567701 -304.835647 
L 428.503287 -304.439008 
L 427.438872 -303.530136 
L 426.374457 -303.196301 
L 425.310043 -302.870097 
L 424.245628 -301.818274 
L 423.181214 -301.407621 
L 422.116799 -301.178733 
L 421.052385 -300.514065 
L 419.98797 -299.714277 
L 418.923556 -299.15498 
L 417.859141 -298.783964 
L 416.794727 -298.286155 
L 415.730312 -297.619937 
L 414.665898 -297.121665 
L 413.601483 -296.587181 
L 412.537068 -295.976747 
L 411.472654 -295.71982 
L 410.408239 -294.653202 
L 409.343825 -294.347513 
L 408.27941 -293.734541 
L 407.214996 -293.360997 
L 406.150581 -292.693689 
L 405.086167 -292.266608 
L 404.021752 -291.938372 
L 402.957338 -291.088377 
L 401.892923 -290.587687 
L 400.828508 -290.019235 
L 399.764094 -289.501404 
L 398.699679 -288.913703 
L 397.635265 -288.491463 
L 396.57085 -287.903902 
L 395.506436 -287.279821 
L 394.442021 -286.662361 
L 393.377607 -286.256139 
L 392.313192 -285.599612 
L 391.248778 -285.401969 
L 390.184363 -284.765818 
L 389.119948 -284.278106 
L 388.055534 -283.413176 
L 386.991119 -283.260734 
L 385.926705 -282.467973 
L 384.86229 -281.806597 
L 383.797876 -281.456863 
L 382.733461 -281.021169 
L 381.669047 -280.222041 
L 380.604632 -279.983451 
L 379.540218 -279.389644 
L 378.475803 -278.528483 
L 377.411388 -278.105113 
L 376.346974 -277.599849 
L 375.282559 -277.029349 
L 374.218145 -276.528658 
L 373.15373 -276.086755 
L 372.089316 -275.317437 
L 371.024901 -274.613142 
L 369.960487 -274.048211 
L 368.896072 -273.510473 
L 367.831658 -273.273575 
L 366.767243 -272.806637 
L 365.702829 -272.195387 
L 364.638414 -271.693264 
L 363.573999 -271.063467 
L 362.509585 -270.45917 
L 361.44517 -270.014107 
L 360.380756 -269.338181 
L 359.316341 -268.514043 
L 358.251927 -268.614299 
L 357.187512 -267.847074 
L 356.123098 -267.244369 
L 355.058683 -266.67786 
L 353.994269 -266.058805 
L 352.929854 -265.623817 
L 351.865439 -264.926403 
L 350.801025 -264.415223 
L 349.73661 -263.816758 
L 348.672196 -263.427894 
L 347.607781 -262.793019 
L 346.543367 -262.336353 
L 345.478952 -261.784922 
L 344.414538 -261.237989 
L 343.350123 -260.341725 
L 342.285709 -260.200977 
L 341.221294 -259.531622 
L 340.156879 -259.147483 
L 339.092465 -258.296579 
L 338.02805 -258.027884 
L 336.963636 -257.495888 
L 335.899221 -257.002063 
L 334.834807 -256.462674 
L 333.770392 -255.716153 
L 332.705978 -255.63316 
L 331.641563 -254.754063 
L 330.577149 -253.820104 
L 329.512734 -253.673043 
L 328.448319 -253.087129 
L 327.383905 -252.632191 
L 326.31949 -251.844799 
L 325.255076 -251.726414 
L 324.190661 -250.718969 
L 323.126247 -250.296867 
L 322.061832 -249.811025 
L 320.997418 -249.107347 
L 319.933003 -248.758868 
L 318.868589 -248.106824 
L 317.804174 -247.623056 
L 316.73976 -246.98672 
L 315.675345 -246.657058 
L 314.61093 -245.813623 
L 313.546516 -245.386908 
L 312.482101 -244.840928 
L 311.417687 -244.381995 
L 310.353272 -243.846724 
L 309.288858 -242.938516 
L 308.224443 -242.732019 
L 307.160029 -242.197526 
L 306.095614 -241.607381 
L 305.0312 -240.784785 
L 303.966785 -240.569293 
L 302.90237 -239.995492 
L 301.837956 -239.507871 
L 300.773541 -238.993175 
L 299.709127 -238.233647 
L 298.644712 -237.71187 
L 297.580298 -237.174927 
L 296.515883 -236.68136 
L 295.451469 -236.00938 
L 294.387054 -235.380851 
L 293.32264 -235.077263 
L 292.258225 -234.666024 
L 291.19381 -234.146995 
L 290.129396 -233.373754 
L 289.064981 -233.076413 
L 288.000567 -232.380434 
L 286.936152 -231.920525 
L 285.871738 -231.514838 
L 284.807323 -230.771596 
L 283.742909 -230.287455 
L 282.678494 -229.603536 
L 281.61408 -228.883896 
L 280.549665 -228.489694 
L 279.485251 -228.002334 
L 278.420836 -227.284222 
L 277.356421 -226.830189 
L 276.292007 -226.53351 
L 275.227592 -225.821937 
L 274.163178 -225.100183 
L 273.098763 -224.796639 
L 272.034349 -224.211247 
L 270.969934 -223.560314 
L 269.90552 -222.904331 
L 268.841105 -222.622894 
L 267.776691 -222.068262 
L 266.712276 -221.37133 
L 265.647861 -220.909599 
L 264.583447 -220.595752 
L 263.519032 -219.916914 
L 262.454618 -219.368183 
L 261.390203 -218.916894 
L 260.325789 -218.299547 
L 259.261374 -217.645771 
L 258.19696 -216.974296 
L 257.132545 -216.777007 
L 256.068131 -215.969749 
L 255.003716 -215.699708 
L 253.939301 -214.879876 
L 252.874887 -214.566434 
L 251.810472 -213.961685 
L 250.746058 -213.370198 
L 249.681643 -212.791242 
L 248.617229 -212.321702 
L 247.552814 -211.754394 
L 246.4884 -211.052091 
L 245.423985 -210.728267 
L 244.359571 -210.030998 
L 243.295156 -209.359851 
L 242.230741 -208.884034 
L 241.166327 -208.351181 
L 240.101912 -207.703604 
L 239.037498 -207.173337 
L 237.973083 -206.741489 
L 236.908669 -206.22095 
L 235.844254 -205.711507 
L 234.77984 -205.257767 
L 233.715425 -204.693895 
L 232.651011 -203.922364 
L 231.586596 -203.342883 
L 230.522182 -202.752806 
L 229.457767 -202.312728 
L 228.393352 -201.698202 
L 227.328938 -201.388394 
L 226.264523 -200.447782 
L 225.200109 -200.083565 
L 224.135694 -199.623578 
L 223.07128 -199.333077 
L 222.006865 -198.481352 
L 220.942451 -197.948062 
L 219.878036 -197.561252 
L 218.813622 -197.121329 
L 217.749207 -196.620873 
L 216.684792 -195.912656 
L 215.620378 -195.421322 
L 214.555963 -194.896779 
L 213.491549 -194.145699 
L 212.427134 -193.68223 
L 211.36272 -193.188675 
L 210.298305 -192.54975 
L 209.233891 -191.942325 
L 208.169476 -191.49024 
L 207.105062 -191.143327 
L 206.040647 -190.388415 
L 204.976232 -189.729644 
L 203.911818 -189.28141 
L 202.847403 -188.918268 
L 201.782989 -188.307974 
L 200.718574 -187.558373 
L 199.65416 -187.106107 
L 198.589745 -186.754999 
L 197.525331 -186.170553 
L 196.460916 -185.531685 
L 195.396502 -184.894615 
L 194.332087 -184.621068 
L 193.267672 -184.004508 
L 192.203258 -183.670859 
L 191.138843 -182.677897 
L 190.074429 -182.532255 
L 189.010014 -181.778675 
L 187.9456 -181.005006 
L 186.881185 -180.594178 
L 185.816771 -180.091423 
L 184.752356 -179.437118 
L 183.687942 -178.724193 
L 182.623527 -178.708336 
L 181.559113 -177.878936 
L 180.494698 -177.340479 
L 179.430283 -176.676861 
L 178.365869 -176.446607 
L 177.301454 -175.76908 
L 176.23704 -175.098192 
L 175.172625 -174.702732 
L 174.108211 -174.096633 
L 173.043796 -173.345209 
L 171.979382 -172.642524 
L 170.914967 -172.598237 
L 169.850553 -172.05273 
L 168.786138 -171.486417 
L 167.721723 -170.799053 
L 166.657309 -170.288536 
L 165.592894 -169.506402 
L 164.52848 -169.040547 
L 163.464065 -168.464069 
L 162.399651 -168.188527 
L 161.335236 -167.705276 
L 160.270822 -166.824014 
L 159.206407 -166.519244 
L 158.141993 -165.909865 
L 157.077578 -165.239098 
L 156.013163 -164.834772 
L 154.948749 -164.220411 
L 153.884334 -163.75893 
L 152.81992 -163.260572 
L 151.755505 -162.833825 
L 150.691091 -162.280227 
L 149.626676 -161.370819 
L 148.562262 -160.987543 
L 147.497847 -160.555081 
L 146.433433 -159.799991 
L 145.369018 -159.49637 
L 144.304603 -158.605515 
L 143.240189 -158.368414 
L 142.175774 -157.896569 
L 141.11136 -157.151983 
L 140.046945 -156.571573 
L 138.982531 -156.322095 
L 137.918116 -155.674273 
L 136.853702 -154.884803 
L 135.789287 -154.283195 
L 134.724873 -153.945239 
L 133.660458 -153.467039 
L 132.596044 -152.612143 
L 131.531629 -152.014756 
L 130.467214 -151.613369 
L 129.4028 -151.344613 
L 128.338385 -150.835362 
L 127.273971 -150.284595 
L 126.209556 -149.565179 
L 125.145142 -149.301857 
L 124.080727 -148.5032 
L 123.016313 -148.162877 
L 121.951898 -147.459424 
L 120.887484 -146.723069 
L 119.823069 -146.440593 
L 118.758654 -145.781374 
L 117.69424 -145.399012 
L 116.629825 -144.798733 
L 115.565411 -143.963058 
L 114.500996 -143.513486 
L 113.436582 -142.883968 
L 112.372167 -142.726175 
L 111.307753 -141.954308 
L 110.243338 -141.273371 
L 109.178924 -140.862643 
L 108.114509 -140.205017 
L 107.050094 -139.832535 
L 105.98568 -139.700246 
L 104.921265 -138.738296 
L 103.856851 -138.060856 
L 102.792436 -137.669156 
L 101.728022 -136.927154 
L 100.663607 -136.507144 
L 99.599193 -135.937942 
L 98.534778 -135.484928 
L 97.470364 -134.767658 
L 96.405949 -134.100221 
L 95.341534 -133.75574 
L 94.27712 -133.260487 
L 93.212705 -132.738106 
L 92.148291 -132.209478 
L 91.083876 -131.394542 
L 90.019462 -130.919607 
L 88.955047 -130.433786 
L 87.890633 -130.017403 
L 86.826218 -129.345596 
L 85.761804 -128.958127 
L 84.697389 -128.473335 
L 83.632975 -127.971327 
L 82.56856 -127.194632 
L 81.504145 -126.773515 
L 80.439731 -126.093896 
L 79.375316 -125.558741 
L 78.310902 -125.232328 
L 77.246487 -124.381478 
L 76.182073 -124.058514 
L 75.117658 -123.33598 
L 74.053244 -122.932569 
L 72.988829 -122.396534 
L 71.924415 -121.996699 
L 70.86 -121.275434 
z
" style="stroke: #ffa500; stroke-opacity: 0.1; stroke-width: 1.5"/>
    </defs>
    <g clip-path="url(#p2e7110d9ac)">
     <use xlink:href="#m81759df9d1" x="0" y="432" style="fill: #ffa500; fill-opacity: 0.1; stroke: #ffa500; stroke-opacity: 0.1; stroke-width: 1.5"/>
    </g>
   </g>
   <g id="PolyCollection_4"/>
   <g id="line2d_13">
    <path d="M 70.86 365.103227 
L 71.924415 364.500269 
L 72.988829 364.184849 
L 74.053244 363.306189 
L 75.117658 362.976944 
L 79.375316 360.769205 
L 80.439731 360.434094 
L 81.504145 359.548265 
L 82.56856 359.150244 
L 84.697389 357.909873 
L 86.826218 357.103958 
L 88.955047 355.75538 
L 90.019462 355.325475 
L 95.341534 352.529787 
L 96.405949 352.198266 
L 99.599193 350.489233 
L 102.792436 348.609957 
L 103.856851 348.281396 
L 105.98568 347.079821 
L 113.436582 343.474689 
L 114.500996 342.75224 
L 116.629825 341.718539 
L 118.758654 340.467351 
L 119.823069 340.081699 
L 125.145142 337.182929 
L 126.209556 336.774735 
L 127.273971 336.117625 
L 128.338385 335.691631 
L 129.4028 335.005039 
L 130.467214 334.584493 
L 131.531629 334.027135 
L 132.596044 333.632351 
L 133.660458 332.891039 
L 134.724873 332.318472 
L 135.789287 331.973645 
L 138.982531 330.110501 
L 140.046945 329.82442 
L 143.240189 328.058305 
L 144.304603 327.708748 
L 145.369018 326.995446 
L 153.884334 322.566401 
L 154.948749 322.183805 
L 156.013163 321.546854 
L 157.077578 321.069464 
L 158.141993 320.416419 
L 160.270822 319.488596 
L 161.335236 318.748209 
L 166.657309 316.082834 
L 167.721723 315.360065 
L 168.786138 314.791688 
L 170.914967 314.037379 
L 173.043796 312.91251 
L 174.108211 312.229542 
L 176.23704 311.320944 
L 177.301454 310.562485 
L 178.365869 309.979288 
L 179.430283 309.604133 
L 181.559113 308.551289 
L 182.623527 307.71193 
L 183.687942 307.439188 
L 185.816771 306.187541 
L 186.881185 305.765071 
L 187.9456 305.086686 
L 190.074429 304.10396 
L 191.138843 303.626991 
L 192.203258 302.87253 
L 193.267672 302.457467 
L 194.332087 301.805381 
L 195.396502 301.538091 
L 198.589745 299.608987 
L 200.718574 298.793665 
L 201.782989 298.077696 
L 203.911818 297.123299 
L 207.105062 295.247558 
L 208.169476 294.947787 
L 209.233891 294.331236 
L 210.298305 293.878768 
L 213.491549 292.095051 
L 214.555963 291.646758 
L 216.684792 290.454435 
L 217.749207 289.969553 
L 218.813622 289.300957 
L 220.942451 288.39031 
L 222.006865 287.862171 
L 224.135694 286.619163 
L 225.200109 286.268394 
L 226.264523 285.571406 
L 227.328938 285.117681 
L 229.457767 283.941343 
L 230.522182 283.631892 
L 231.586596 283.028739 
L 232.651011 282.269356 
L 233.715425 281.816821 
L 234.77984 281.106884 
L 241.166327 277.964114 
L 242.230741 277.506857 
L 245.423985 275.745421 
L 247.552814 274.680433 
L 250.746058 273.014697 
L 251.810472 272.560846 
L 252.874887 271.879946 
L 253.939301 271.579985 
L 255.003716 270.828862 
L 256.068131 270.387436 
L 257.132545 269.640107 
L 258.19696 269.282557 
L 260.325789 268.116927 
L 262.454618 267.025874 
L 267.776691 264.339565 
L 268.841105 263.881157 
L 269.90552 263.228738 
L 273.098763 261.749688 
L 278.420836 258.858952 
L 283.742909 256.181269 
L 284.807323 255.470212 
L 286.936152 254.5316 
L 289.064981 253.355269 
L 290.129396 252.986816 
L 294.387054 250.692781 
L 295.451469 250.3115 
L 300.773541 247.315398 
L 301.837956 247.059373 
L 302.90237 246.27214 
L 303.966785 245.866683 
L 306.095614 244.714999 
L 308.224443 243.628811 
L 309.288858 243.302178 
L 310.353272 242.493882 
L 314.61093 240.484894 
L 315.675345 239.671251 
L 316.73976 239.424873 
L 319.933003 237.636814 
L 322.061832 236.588024 
L 323.126247 235.759002 
L 324.190661 235.677211 
L 325.255076 234.934343 
L 326.31949 234.410714 
L 327.383905 233.72056 
L 328.448319 233.367722 
L 330.577149 232.416447 
L 332.705978 231.008247 
L 333.770392 230.537691 
L 335.899221 229.373512 
L 339.092465 227.98378 
L 340.156879 227.271308 
L 341.221294 226.830107 
L 342.285709 226.104458 
L 343.350123 225.772211 
L 344.414538 225.065487 
L 346.543367 223.973466 
L 347.607781 223.567255 
L 349.73661 222.34402 
L 350.801025 221.972492 
L 352.929854 220.638607 
L 356.123098 219.267725 
L 358.251927 217.895029 
L 359.316341 217.649587 
L 360.380756 217.063678 
L 361.44517 216.223793 
L 362.509585 215.911493 
L 363.573999 215.214705 
L 364.638414 214.738786 
L 365.702829 214.073904 
L 366.767243 213.670593 
L 367.831658 213.090715 
L 368.896072 212.753025 
L 369.960487 212.08498 
L 372.089316 211.03562 
L 373.15373 210.314057 
L 374.218145 209.834479 
L 376.346974 208.678894 
L 378.475803 207.695266 
L 380.604632 206.445179 
L 381.669047 206.0835 
L 383.797876 204.948884 
L 388.055534 202.93826 
L 389.119948 202.133521 
L 391.248778 201.252849 
L 397.635265 197.895801 
L 398.699679 197.404326 
L 399.764094 196.789528 
L 400.828508 196.372986 
L 404.021752 194.505736 
L 406.150581 193.611412 
L 407.214996 192.869159 
L 410.408239 191.436799 
L 411.472654 190.704366 
L 412.537068 190.413357 
L 413.601483 189.570385 
L 416.794727 188.160205 
L 419.98797 186.53402 
L 421.052385 185.820906 
L 422.116799 185.260506 
L 423.181214 184.955309 
L 424.245628 184.397456 
L 425.310043 183.611493 
L 428.503287 182.074093 
L 430.632116 180.940109 
L 431.69653 180.632748 
L 432.760945 179.802644 
L 433.825359 179.421839 
L 437.018603 177.915561 
L 438.083017 177.379447 
L 441.276261 175.449998 
L 442.340676 175.028245 
L 444.469505 173.885093 
L 445.533919 173.528008 
L 447.662748 172.190654 
L 448.727163 171.660837 
L 449.791577 171.257665 
L 454.049236 168.961833 
L 455.11365 168.686454 
L 456.178065 168.007418 
L 459.371308 166.348972 
L 462.564552 164.603643 
L 463.628967 164.032791 
L 464.693381 163.632284 
L 467.886625 161.847009 
L 468.951039 161.494937 
L 471.079868 160.284636 
L 474.273112 158.702201 
L 476.401941 157.519954 
L 477.466356 157.119752 
L 481.724014 154.786849 
L 482.788428 154.475353 
L 483.852843 153.773201 
L 484.917257 153.484771 
L 487.046086 151.961127 
L 488.110501 151.596591 
L 490.23933 150.661953 
L 492.368159 149.24754 
L 493.432574 148.658496 
L 494.496988 148.278502 
L 498.754646 146.157329 
L 500.883476 145.234526 
L 501.94789 144.455862 
L 504.076719 143.469505 
L 506.205548 142.17732 
L 507.269963 141.796554 
L 513.65645 138.392095 
L 514.720865 138.16194 
L 515.785279 137.341155 
L 516.849694 136.744593 
L 517.914108 136.302735 
L 518.978523 135.719465 
L 520.042937 135.289789 
L 525.36501 132.437082 
L 526.429425 132.101709 
L 527.493839 131.38685 
L 528.558254 130.980866 
L 530.687083 129.731354 
L 531.751497 129.375899 
L 532.815912 128.717941 
L 533.880326 128.281771 
L 538.137985 125.980716 
L 542.395643 123.665133 
L 543.460057 123.411913 
L 544.524472 122.695555 
L 545.588886 122.127624 
L 546.653301 121.759736 
L 547.717715 121.267501 
L 549.846545 119.963744 
L 550.910959 119.732998 
L 551.975374 118.881854 
L 556.233032 116.685283 
L 557.297446 116.082047 
L 559.426275 115.163276 
L 560.49069 114.491604 
L 561.555104 114.071064 
L 562.619519 113.233165 
L 563.683934 112.938878 
L 566.877177 111.209454 
L 570.070421 109.692144 
L 573.263664 107.877187 
L 575.392494 107.050796 
L 576.456908 106.299323 
L 581.778981 103.691446 
L 582.843395 103.057742 
L 583.90781 102.734552 
L 584.972224 102.070954 
L 586.036639 101.693322 
L 587.101054 101.018374 
L 588.165468 100.580889 
L 589.229883 99.850999 
L 590.294297 99.383095 
L 592.423126 98.083503 
L 593.487541 97.723129 
L 595.61637 96.503195 
L 596.680784 95.96132 
L 598.809614 95.073638 
L 599.874028 94.382691 
L 602.002857 93.420009 
L 602.002857 93.420009 
" clip-path="url(#p2e7110d9ac)" style="fill: none; stroke: #4c72b0; stroke-width: 2.25; stroke-linecap: round"/>
   </g>
   <g id="line2d_14">
    <path d="M 70.86 343.968325 
L 71.924415 354.868704 
L 72.988829 387.602256 
L 74.053244 365.89838 
L 75.117658 347.761207 
L 76.182073 368.280239 
L 77.246487 368.583771 
L 78.310902 306.960914 
L 79.375316 358.610969 
L 80.439731 391.949144 
L 81.504145 328.036287 
L 82.56856 392.922319 
L 83.632975 353.474083 
L 84.697389 390.974966 
L 85.761804 356.443662 
L 86.826218 363.632789 
L 87.890633 362.846837 
L 88.955047 336.065315 
L 90.019462 362.494589 
L 92.148291 331.990191 
L 93.212705 399.801577 
L 94.27712 360.083215 
L 96.405949 309.531038 
L 97.470364 373.754879 
L 98.534778 336.949182 
L 99.599193 358.263191 
L 100.663607 373.399733 
L 102.792436 360.740542 
L 103.856851 339.64772 
L 104.921265 380.040864 
L 105.98568 328.478785 
L 107.050094 365.808127 
L 108.114509 355.114675 
L 109.178924 356.685282 
L 110.243338 311.363643 
L 111.307753 377.343363 
L 112.372167 325.931047 
L 113.436582 327.924713 
L 114.500996 395.388393 
L 115.565411 386.525071 
L 116.629825 347.037764 
L 117.69424 329.541586 
L 118.758654 385.700932 
L 120.887484 298.298298 
L 121.951898 326.603203 
L 123.016313 320.877377 
L 124.080727 321.285402 
L 125.145142 366.62192 
L 126.209556 361.371008 
L 127.273971 311.72244 
L 128.338385 306.201826 
L 129.4028 311.511474 
L 130.467214 303.891898 
L 131.531629 331.152616 
L 132.596044 345.312843 
L 133.660458 331.327288 
L 134.724873 321.004435 
L 135.789287 269.971377 
L 136.853702 322.996792 
L 137.918116 315.900253 
L 138.982531 393.831349 
L 140.046945 337.589709 
L 141.11136 339.732607 
L 142.175774 297.647133 
L 143.240189 344.198603 
L 144.304603 321.735815 
L 145.369018 279.593401 
L 146.433433 348.034251 
L 147.497847 292.343888 
L 148.562262 281.025917 
L 149.626676 317.813522 
L 150.691091 298.252211 
L 151.755505 333.264671 
L 152.81992 338.792148 
L 153.884334 290.217135 
L 154.948749 292.977752 
L 156.013163 337.833036 
L 157.077578 341.407244 
L 158.141993 326.922293 
L 159.206407 306.879155 
L 160.270822 349.590788 
L 161.335236 293.85605 
L 162.399651 275.971084 
L 163.464065 292.034748 
L 164.52848 287.082153 
L 165.592894 336.491999 
L 166.657309 264.992746 
L 167.721723 323.893068 
L 168.786138 294.017535 
L 169.850553 338.681144 
L 170.914967 300.614265 
L 171.979382 312.884319 
L 173.043796 296.961783 
L 174.108211 321.054631 
L 175.172625 297.491042 
L 176.23704 304.996578 
L 177.301454 291.153249 
L 178.365869 286.988087 
L 179.430283 348.342484 
L 180.494698 310.320131 
L 181.559113 279.562402 
L 182.623527 328.448523 
L 183.687942 288.06058 
L 184.752356 312.388523 
L 185.816771 342.539971 
L 186.881185 329.930565 
L 187.9456 280.454598 
L 189.010014 317.908043 
L 190.074429 231.61765 
L 191.138843 356.782087 
L 192.203258 319.075082 
L 193.267672 288.535498 
L 194.332087 261.718196 
L 195.396502 328.931992 
L 196.460916 337.610586 
L 197.525331 364.175274 
L 198.589745 314.291074 
L 199.65416 279.367603 
L 200.718574 312.179035 
L 201.782989 319.161117 
L 202.847403 304.480298 
L 203.911818 291.699282 
L 204.976232 274.588536 
L 206.040647 298.139252 
L 207.105062 306.342099 
L 208.169476 312.313122 
L 209.233891 287.541237 
L 210.298305 288.126115 
L 212.427134 306.41021 
L 213.491549 308.484191 
L 214.555963 287.218028 
L 215.620378 287.19615 
L 216.684792 296.324804 
L 217.749207 261.560893 
L 218.813622 288.418665 
L 219.878036 228.466157 
L 220.942451 312.611352 
L 222.006865 264.168077 
L 223.07128 304.832517 
L 224.135694 272.660352 
L 225.200109 295.1467 
L 226.264523 248.983808 
L 227.328938 307.875281 
L 228.393352 303.479576 
L 229.457767 224.909682 
L 230.522182 283.498881 
L 231.586596 284.507088 
L 232.651011 247.930168 
L 233.715425 264.792369 
L 234.77984 304.53277 
L 235.844254 293.79122 
L 236.908669 244.547992 
L 237.973083 296.884304 
L 239.037498 256.925503 
L 240.101912 263.972169 
L 241.166327 240.465405 
L 242.230741 315.371957 
L 243.295156 288.936997 
L 244.359571 252.682866 
L 245.423985 309.761991 
L 246.4884 295.049249 
L 247.552814 240.371722 
L 248.617229 300.588846 
L 249.681643 309.416052 
L 250.746058 243.607302 
L 251.810472 266.757871 
L 252.874887 282.666672 
L 253.939301 284.059799 
L 255.003716 225.66597 
L 256.068131 261.799041 
L 257.132545 257.364338 
L 259.261374 294.85262 
L 260.325789 250.547665 
L 261.390203 335.500801 
L 262.454618 278.496538 
L 263.519032 201.666813 
L 264.583447 276.282538 
L 265.647861 262.536263 
L 266.712276 244.66845 
L 267.776691 211.557554 
L 268.841105 269.285641 
L 269.90552 276.412047 
L 270.969934 246.858997 
L 272.034349 261.326556 
L 273.098763 261.429028 
L 274.163178 230.016917 
L 275.227592 247.856224 
L 276.292007 237.035555 
L 277.356421 213.772686 
L 278.420836 261.401332 
L 279.485251 231.853249 
L 280.549665 292.115351 
L 281.61408 261.11846 
L 282.678494 243.651686 
L 283.742909 256.275981 
L 284.807323 235.437244 
L 285.871738 264.196965 
L 286.936152 274.957086 
L 288.000567 227.37896 
L 289.064981 266.858359 
L 290.129396 315.355976 
L 291.19381 260.061778 
L 292.258225 224.909512 
L 293.32264 234.229116 
L 294.387054 227.048219 
L 295.451469 271.947327 
L 296.515883 250.055056 
L 297.580298 222.867931 
L 299.709127 298.724827 
L 300.773541 262.147767 
L 301.837956 238.046421 
L 302.90237 251.083124 
L 303.966785 296.551577 
L 305.0312 205.803321 
L 306.095614 272.200655 
L 307.160029 219.507225 
L 308.224443 217.995939 
L 309.288858 283.463531 
L 310.353272 230.553879 
L 311.417687 249.907167 
L 312.482101 230.965959 
L 313.546516 285.561898 
L 314.61093 314.507655 
L 315.675345 224.207758 
L 316.73976 255.046358 
L 317.804174 243.082511 
L 318.868589 259.385207 
L 319.933003 241.27521 
L 320.997418 213.596667 
L 322.061832 271.570234 
L 323.126247 232.975962 
L 324.190661 212.742975 
L 325.255076 222.130935 
L 326.31949 250.727585 
L 327.383905 213.66771 
L 328.448319 273.309092 
L 329.512734 244.681447 
L 330.577149 257.878217 
L 331.641563 261.408457 
L 332.705978 268.645651 
L 334.834807 213.843463 
L 335.899221 226.030367 
L 336.963636 241.712428 
L 338.02805 271.147841 
L 339.092465 256.483154 
L 340.156879 208.541845 
L 341.221294 180.375188 
L 342.285709 264.790366 
L 343.350123 173.0835 
L 344.414538 272.870785 
L 345.478952 220.612789 
L 346.543367 176.559959 
L 347.607781 227.08303 
L 348.672196 233.071298 
L 349.73661 254.728856 
L 350.801025 222.528886 
L 351.865439 213.298669 
L 352.929854 194.284309 
L 353.994269 233.429112 
L 355.058683 251.739524 
L 356.123098 250.809731 
L 357.187512 217.178664 
L 358.251927 228.942584 
L 359.316341 202.890581 
L 360.380756 230.007678 
L 361.44517 218.672733 
L 362.509585 231.887933 
L 363.573999 177.733149 
L 364.638414 164.579862 
L 365.702829 164.26184 
L 366.767243 228.468871 
L 367.831658 206.505308 
L 368.896072 214.149984 
L 369.960487 235.529091 
L 371.024901 226.765594 
L 372.089316 247.242761 
L 373.15373 217.938165 
L 374.218145 244.903831 
L 375.282559 201.93275 
L 376.346974 229.40003 
L 377.411388 191.565883 
L 378.475803 140.867519 
L 379.540218 193.90206 
L 380.604632 261.916072 
L 381.669047 160.193512 
L 382.733461 199.728378 
L 383.797876 188.33494 
L 384.86229 224.567032 
L 385.926705 217.996366 
L 386.991119 190.979394 
L 388.055534 199.985078 
L 389.119948 174.990658 
L 390.184363 163.069585 
L 391.248778 223.535656 
L 392.313192 177.903822 
L 393.377607 195.768031 
L 394.442021 198.06673 
L 395.506436 259.935301 
L 396.57085 129.313333 
L 397.635265 152.535713 
L 398.699679 191.036999 
L 399.764094 199.383063 
L 400.828508 192.554131 
L 401.892923 221.052109 
L 402.957338 152.651701 
L 404.021752 161.157476 
L 405.086167 216.226562 
L 406.150581 229.864989 
L 407.214996 218.638091 
L 408.27941 214.152594 
L 409.343825 157.678553 
L 410.408239 174.937526 
L 411.472654 199.540904 
L 412.537068 173.906132 
L 413.601483 185.275206 
L 414.665898 208.703453 
L 415.730312 167.908145 
L 416.794727 140.504712 
L 417.859141 174.789182 
L 418.923556 202.712033 
L 419.98797 158.380597 
L 422.116799 206.472181 
L 423.181214 172.265672 
L 424.245628 190.068937 
L 425.310043 188.100847 
L 426.374457 187.326787 
L 427.438872 151.126485 
L 428.503287 192.306497 
L 429.567701 180.957071 
L 430.632116 192.64121 
L 431.69653 171.407503 
L 432.760945 203.828598 
L 433.825359 211.391101 
L 434.889774 167.223993 
L 435.954188 168.257359 
L 437.018603 163.066888 
L 438.083017 170.234277 
L 439.147432 178.852975 
L 440.211847 152.490391 
L 441.276261 199.478265 
L 442.340676 210.573354 
L 443.40509 168.104494 
L 444.469505 192.971812 
L 445.533919 143.324266 
L 446.598334 170.743047 
L 447.662748 188.319855 
L 448.727163 152.853059 
L 449.791577 216.472162 
L 450.855992 179.787303 
L 451.920407 181.083976 
L 452.984821 123.005378 
L 454.049236 135.798414 
L 455.11365 174.261315 
L 456.178065 180.923296 
L 457.242479 134.261906 
L 458.306894 117.340512 
L 459.371308 181.714817 
L 460.435723 155.818633 
L 461.500137 135.322271 
L 462.564552 126.054094 
L 463.628967 215.090936 
L 464.693381 129.342476 
L 465.757796 176.105234 
L 466.82221 206.064439 
L 468.951039 183.781149 
L 470.015454 162.306073 
L 471.079868 118.365012 
L 472.144283 167.809866 
L 473.208697 172.763553 
L 474.273112 161.564002 
L 475.337526 133.411588 
L 476.401941 180.640185 
L 477.466356 179.496407 
L 478.53077 134.495547 
L 479.595185 164.683137 
L 480.659599 210.485095 
L 481.724014 159.091387 
L 482.788428 125.179165 
L 483.852843 149.025442 
L 484.917257 189.725952 
L 485.981672 126.734644 
L 487.046086 96.356437 
L 488.110501 140.508623 
L 489.174916 175.013135 
L 490.23933 150.60929 
L 491.303745 144.903076 
L 492.368159 184.945045 
L 493.432574 158.474721 
L 494.496988 198.687814 
L 495.561403 128.739785 
L 496.625817 156.716507 
L 497.690232 157.413955 
L 498.754646 150.653854 
L 499.819061 96.134613 
L 500.883476 109.932466 
L 501.94789 102.416296 
L 503.012305 153.269298 
L 504.076719 146.868076 
L 505.141134 143.463522 
L 506.205548 116.972103 
L 507.269963 124.314556 
L 508.334377 87.813931 
L 509.398792 131.201504 
L 510.463206 192.609144 
L 511.527621 111.389571 
L 512.592035 124.561786 
L 513.65645 142.610019 
L 514.720865 158.471284 
L 515.785279 95.497896 
L 516.849694 140.673138 
L 517.914108 140.811496 
L 518.978523 140.058543 
L 520.042937 153.432034 
L 521.107352 138.811255 
L 522.171766 110.998409 
L 523.236181 99.216333 
L 524.300595 92.888858 
L 525.36501 127.168592 
L 526.429425 102.618721 
L 527.493839 168.51437 
L 528.558254 131.242654 
L 529.622668 132.82736 
L 530.687083 130.745225 
L 531.751497 158.827175 
L 532.815912 104.270423 
L 533.880326 134.521575 
L 534.944741 151.782698 
L 536.009155 203.915248 
L 537.07357 133.241828 
L 538.137985 106.85032 
L 539.202399 122.492809 
L 540.266814 140.183572 
L 541.331228 90.526769 
L 542.395643 82.854659 
L 543.460057 177.343227 
L 544.524472 135.019459 
L 545.588886 101.521302 
L 546.653301 141.81113 
L 547.717715 137.665895 
L 548.78213 122.481504 
L 549.846545 85.278803 
L 550.910959 166.27924 
L 551.975374 134.603101 
L 553.039788 136.98153 
L 554.104203 104.72644 
L 555.168617 132.845353 
L 556.233032 107.264916 
L 557.297446 128.188157 
L 558.361861 116.976757 
L 559.426275 123.164775 
L 560.49069 70.284262 
L 561.555104 152.033662 
L 562.619519 156.819686 
L 563.683934 163.568903 
L 564.748348 105.900246 
L 565.812763 104.473092 
L 566.877177 116.150043 
L 567.941592 85.865397 
L 569.006006 75.941865 
L 570.070421 120.33055 
L 571.134835 127.436103 
L 572.19925 128.082852 
L 573.263664 134.374661 
L 574.328079 95.630977 
L 575.392494 91.286201 
L 576.456908 84.180431 
L 577.521323 58.707955 
L 578.585737 97.571498 
L 579.650152 99.391506 
L 580.714566 100.699649 
L 581.778981 91.559614 
L 582.843395 99.661148 
L 583.90781 78.996357 
L 584.972224 78.637255 
L 586.036639 118.892189 
L 587.101054 115.423188 
L 588.165468 109.00797 
L 589.229883 104.577983 
L 590.294297 119.904416 
L 591.358712 71.84486 
L 592.423126 65.971421 
L 593.487541 99.196896 
L 594.551955 81.536828 
L 595.61637 117.354893 
L 596.680784 118.87293 
L 597.745199 103.116664 
L 598.809614 102.513013 
L 599.874028 48.292388 
L 602.002857 120.653073 
L 602.002857 120.653073 
" clip-path="url(#p2e7110d9ac)" style="fill: none; stroke: #008000; stroke-width: 0.5; stroke-linecap: round"/>
   </g>
   <g id="patch_3">
    <path d="M 70.86 365.1 
L 70.86 20.118379 
" style="fill: none; stroke: #cccccc; stroke-width: 1.875; stroke-linejoin: miter; stroke-linecap: square"/>
   </g>
   <g id="patch_4">
    <path d="M 70.86 365.1 
L 628.56 365.1 
" style="fill: none; stroke: #cccccc; stroke-width: 1.875; stroke-linejoin: miter; stroke-linecap: square"/>
   </g>
   <g id="legend_1">
    <g id="patch_5">
     <path d="M 82.41 126.677442 
L 255.342891 126.677442 
Q 258.642891 126.677442 258.642891 123.377442 
L 258.642891 31.668379 
Q 258.642891 28.368379 255.342891 28.368379 
L 82.41 28.368379 
Q 79.11 28.368379 79.11 31.668379 
L 79.11 123.377442 
Q 79.11 126.677442 82.41 126.677442 
z
" style="fill: #ffffff; opacity: 0.8; stroke: #cccccc; stroke-width: 1.5; stroke-linejoin: miter"/>
    </g>
    <g id="line2d_15">
     <path d="M 85.71 41.00377 
L 102.21 41.00377 
L 118.71 41.00377 
" style="fill: none; stroke: #4c72b0; stroke-width: 2.25; stroke-linecap: round"/>
    </g>
    <g id="text_15">
     <!-- Mdia -->
     <g style="fill: #262626" transform="translate(131.91 46.77877) scale(0.165 -0.165)">
      <defs>
       <path id="ArialMT-4d" d="M 475 0 
L 475 4581 
L 1388 4581 
L 2472 1338 
Q 2622 884 2691 659 
Q 2769 909 2934 1394 
L 4031 4581 
L 4847 4581 
L 4847 0 
L 4263 0 
L 4263 3834 
L 2931 0 
L 2384 0 
L 1059 3900 
L 1059 0 
L 475 0 
z
" transform="scale(0.015625)"/>
       <path id="ArialMT-e9" d="M 2694 1069 
L 3275 997 
Q 3138 488 2766 206 
Q 2394 -75 1816 -75 
Q 1088 -75 661 373 
Q 234 822 234 1631 
Q 234 2469 665 2931 
Q 1097 3394 1784 3394 
Q 2450 3394 2872 2941 
Q 3294 2488 3294 1666 
Q 3294 1616 3291 1516 
L 816 1516 
Q 847 969 1125 678 
Q 1403 388 1819 388 
Q 2128 388 2347 550 
Q 2566 713 2694 1069 
z
M 847 1978 
L 2700 1978 
Q 2663 2397 2488 2606 
Q 2219 2931 1791 2931 
Q 1403 2931 1139 2672 
Q 875 2413 847 1978 
z
M 1454 3731 
L 1869 4606 
L 2607 4606 
L 1919 3731 
L 1454 3731 
z
" transform="scale(0.015625)"/>
       <path id="ArialMT-64" d="M 2575 0 
L 2575 419 
Q 2259 -75 1647 -75 
Q 1250 -75 917 144 
Q 584 363 401 755 
Q 219 1147 219 1656 
Q 219 2153 384 2558 
Q 550 2963 881 3178 
Q 1213 3394 1622 3394 
Q 1922 3394 2156 3267 
Q 2391 3141 2538 2938 
L 2538 4581 
L 3097 4581 
L 3097 0 
L 2575 0 
z
M 797 1656 
Q 797 1019 1065 703 
Q 1334 388 1700 388 
Q 2069 388 2326 689 
Q 2584 991 2584 1609 
Q 2584 2291 2321 2609 
Q 2059 2928 1675 2928 
Q 1300 2928 1048 2622 
Q 797 2316 797 1656 
z
" transform="scale(0.015625)"/>
       <path id="ArialMT-69" d="M 425 3934 
L 425 4581 
L 988 4581 
L 988 3934 
L 425 3934 
z
M 425 0 
L 425 3319 
L 988 3319 
L 988 0 
L 425 0 
z
" transform="scale(0.015625)"/>
      </defs>
      <use xlink:href="#ArialMT-4d"/>
      <use xlink:href="#ArialMT-e9" x="83.300781"/>
      <use xlink:href="#ArialMT-64" x="138.916016"/>
      <use xlink:href="#ArialMT-69" x="194.53125"/>
      <use xlink:href="#ArialMT-61" x="216.748047"/>
     </g>
    </g>
    <g id="patch_6">
     <path d="M 85.71 70.118536 
L 118.71 70.118536 
L 118.71 58.568536 
L 85.71 58.568536 
z
" style="fill: #ffa500; fill-opacity: 0.3; stroke: #ffa500; stroke-opacity: 0.3; stroke-width: 1.5; stroke-linejoin: miter"/>
    </g>
    <g id="text_16">
     <!-- 1 desvio -->
     <g style="fill: #262626" transform="translate(131.91 70.118536) scale(0.165 -0.165)">
      <defs>
       <path id="ArialMT-20" transform="scale(0.015625)"/>
       <path id="ArialMT-73" d="M 197 991 
L 753 1078 
Q 800 744 1014 566 
Q 1228 388 1613 388 
Q 2000 388 2187 545 
Q 2375 703 2375 916 
Q 2375 1106 2209 1216 
Q 2094 1291 1634 1406 
Q 1016 1563 777 1677 
Q 538 1791 414 1992 
Q 291 2194 291 2438 
Q 291 2659 392 2848 
Q 494 3038 669 3163 
Q 800 3259 1026 3326 
Q 1253 3394 1513 3394 
Q 1903 3394 2198 3281 
Q 2494 3169 2634 2976 
Q 2775 2784 2828 2463 
L 2278 2388 
Q 2241 2644 2061 2787 
Q 1881 2931 1553 2931 
Q 1166 2931 1000 2803 
Q 834 2675 834 2503 
Q 834 2394 903 2306 
Q 972 2216 1119 2156 
Q 1203 2125 1616 2013 
Q 2213 1853 2448 1751 
Q 2684 1650 2818 1456 
Q 2953 1263 2953 975 
Q 2953 694 2789 445 
Q 2625 197 2315 61 
Q 2006 -75 1616 -75 
Q 969 -75 630 194 
Q 291 463 197 991 
z
" transform="scale(0.015625)"/>
       <path id="ArialMT-76" d="M 1344 0 
L 81 3319 
L 675 3319 
L 1388 1331 
Q 1503 1009 1600 663 
Q 1675 925 1809 1294 
L 2547 3319 
L 3125 3319 
L 1869 0 
L 1344 0 
z
" transform="scale(0.015625)"/>
      </defs>
      <use xlink:href="#ArialMT-31"/>
      <use xlink:href="#ArialMT-20" x="55.615234"/>
      <use xlink:href="#ArialMT-64" x="83.398438"/>
      <use xlink:href="#ArialMT-65" x="139.013672"/>
      <use xlink:href="#ArialMT-73" x="194.628906"/>
      <use xlink:href="#ArialMT-76" x="244.628906"/>
      <use xlink:href="#ArialMT-69" x="294.628906"/>
      <use xlink:href="#ArialMT-6f" x="316.845703"/>
     </g>
    </g>
    <g id="patch_7">
     <path d="M 85.71 93.458301 
L 118.71 93.458301 
L 118.71 81.908301 
L 85.71 81.908301 
z
" style="fill: #ffa500; fill-opacity: 0.1; stroke: #ffa500; stroke-opacity: 0.1; stroke-width: 1.5; stroke-linejoin: miter"/>
    </g>
    <g id="text_17">
     <!-- 2 desvios -->
     <g style="fill: #262626" transform="translate(131.91 93.458301) scale(0.165 -0.165)">
      <use xlink:href="#ArialMT-32"/>
      <use xlink:href="#ArialMT-20" x="55.615234"/>
      <use xlink:href="#ArialMT-64" x="83.398438"/>
      <use xlink:href="#ArialMT-65" x="139.013672"/>
      <use xlink:href="#ArialMT-73" x="194.628906"/>
      <use xlink:href="#ArialMT-76" x="244.628906"/>
      <use xlink:href="#ArialMT-69" x="294.628906"/>
      <use xlink:href="#ArialMT-6f" x="316.845703"/>
      <use xlink:href="#ArialMT-73" x="372.460938"/>
     </g>
    </g>
    <g id="line2d_16">
     <path d="M 85.71 111.023067 
L 102.21 111.023067 
L 118.71 111.023067 
" style="fill: none; stroke: #008000; stroke-width: 0.5; stroke-linecap: round"/>
    </g>
    <g id="text_18">
     <!-- Uma caminhada -->
     <g style="fill: #262626" transform="translate(131.91 116.798067) scale(0.165 -0.165)">
      <defs>
       <path id="ArialMT-55" d="M 3500 4581 
L 4106 4581 
L 4106 1934 
Q 4106 1244 3950 837 
Q 3794 431 3386 176 
Q 2978 -78 2316 -78 
Q 1672 -78 1262 144 
Q 853 366 678 786 
Q 503 1206 503 1934 
L 503 4581 
L 1109 4581 
L 1109 1938 
Q 1109 1341 1220 1058 
Q 1331 775 1601 622 
Q 1872 469 2263 469 
Q 2931 469 3215 772 
Q 3500 1075 3500 1938 
L 3500 4581 
z
" transform="scale(0.015625)"/>
       <path id="ArialMT-63" d="M 2588 1216 
L 3141 1144 
Q 3050 572 2676 248 
Q 2303 -75 1759 -75 
Q 1078 -75 664 370 
Q 250 816 250 1647 
Q 250 2184 428 2587 
Q 606 2991 970 3192 
Q 1334 3394 1763 3394 
Q 2303 3394 2647 3120 
Q 2991 2847 3088 2344 
L 2541 2259 
Q 2463 2594 2264 2762 
Q 2066 2931 1784 2931 
Q 1359 2931 1093 2626 
Q 828 2322 828 1663 
Q 828 994 1084 691 
Q 1341 388 1753 388 
Q 2084 388 2306 591 
Q 2528 794 2588 1216 
z
" transform="scale(0.015625)"/>
       <path id="ArialMT-6e" d="M 422 0 
L 422 3319 
L 928 3319 
L 928 2847 
Q 1294 3394 1984 3394 
Q 2284 3394 2536 3286 
Q 2788 3178 2913 3003 
Q 3038 2828 3088 2588 
Q 3119 2431 3119 2041 
L 3119 0 
L 2556 0 
L 2556 2019 
Q 2556 2363 2490 2533 
Q 2425 2703 2258 2804 
Q 2091 2906 1866 2906 
Q 1506 2906 1245 2678 
Q 984 2450 984 1813 
L 984 0 
L 422 0 
z
" transform="scale(0.015625)"/>
       <path id="ArialMT-68" d="M 422 0 
L 422 4581 
L 984 4581 
L 984 2938 
Q 1378 3394 1978 3394 
Q 2347 3394 2619 3248 
Q 2891 3103 3008 2847 
Q 3125 2591 3125 2103 
L 3125 0 
L 2563 0 
L 2563 2103 
Q 2563 2525 2380 2717 
Q 2197 2909 1863 2909 
Q 1613 2909 1392 2779 
Q 1172 2650 1078 2428 
Q 984 2206 984 1816 
L 984 0 
L 422 0 
z
" transform="scale(0.015625)"/>
      </defs>
      <use xlink:href="#ArialMT-55"/>
      <use xlink:href="#ArialMT-6d" x="72.216797"/>
      <use xlink:href="#ArialMT-61" x="155.517578"/>
      <use xlink:href="#ArialMT-20" x="211.132812"/>
      <use xlink:href="#ArialMT-63" x="238.916016"/>
      <use xlink:href="#ArialMT-61" x="288.916016"/>
      <use xlink:href="#ArialMT-6d" x="344.53125"/>
      <use xlink:href="#ArialMT-69" x="427.832031"/>
      <use xlink:href="#ArialMT-6e" x="450.048828"/>
      <use xlink:href="#ArialMT-68" x="505.664062"/>
      <use xlink:href="#ArialMT-61" x="561.279297"/>
      <use xlink:href="#ArialMT-64" x="616.894531"/>
      <use xlink:href="#ArialMT-61" x="672.509766"/>
     </g>
    </g>
   </g>
  </g>
 </g>
 <defs>
  <clipPath id="p2e7110d9ac">
   <rect x="70.86" y="20.118379" width="557.7" height="344.981621"/>
  </clipPath>
 </defs>
</svg>
