<?xml version="1.0" encoding="utf-8" standalone="no"?>
<!DOCTYPE svg PUBLIC "-//W3C//DTD SVG 1.1//EN"
  "http://www.w3.org/Graphics/SVG/1.1/DTD/svg11.dtd">
<svg xmlns:xlink="http://www.w3.org/1999/xlink" width="648pt" height="432pt" viewBox="0 0 648 432" xmlns="http://www.w3.org/2000/svg" version="1.1">
 <metadata>
  <rdf:RDF xmlns:dc="http://purl.org/dc/elements/1.1/" xmlns:cc="http://creativecommons.org/ns#" xmlns:rdf="http://www.w3.org/1999/02/22-rdf-syntax-ns#">
   <cc:Work>
    <dc:type rdf:resource="http://purl.org/dc/dcmitype/StillImage"/>
    <dc:date>2024-10-08T13:22:35.278924</dc:date>
    <dc:format>image/svg+xml</dc:format>
    <dc:creator>
     <cc:Agent>
      <dc:title>Matplotlib v3.9.2, https://matplotlib.org/</dc:title>
     </cc:Agent>
    </dc:creator>
   </cc:Work>
  </rdf:RDF>
 </metadata>
 <defs>
  <style type="text/css">*{stroke-linejoin: round; stroke-linecap: butt}</style>
 </defs>
 <g id="figure_1">
  <g id="patch_1">
   <path d="M 0 432 
L 648 432 
L 648 0 
L 0 0 
z
" style="fill: #ffffff"/>
  </g>
  <g id="axes_1">
   <g id="patch_2">
    <path d="M 75.45 365.1 
L 628.56 365.1 
L 628.56 33.96 
L 75.45 33.96 
z
" style="fill: #ffffff"/>
   </g>
   <g id="matplotlib.axis_1">
    <g id="xtick_1">
     <g id="line2d_1">
      <path d="M 75.45 365.1 
L 75.45 33.96 
" clip-path="url(#paabe636bf0)" style="fill: none; stroke: #cccccc; stroke-width: 1.5; stroke-linecap: round"/>
     </g>
     <g id="text_1">
      <!-- 0 -->
      <g style="fill: #262626" transform="translate(70.862227 389.410391) scale(0.165 -0.165)">
       <defs>
        <path id="ArialMT-30" d="M 266 2259 
Q 266 3072 433 3567 
Q 600 4063 929 4331 
Q 1259 4600 1759 4600 
Q 2128 4600 2406 4451 
Q 2684 4303 2865 4023 
Q 3047 3744 3150 3342 
Q 3253 2941 3253 2259 
Q 3253 1453 3087 958 
Q 2922 463 2592 192 
Q 2263 -78 1759 -78 
Q 1097 -78 719 397 
Q 266 969 266 2259 
z
M 844 2259 
Q 844 1131 1108 757 
Q 1372 384 1759 384 
Q 2147 384 2411 759 
Q 2675 1134 2675 2259 
Q 2675 3391 2411 3762 
Q 2147 4134 1753 4134 
Q 1366 4134 1134 3806 
Q 844 3388 844 2259 
z
" transform="scale(0.015625)"/>
       </defs>
       <use xlink:href="#ArialMT-30"/>
      </g>
     </g>
    </g>
    <g id="xtick_2">
     <g id="line2d_2">
      <path d="M 180.804286 365.1 
L 180.804286 33.96 
" clip-path="url(#paabe636bf0)" style="fill: none; stroke: #cccccc; stroke-width: 1.5; stroke-linecap: round"/>
     </g>
     <g id="text_2">
      <!-- 20 -->
      <g style="fill: #262626" transform="translate(171.628739 389.410391) scale(0.165 -0.165)">
       <defs>
        <path id="ArialMT-32" d="M 3222 541 
L 3222 0 
L 194 0 
Q 188 203 259 391 
Q 375 700 629 1000 
Q 884 1300 1366 1694 
Q 2113 2306 2375 2664 
Q 2638 3022 2638 3341 
Q 2638 3675 2398 3904 
Q 2159 4134 1775 4134 
Q 1369 4134 1125 3890 
Q 881 3647 878 3216 
L 300 3275 
Q 359 3922 746 4261 
Q 1134 4600 1788 4600 
Q 2447 4600 2831 4234 
Q 3216 3869 3216 3328 
Q 3216 3053 3103 2787 
Q 2991 2522 2730 2228 
Q 2469 1934 1863 1422 
Q 1356 997 1212 845 
Q 1069 694 975 541 
L 3222 541 
z
" transform="scale(0.015625)"/>
       </defs>
       <use xlink:href="#ArialMT-32"/>
       <use xlink:href="#ArialMT-30" x="55.615234"/>
      </g>
     </g>
    </g>
    <g id="xtick_3">
     <g id="line2d_3">
      <path d="M 286.158571 365.1 
L 286.158571 33.96 
" clip-path="url(#paabe636bf0)" style="fill: none; stroke: #cccccc; stroke-width: 1.5; stroke-linecap: round"/>
     </g>
     <g id="text_3">
      <!-- 40 -->
      <g style="fill: #262626" transform="translate(276.983025 389.410391) scale(0.165 -0.165)">
       <defs>
        <path id="ArialMT-34" d="M 2069 0 
L 2069 1097 
L 81 1097 
L 81 1613 
L 2172 4581 
L 2631 4581 
L 2631 1613 
L 3250 1613 
L 3250 1097 
L 2631 1097 
L 2631 0 
L 2069 0 
z
M 2069 1613 
L 2069 3678 
L 634 1613 
L 2069 1613 
z
" transform="scale(0.015625)"/>
       </defs>
       <use xlink:href="#ArialMT-34"/>
       <use xlink:href="#ArialMT-30" x="55.615234"/>
      </g>
     </g>
    </g>
    <g id="xtick_4">
     <g id="line2d_4">
      <path d="M 391.512857 365.1 
L 391.512857 33.96 
" clip-path="url(#paabe636bf0)" style="fill: none; stroke: #cccccc; stroke-width: 1.5; stroke-linecap: round"/>
     </g>
     <g id="text_4">
      <!-- 60 -->
      <g style="fill: #262626" transform="translate(382.33731 389.410391) scale(0.165 -0.165)">
       <defs>
        <path id="ArialMT-36" d="M 3184 3459 
L 2625 3416 
Q 2550 3747 2413 3897 
Q 2184 4138 1850 4138 
Q 1581 4138 1378 3988 
Q 1113 3794 959 3422 
Q 806 3050 800 2363 
Q 1003 2672 1297 2822 
Q 1591 2972 1913 2972 
Q 2475 2972 2870 2558 
Q 3266 2144 3266 1488 
Q 3266 1056 3080 686 
Q 2894 316 2569 119 
Q 2244 -78 1831 -78 
Q 1128 -78 684 439 
Q 241 956 241 2144 
Q 241 3472 731 4075 
Q 1159 4600 1884 4600 
Q 2425 4600 2770 4297 
Q 3116 3994 3184 3459 
z
M 888 1484 
Q 888 1194 1011 928 
Q 1134 663 1356 523 
Q 1578 384 1822 384 
Q 2178 384 2434 671 
Q 2691 959 2691 1453 
Q 2691 1928 2437 2201 
Q 2184 2475 1800 2475 
Q 1419 2475 1153 2201 
Q 888 1928 888 1484 
z
" transform="scale(0.015625)"/>
       </defs>
       <use xlink:href="#ArialMT-36"/>
       <use xlink:href="#ArialMT-30" x="55.615234"/>
      </g>
     </g>
    </g>
    <g id="xtick_5">
     <g id="line2d_5">
      <path d="M 496.867143 365.1 
L 496.867143 33.96 
" clip-path="url(#paabe636bf0)" style="fill: none; stroke: #cccccc; stroke-width: 1.5; stroke-linecap: round"/>
     </g>
     <g id="text_5">
      <!-- 80 -->
      <g style="fill: #262626" transform="translate(487.691596 389.410391) scale(0.165 -0.165)">
       <defs>
        <path id="ArialMT-38" d="M 1131 2484 
Q 781 2613 612 2850 
Q 444 3088 444 3419 
Q 444 3919 803 4259 
Q 1163 4600 1759 4600 
Q 2359 4600 2725 4251 
Q 3091 3903 3091 3403 
Q 3091 3084 2923 2848 
Q 2756 2613 2416 2484 
Q 2838 2347 3058 2040 
Q 3278 1734 3278 1309 
Q 3278 722 2862 322 
Q 2447 -78 1769 -78 
Q 1091 -78 675 323 
Q 259 725 259 1325 
Q 259 1772 486 2073 
Q 713 2375 1131 2484 
z
M 1019 3438 
Q 1019 3113 1228 2906 
Q 1438 2700 1772 2700 
Q 2097 2700 2305 2904 
Q 2513 3109 2513 3406 
Q 2513 3716 2298 3927 
Q 2084 4138 1766 4138 
Q 1444 4138 1231 3931 
Q 1019 3725 1019 3438 
z
M 838 1322 
Q 838 1081 952 856 
Q 1066 631 1291 507 
Q 1516 384 1775 384 
Q 2178 384 2440 643 
Q 2703 903 2703 1303 
Q 2703 1709 2433 1975 
Q 2163 2241 1756 2241 
Q 1359 2241 1098 1978 
Q 838 1716 838 1322 
z
" transform="scale(0.015625)"/>
       </defs>
       <use xlink:href="#ArialMT-38"/>
       <use xlink:href="#ArialMT-30" x="55.615234"/>
      </g>
     </g>
    </g>
    <g id="xtick_6">
     <g id="line2d_6">
      <path d="M 602.221429 365.1 
L 602.221429 33.96 
" clip-path="url(#paabe636bf0)" style="fill: none; stroke: #cccccc; stroke-width: 1.5; stroke-linecap: round"/>
     </g>
     <g id="text_6">
      <!-- 100 -->
      <g style="fill: #262626" transform="translate(588.458108 389.410391) scale(0.165 -0.165)">
       <defs>
        <path id="ArialMT-31" d="M 2384 0 
L 1822 0 
L 1822 3584 
Q 1619 3391 1289 3197 
Q 959 3003 697 2906 
L 697 3450 
Q 1169 3672 1522 3987 
Q 1875 4303 2022 4600 
L 2384 4600 
L 2384 0 
z
" transform="scale(0.015625)"/>
       </defs>
       <use xlink:href="#ArialMT-31"/>
       <use xlink:href="#ArialMT-30" x="55.615234"/>
       <use xlink:href="#ArialMT-30" x="111.230469"/>
      </g>
     </g>
    </g>
    <g id="text_7">
     <!-- Tempo -->
     <g style="fill: #262626" transform="translate(324.997969 409.573828) scale(0.18 -0.18)">
      <defs>
       <path id="ArialMT-54" d="M 1659 0 
L 1659 4041 
L 150 4041 
L 150 4581 
L 3781 4581 
L 3781 4041 
L 2266 4041 
L 2266 0 
L 1659 0 
z
" transform="scale(0.015625)"/>
       <path id="ArialMT-65" d="M 2694 1069 
L 3275 997 
Q 3138 488 2766 206 
Q 2394 -75 1816 -75 
Q 1088 -75 661 373 
Q 234 822 234 1631 
Q 234 2469 665 2931 
Q 1097 3394 1784 3394 
Q 2450 3394 2872 2941 
Q 3294 2488 3294 1666 
Q 3294 1616 3291 1516 
L 816 1516 
Q 847 969 1125 678 
Q 1403 388 1819 388 
Q 2128 388 2347 550 
Q 2566 713 2694 1069 
z
M 847 1978 
L 2700 1978 
Q 2663 2397 2488 2606 
Q 2219 2931 1791 2931 
Q 1403 2931 1139 2672 
Q 875 2413 847 1978 
z
" transform="scale(0.015625)"/>
       <path id="ArialMT-6d" d="M 422 0 
L 422 3319 
L 925 3319 
L 925 2853 
Q 1081 3097 1340 3245 
Q 1600 3394 1931 3394 
Q 2300 3394 2536 3241 
Q 2772 3088 2869 2813 
Q 3263 3394 3894 3394 
Q 4388 3394 4653 3120 
Q 4919 2847 4919 2278 
L 4919 0 
L 4359 0 
L 4359 2091 
Q 4359 2428 4304 2576 
Q 4250 2725 4106 2815 
Q 3963 2906 3769 2906 
Q 3419 2906 3187 2673 
Q 2956 2441 2956 1928 
L 2956 0 
L 2394 0 
L 2394 2156 
Q 2394 2531 2256 2718 
Q 2119 2906 1806 2906 
Q 1569 2906 1367 2781 
Q 1166 2656 1075 2415 
Q 984 2175 984 1722 
L 984 0 
L 422 0 
z
" transform="scale(0.015625)"/>
       <path id="ArialMT-70" d="M 422 -1272 
L 422 3319 
L 934 3319 
L 934 2888 
Q 1116 3141 1344 3267 
Q 1572 3394 1897 3394 
Q 2322 3394 2647 3175 
Q 2972 2956 3137 2557 
Q 3303 2159 3303 1684 
Q 3303 1175 3120 767 
Q 2938 359 2589 142 
Q 2241 -75 1856 -75 
Q 1575 -75 1351 44 
Q 1128 163 984 344 
L 984 -1272 
L 422 -1272 
z
M 931 1641 
Q 931 1000 1190 694 
Q 1450 388 1819 388 
Q 2194 388 2461 705 
Q 2728 1022 2728 1688 
Q 2728 2322 2467 2637 
Q 2206 2953 1844 2953 
Q 1484 2953 1207 2617 
Q 931 2281 931 1641 
z
" transform="scale(0.015625)"/>
       <path id="ArialMT-6f" d="M 213 1659 
Q 213 2581 725 3025 
Q 1153 3394 1769 3394 
Q 2453 3394 2887 2945 
Q 3322 2497 3322 1706 
Q 3322 1066 3130 698 
Q 2938 331 2570 128 
Q 2203 -75 1769 -75 
Q 1072 -75 642 372 
Q 213 819 213 1659 
z
M 791 1659 
Q 791 1022 1069 705 
Q 1347 388 1769 388 
Q 2188 388 2466 706 
Q 2744 1025 2744 1678 
Q 2744 2294 2464 2611 
Q 2184 2928 1769 2928 
Q 1347 2928 1069 2612 
Q 791 2297 791 1659 
z
" transform="scale(0.015625)"/>
      </defs>
      <use xlink:href="#ArialMT-54"/>
      <use xlink:href="#ArialMT-65" x="49.958984"/>
      <use xlink:href="#ArialMT-6d" x="105.574219"/>
      <use xlink:href="#ArialMT-70" x="188.875"/>
      <use xlink:href="#ArialMT-6f" x="244.490234"/>
     </g>
    </g>
   </g>
   <g id="matplotlib.axis_2">
    <g id="ytick_1">
     <g id="line2d_7">
      <path d="M 75.45 365.1 
L 628.56 365.1 
" clip-path="url(#paabe636bf0)" style="fill: none; stroke: #cccccc; stroke-width: 1.5; stroke-linecap: round"/>
     </g>
     <g id="text_8">
      <!-- 0.0 -->
      <g style="fill: #262626" transform="translate(40.015 371.005195) scale(0.165 -0.165)">
       <defs>
        <path id="ArialMT-2e" d="M 581 0 
L 581 641 
L 1222 641 
L 1222 0 
L 581 0 
z
" transform="scale(0.015625)"/>
       </defs>
       <use xlink:href="#ArialMT-30"/>
       <use xlink:href="#ArialMT-2e" x="55.615234"/>
       <use xlink:href="#ArialMT-30" x="83.398438"/>
      </g>
     </g>
    </g>
    <g id="ytick_2">
     <g id="line2d_8">
      <path d="M 75.45 325.03329 
L 628.56 325.03329 
" clip-path="url(#paabe636bf0)" style="fill: none; stroke: #cccccc; stroke-width: 1.5; stroke-linecap: round"/>
     </g>
     <g id="text_9">
      <!-- 0.2 -->
      <g style="fill: #262626" transform="translate(40.015 330.938486) scale(0.165 -0.165)">
       <use xlink:href="#ArialMT-30"/>
       <use xlink:href="#ArialMT-2e" x="55.615234"/>
       <use xlink:href="#ArialMT-32" x="83.398438"/>
      </g>
     </g>
    </g>
    <g id="ytick_3">
     <g id="line2d_9">
      <path d="M 75.45 284.966581 
L 628.56 284.966581 
" clip-path="url(#paabe636bf0)" style="fill: none; stroke: #cccccc; stroke-width: 1.5; stroke-linecap: round"/>
     </g>
     <g id="text_10">
      <!-- 0.4 -->
      <g style="fill: #262626" transform="translate(40.015 290.871776) scale(0.165 -0.165)">
       <use xlink:href="#ArialMT-30"/>
       <use xlink:href="#ArialMT-2e" x="55.615234"/>
       <use xlink:href="#ArialMT-34" x="83.398438"/>
      </g>
     </g>
    </g>
    <g id="ytick_4">
     <g id="line2d_10">
      <path d="M 75.45 244.899871 
L 628.56 244.899871 
" clip-path="url(#paabe636bf0)" style="fill: none; stroke: #cccccc; stroke-width: 1.5; stroke-linecap: round"/>
     </g>
     <g id="text_11">
      <!-- 0.6 -->
      <g style="fill: #262626" transform="translate(40.015 250.805066) scale(0.165 -0.165)">
       <use xlink:href="#ArialMT-30"/>
       <use xlink:href="#ArialMT-2e" x="55.615234"/>
       <use xlink:href="#ArialMT-36" x="83.398438"/>
      </g>
     </g>
    </g>
    <g id="ytick_5">
     <g id="line2d_11">
      <path d="M 75.45 204.833161 
L 628.56 204.833161 
" clip-path="url(#paabe636bf0)" style="fill: none; stroke: #cccccc; stroke-width: 1.5; stroke-linecap: round"/>
     </g>
     <g id="text_12">
      <!-- 0.8 -->
      <g style="fill: #262626" transform="translate(40.015 210.738356) scale(0.165 -0.165)">
       <use xlink:href="#ArialMT-30"/>
       <use xlink:href="#ArialMT-2e" x="55.615234"/>
       <use xlink:href="#ArialMT-38" x="83.398438"/>
      </g>
     </g>
    </g>
    <g id="ytick_6">
     <g id="line2d_12">
      <path d="M 75.45 164.766451 
L 628.56 164.766451 
" clip-path="url(#paabe636bf0)" style="fill: none; stroke: #cccccc; stroke-width: 1.5; stroke-linecap: round"/>
     </g>
     <g id="text_13">
      <!-- 1.0 -->
      <g style="fill: #262626" transform="translate(40.015 170.671647) scale(0.165 -0.165)">
       <use xlink:href="#ArialMT-31"/>
       <use xlink:href="#ArialMT-2e" x="55.615234"/>
       <use xlink:href="#ArialMT-30" x="83.398438"/>
      </g>
     </g>
    </g>
    <g id="ytick_7">
     <g id="line2d_13">
      <path d="M 75.45 124.699742 
L 628.56 124.699742 
" clip-path="url(#paabe636bf0)" style="fill: none; stroke: #cccccc; stroke-width: 1.5; stroke-linecap: round"/>
     </g>
     <g id="text_14">
      <!-- 1.2 -->
      <g style="fill: #262626" transform="translate(40.015 130.604937) scale(0.165 -0.165)">
       <use xlink:href="#ArialMT-31"/>
       <use xlink:href="#ArialMT-2e" x="55.615234"/>
       <use xlink:href="#ArialMT-32" x="83.398438"/>
      </g>
     </g>
    </g>
    <g id="ytick_8">
     <g id="line2d_14">
      <path d="M 75.45 84.633032 
L 628.56 84.633032 
" clip-path="url(#paabe636bf0)" style="fill: none; stroke: #cccccc; stroke-width: 1.5; stroke-linecap: round"/>
     </g>
     <g id="text_15">
      <!-- 1.4 -->
      <g style="fill: #262626" transform="translate(40.015 90.538227) scale(0.165 -0.165)">
       <use xlink:href="#ArialMT-31"/>
       <use xlink:href="#ArialMT-2e" x="55.615234"/>
       <use xlink:href="#ArialMT-34" x="83.398438"/>
      </g>
     </g>
    </g>
    <g id="ytick_9">
     <g id="line2d_15">
      <path d="M 75.45 44.566322 
L 628.56 44.566322 
" clip-path="url(#paabe636bf0)" style="fill: none; stroke: #cccccc; stroke-width: 1.5; stroke-linecap: round"/>
     </g>
     <g id="text_16">
      <!-- 1.6 -->
      <g style="fill: #262626" transform="translate(40.015 50.471517) scale(0.165 -0.165)">
       <use xlink:href="#ArialMT-31"/>
       <use xlink:href="#ArialMT-2e" x="55.615234"/>
       <use xlink:href="#ArialMT-36" x="83.398438"/>
      </g>
     </g>
    </g>
    <g id="text_17">
     <!-- Valor -->
     <g style="fill: #262626" transform="translate(32.4375 219.875625) rotate(-90) scale(0.18 -0.18)">
      <defs>
       <path id="ArialMT-56" d="M 1803 0 
L 28 4581 
L 684 4581 
L 1875 1253 
Q 2019 853 2116 503 
Q 2222 878 2363 1253 
L 3600 4581 
L 4219 4581 
L 2425 0 
L 1803 0 
z
" transform="scale(0.015625)"/>
       <path id="ArialMT-61" d="M 2588 409 
Q 2275 144 1986 34 
Q 1697 -75 1366 -75 
Q 819 -75 525 192 
Q 231 459 231 875 
Q 231 1119 342 1320 
Q 453 1522 633 1644 
Q 813 1766 1038 1828 
Q 1203 1872 1538 1913 
Q 2219 1994 2541 2106 
Q 2544 2222 2544 2253 
Q 2544 2597 2384 2738 
Q 2169 2928 1744 2928 
Q 1347 2928 1158 2789 
Q 969 2650 878 2297 
L 328 2372 
Q 403 2725 575 2942 
Q 747 3159 1072 3276 
Q 1397 3394 1825 3394 
Q 2250 3394 2515 3294 
Q 2781 3194 2906 3042 
Q 3031 2891 3081 2659 
Q 3109 2516 3109 2141 
L 3109 1391 
Q 3109 606 3145 398 
Q 3181 191 3288 0 
L 2700 0 
Q 2613 175 2588 409 
z
M 2541 1666 
Q 2234 1541 1622 1453 
Q 1275 1403 1131 1340 
Q 988 1278 909 1158 
Q 831 1038 831 891 
Q 831 666 1001 516 
Q 1172 366 1500 366 
Q 1825 366 2078 508 
Q 2331 650 2450 897 
Q 2541 1088 2541 1459 
L 2541 1666 
z
" transform="scale(0.015625)"/>
       <path id="ArialMT-6c" d="M 409 0 
L 409 4581 
L 972 4581 
L 972 0 
L 409 0 
z
" transform="scale(0.015625)"/>
       <path id="ArialMT-72" d="M 416 0 
L 416 3319 
L 922 3319 
L 922 2816 
Q 1116 3169 1280 3281 
Q 1444 3394 1641 3394 
Q 1925 3394 2219 3213 
L 2025 2691 
Q 1819 2813 1613 2813 
Q 1428 2813 1281 2702 
Q 1134 2591 1072 2394 
Q 978 2094 978 1738 
L 978 0 
L 416 0 
z
" transform="scale(0.015625)"/>
      </defs>
      <use xlink:href="#ArialMT-56"/>
      <use xlink:href="#ArialMT-61" x="59.324219"/>
      <use xlink:href="#ArialMT-6c" x="114.939453"/>
      <use xlink:href="#ArialMT-6f" x="137.15625"/>
      <use xlink:href="#ArialMT-72" x="192.771484"/>
     </g>
    </g>
    <g id="text_18">
     <!-- 1e304 -->
     <g style="fill: #262626" transform="translate(75.45 30.96) scale(0.165 -0.165)">
      <defs>
       <path id="ArialMT-33" d="M 269 1209 
L 831 1284 
Q 928 806 1161 595 
Q 1394 384 1728 384 
Q 2125 384 2398 659 
Q 2672 934 2672 1341 
Q 2672 1728 2419 1979 
Q 2166 2231 1775 2231 
Q 1616 2231 1378 2169 
L 1441 2663 
Q 1497 2656 1531 2656 
Q 1891 2656 2178 2843 
Q 2466 3031 2466 3422 
Q 2466 3731 2256 3934 
Q 2047 4138 1716 4138 
Q 1388 4138 1169 3931 
Q 950 3725 888 3313 
L 325 3413 
Q 428 3978 793 4289 
Q 1159 4600 1703 4600 
Q 2078 4600 2393 4439 
Q 2709 4278 2876 4000 
Q 3044 3722 3044 3409 
Q 3044 3113 2884 2869 
Q 2725 2625 2413 2481 
Q 2819 2388 3044 2092 
Q 3269 1797 3269 1353 
Q 3269 753 2831 336 
Q 2394 -81 1725 -81 
Q 1122 -81 723 278 
Q 325 638 269 1209 
z
" transform="scale(0.015625)"/>
      </defs>
      <use xlink:href="#ArialMT-31"/>
      <use xlink:href="#ArialMT-65" x="55.615234"/>
      <use xlink:href="#ArialMT-33" x="111.230469"/>
      <use xlink:href="#ArialMT-30" x="166.845703"/>
      <use xlink:href="#ArialMT-34" x="222.460938"/>
     </g>
    </g>
   </g>
   <g id="PolyCollection_1"/>
   <g id="PolyCollection_2">
    <defs>
     <path id="m89093eae52" d="M 75.45 -66.9 
L 75.45 -66.9 
L 76.505654 -66.9 
L 77.561308 -66.9 
L 78.616962 -66.9 
L 79.672617 -66.9 
L 80.728271 -66.9 
L 81.783925 -66.9 
L 82.839579 -66.9 
L 83.895233 -66.9 
L 84.950887 -66.9 
L 86.006542 -66.9 
L 87.062196 -66.9 
L 88.11785 -66.9 
L 89.173504 -66.9 
L 90.229158 -66.9 
L 91.284812 -66.9 
L 92.340467 -66.9 
L 93.396121 -66.9 
L 94.451775 -66.9 
L 95.507429 -66.9 
L 96.563083 -66.9 
L 97.618737 -66.9 
L 98.674392 -66.9 
L 99.730046 -66.9 
L 100.7857 -66.9 
L 101.841354 -66.9 
L 102.897008 -66.9 
L 103.952662 -66.9 
L 105.008317 -66.9 
L 106.063971 -66.9 
L 107.119625 -66.9 
L 108.175279 -66.9 
L 109.230933 -66.9 
L 110.286587 -66.9 
L 111.342242 -66.9 
L 112.397896 -66.9 
L 113.45355 -66.9 
L 114.509204 -66.9 
L 115.564858 -66.9 
L 116.620512 -66.9 
L 117.676167 -66.9 
L 118.731821 -66.9 
L 119.787475 -66.9 
L 120.843129 -66.9 
L 121.898783 -66.9 
L 122.954437 -66.9 
L 124.010092 -66.9 
L 125.065746 -66.9 
L 126.1214 -66.9 
L 127.177054 -66.9 
L 128.232708 -66.9 
L 129.288362 -66.9 
L 130.344017 -66.9 
L 131.399671 -66.9 
L 132.455325 -66.9 
L 133.510979 -66.9 
L 134.566633 -66.9 
L 135.622287 -66.9 
L 136.677942 -66.9 
L 137.733596 -66.9 
L 138.78925 -66.9 
L 139.844904 -66.9 
L 140.900558 -66.9 
L 141.956212 -66.9 
L 143.011867 -66.9 
L 144.067521 -66.9 
L 145.123175 -66.9 
L 146.178829 -66.9 
L 147.234483 -66.9 
L 148.290137 -66.9 
L 149.345792 -66.9 
L 150.401446 -66.9 
L 151.4571 -66.9 
L 152.512754 -66.9 
L 153.568408 -66.9 
L 154.624062 -66.9 
L 155.679717 -66.9 
L 156.735371 -66.9 
L 157.791025 -66.9 
L 158.846679 -66.9 
L 159.902333 -66.9 
L 160.957987 -66.9 
L 162.013642 -66.9 
L 163.069296 -66.9 
L 164.12495 -66.9 
L 165.180604 -66.9 
L 166.236258 -66.9 
L 167.291912 -66.9 
L 168.347567 -66.9 
L 169.403221 -66.9 
L 170.458875 -66.9 
L 171.514529 -66.9 
L 172.570183 -66.9 
L 173.625837 -66.9 
L 174.681492 -66.9 
L 175.737146 -66.9 
L 176.7928 -66.9 
L 177.848454 -66.9 
L 178.904108 -66.9 
L 179.959762 -66.9 
L 181.015417 -66.9 
L 182.071071 -66.9 
L 183.126725 -66.9 
L 184.182379 -66.9 
L 185.238033 -66.9 
L 186.293687 -66.9 
L 187.349342 -66.9 
L 188.404996 -66.9 
L 189.46065 -66.9 
L 190.516304 -66.9 
L 191.571958 -66.9 
L 192.627612 -66.9 
L 193.683267 -66.9 
L 194.738921 -66.9 
L 195.794575 -66.9 
L 196.850229 -66.9 
L 197.905883 -66.9 
L 198.961537 -66.9 
L 200.017192 -66.9 
L 201.072846 -66.9 
L 202.1285 -66.9 
L 203.184154 -66.9 
L 204.239808 -66.9 
L 205.295462 -66.9 
L 206.351117 -66.9 
L 207.406771 -66.9 
L 208.462425 -66.9 
L 209.518079 -66.9 
L 210.573733 -66.9 
L 211.629387 -66.9 
L 212.685042 -66.9 
L 213.740696 -66.9 
L 214.79635 -66.9 
L 215.852004 -66.9 
L 216.907658 -66.9 
L 217.963312 -66.9 
L 219.018967 -66.9 
L 220.074621 -66.9 
L 221.130275 -66.9 
L 222.185929 -66.9 
L 223.241583 -66.9 
L 224.297237 -66.9 
L 225.352891 -66.9 
L 226.408546 -66.9 
L 227.4642 -66.9 
L 228.519854 -66.9 
L 229.575508 -66.9 
L 230.631162 -66.9 
L 231.686816 -66.9 
L 232.742471 -66.9 
L 233.798125 -66.9 
L 234.853779 -66.9 
L 235.909433 -66.9 
L 236.965087 -66.9 
L 238.020741 -66.9 
L 239.076396 -66.9 
L 240.13205 -66.9 
L 241.187704 -66.9 
L 242.243358 -66.9 
L 243.299012 -66.9 
L 244.354666 -66.9 
L 245.410321 -66.9 
L 246.465975 -66.9 
L 247.521629 -66.9 
L 248.577283 -66.9 
L 249.632937 -66.9 
L 250.688591 -66.9 
L 251.744246 -66.9 
L 252.7999 -66.9 
L 253.855554 -66.9 
L 254.911208 -66.9 
L 255.966862 -66.9 
L 257.022516 -66.9 
L 258.078171 -66.9 
L 259.133825 -66.9 
L 260.189479 -66.9 
L 261.245133 -66.9 
L 262.300787 -66.9 
L 263.356441 -66.9 
L 264.412096 -66.9 
L 265.46775 -66.9 
L 266.523404 -66.9 
L 267.579058 -66.9 
L 268.634712 -66.9 
L 269.690366 -66.9 
L 270.746021 -66.9 
L 271.801675 -66.9 
L 272.857329 -66.9 
L 273.912983 -66.9 
L 274.968637 -66.9 
L 276.024291 -66.9 
L 277.079946 -66.9 
L 278.1356 -66.9 
L 279.191254 -66.9 
L 280.246908 -66.9 
L 281.302562 -66.9 
L 282.358216 -66.9 
L 283.413871 -66.9 
L 284.469525 -66.9 
L 285.525179 -66.9 
L 286.580833 -66.9 
L 287.636487 -66.9 
L 288.692141 -66.9 
L 289.747796 -66.9 
L 290.80345 -66.9 
L 291.859104 -66.9 
L 292.914758 -66.9 
L 293.970412 -66.9 
L 295.026066 -66.9 
L 296.081721 -66.9 
L 297.137375 -66.9 
L 298.193029 -66.9 
L 299.248683 -66.9 
L 300.304337 -66.9 
L 301.359991 -66.9 
L 302.415646 -66.9 
L 303.4713 -66.9 
L 304.526954 -66.9 
L 305.582608 -66.9 
L 306.638262 -66.9 
L 307.693916 -66.9 
L 308.749571 -66.9 
L 309.805225 -66.9 
L 310.860879 -66.9 
L 311.916533 -66.9 
L 312.972187 -66.9 
L 314.027841 -66.9 
L 315.083496 -66.9 
L 316.13915 -66.9 
L 317.194804 -66.9 
L 318.250458 -66.9 
L 319.306112 -66.9 
L 320.361766 -66.9 
L 321.417421 -66.9 
L 322.473075 -66.9 
L 323.528729 -66.9 
L 324.584383 -66.9 
L 325.640037 -66.9 
L 326.695691 -66.9 
L 327.751346 -66.9 
L 328.807 -66.9 
L 329.862654 -66.9 
L 330.918308 -66.9 
L 331.973962 -66.9 
L 333.029616 -66.9 
L 334.085271 -66.9 
L 335.140925 -66.9 
L 336.196579 -66.9 
L 337.252233 -66.9 
L 338.307887 -66.9 
L 339.363541 -66.9 
L 339.363541 -66.9 
L 339.363541 -66.9 
L 338.307887 -66.9 
L 337.252233 -66.9 
L 336.196579 -66.9 
L 335.140925 -66.9 
L 334.085271 -66.9 
L 333.029616 -66.9 
L 331.973962 -66.9 
L 330.918308 -66.9 
L 329.862654 -66.9 
L 328.807 -66.9 
L 327.751346 -66.9 
L 326.695691 -66.9 
L 325.640037 -66.9 
L 324.584383 -66.9 
L 323.528729 -66.9 
L 322.473075 -66.9 
L 321.417421 -66.9 
L 320.361766 -66.9 
L 319.306112 -66.9 
L 318.250458 -66.9 
L 317.194804 -66.9 
L 316.13915 -66.9 
L 315.083496 -66.9 
L 314.027841 -66.9 
L 312.972187 -66.9 
L 311.916533 -66.9 
L 310.860879 -66.9 
L 309.805225 -66.9 
L 308.749571 -66.9 
L 307.693916 -66.9 
L 306.638262 -66.9 
L 305.582608 -66.9 
L 304.526954 -66.9 
L 303.4713 -66.9 
L 302.415646 -66.9 
L 301.359991 -66.9 
L 300.304337 -66.9 
L 299.248683 -66.9 
L 298.193029 -66.9 
L 297.137375 -66.9 
L 296.081721 -66.9 
L 295.026066 -66.9 
L 293.970412 -66.9 
L 292.914758 -66.9 
L 291.859104 -66.9 
L 290.80345 -66.9 
L 289.747796 -66.9 
L 288.692141 -66.9 
L 287.636487 -66.9 
L 286.580833 -66.9 
L 285.525179 -66.9 
L 284.469525 -66.9 
L 283.413871 -66.9 
L 282.358216 -66.9 
L 281.302562 -66.9 
L 280.246908 -66.9 
L 279.191254 -66.9 
L 278.1356 -66.9 
L 277.079946 -66.9 
L 276.024291 -66.9 
L 274.968637 -66.9 
L 273.912983 -66.9 
L 272.857329 -66.9 
L 271.801675 -66.9 
L 270.746021 -66.9 
L 269.690366 -66.9 
L 268.634712 -66.9 
L 267.579058 -66.9 
L 266.523404 -66.9 
L 265.46775 -66.9 
L 264.412096 -66.9 
L 263.356441 -66.9 
L 262.300787 -66.9 
L 261.245133 -66.9 
L 260.189479 -66.9 
L 259.133825 -66.9 
L 258.078171 -66.9 
L 257.022516 -66.9 
L 255.966862 -66.9 
L 254.911208 -66.9 
L 253.855554 -66.9 
L 252.7999 -66.9 
L 251.744246 -66.9 
L 250.688591 -66.9 
L 249.632937 -66.9 
L 248.577283 -66.9 
L 247.521629 -66.9 
L 246.465975 -66.9 
L 245.410321 -66.9 
L 244.354666 -66.9 
L 243.299012 -66.9 
L 242.243358 -66.9 
L 241.187704 -66.9 
L 240.13205 -66.9 
L 239.076396 -66.9 
L 238.020741 -66.9 
L 236.965087 -66.9 
L 235.909433 -66.9 
L 234.853779 -66.9 
L 233.798125 -66.9 
L 232.742471 -66.9 
L 231.686816 -66.9 
L 230.631162 -66.9 
L 229.575508 -66.9 
L 228.519854 -66.9 
L 227.4642 -66.9 
L 226.408546 -66.9 
L 225.352891 -66.9 
L 224.297237 -66.9 
L 223.241583 -66.9 
L 222.185929 -66.9 
L 221.130275 -66.9 
L 220.074621 -66.9 
L 219.018967 -66.9 
L 217.963312 -66.9 
L 216.907658 -66.9 
L 215.852004 -66.9 
L 214.79635 -66.9 
L 213.740696 -66.9 
L 212.685042 -66.9 
L 211.629387 -66.9 
L 210.573733 -66.9 
L 209.518079 -66.9 
L 208.462425 -66.9 
L 207.406771 -66.9 
L 206.351117 -66.9 
L 205.295462 -66.9 
L 204.239808 -66.9 
L 203.184154 -66.9 
L 202.1285 -66.9 
L 201.072846 -66.9 
L 200.017192 -66.9 
L 198.961537 -66.9 
L 197.905883 -66.9 
L 196.850229 -66.9 
L 195.794575 -66.9 
L 194.738921 -66.9 
L 193.683267 -66.9 
L 192.627612 -66.9 
L 191.571958 -66.9 
L 190.516304 -66.9 
L 189.46065 -66.9 
L 188.404996 -66.9 
L 187.349342 -66.9 
L 186.293687 -66.9 
L 185.238033 -66.9 
L 184.182379 -66.9 
L 183.126725 -66.9 
L 182.071071 -66.9 
L 181.015417 -66.9 
L 179.959762 -66.9 
L 178.904108 -66.9 
L 177.848454 -66.9 
L 176.7928 -66.9 
L 175.737146 -66.9 
L 174.681492 -66.9 
L 173.625837 -66.9 
L 172.570183 -66.9 
L 171.514529 -66.9 
L 170.458875 -66.9 
L 169.403221 -66.9 
L 168.347567 -66.9 
L 167.291912 -66.9 
L 166.236258 -66.9 
L 165.180604 -66.9 
L 164.12495 -66.9 
L 163.069296 -66.9 
L 162.013642 -66.9 
L 160.957987 -66.9 
L 159.902333 -66.9 
L 158.846679 -66.9 
L 157.791025 -66.9 
L 156.735371 -66.9 
L 155.679717 -66.9 
L 154.624062 -66.9 
L 153.568408 -66.9 
L 152.512754 -66.9 
L 151.4571 -66.9 
L 150.401446 -66.9 
L 149.345792 -66.9 
L 148.290137 -66.9 
L 147.234483 -66.9 
L 146.178829 -66.9 
L 145.123175 -66.9 
L 144.067521 -66.9 
L 143.011867 -66.9 
L 141.956212 -66.9 
L 140.900558 -66.9 
L 139.844904 -66.9 
L 138.78925 -66.9 
L 137.733596 -66.9 
L 136.677942 -66.9 
L 135.622287 -66.9 
L 134.566633 -66.9 
L 133.510979 -66.9 
L 132.455325 -66.9 
L 131.399671 -66.9 
L 130.344017 -66.9 
L 129.288362 -66.9 
L 128.232708 -66.9 
L 127.177054 -66.9 
L 126.1214 -66.9 
L 125.065746 -66.9 
L 124.010092 -66.9 
L 122.954437 -66.9 
L 121.898783 -66.9 
L 120.843129 -66.9 
L 119.787475 -66.9 
L 118.731821 -66.9 
L 117.676167 -66.9 
L 116.620512 -66.9 
L 115.564858 -66.9 
L 114.509204 -66.9 
L 113.45355 -66.9 
L 112.397896 -66.9 
L 111.342242 -66.9 
L 110.286587 -66.9 
L 109.230933 -66.9 
L 108.175279 -66.9 
L 107.119625 -66.9 
L 106.063971 -66.9 
L 105.008317 -66.9 
L 103.952662 -66.9 
L 102.897008 -66.9 
L 101.841354 -66.9 
L 100.7857 -66.9 
L 99.730046 -66.9 
L 98.674392 -66.9 
L 97.618737 -66.9 
L 96.563083 -66.9 
L 95.507429 -66.9 
L 94.451775 -66.9 
L 93.396121 -66.9 
L 92.340467 -66.9 
L 91.284812 -66.9 
L 90.229158 -66.9 
L 89.173504 -66.9 
L 88.11785 -66.9 
L 87.062196 -66.9 
L 86.006542 -66.9 
L 84.950887 -66.9 
L 83.895233 -66.9 
L 82.839579 -66.9 
L 81.783925 -66.9 
L 80.728271 -66.9 
L 79.672617 -66.9 
L 78.616962 -66.9 
L 77.561308 -66.9 
L 76.505654 -66.9 
L 75.45 -66.9 
z
" style="stroke: #ffa500; stroke-opacity: 0.3; stroke-width: 1.5"/>
    </defs>
    <g clip-path="url(#paabe636bf0)">
     <use xlink:href="#m89093eae52" x="0" y="432" style="fill: #ffa500; fill-opacity: 0.3; stroke: #ffa500; stroke-opacity: 0.3; stroke-width: 1.5"/>
    </g>
   </g>
   <g id="PolyCollection_3">
    <defs>
     <path id="mc3f73ba2f6" d="M 75.45 -66.9 
L 75.45 -66.9 
L 76.505654 -66.9 
L 77.561308 -66.9 
L 78.616962 -66.9 
L 79.672617 -66.9 
L 80.728271 -66.9 
L 81.783925 -66.9 
L 82.839579 -66.9 
L 83.895233 -66.9 
L 84.950887 -66.9 
L 86.006542 -66.9 
L 87.062196 -66.9 
L 88.11785 -66.9 
L 89.173504 -66.9 
L 90.229158 -66.9 
L 91.284812 -66.9 
L 92.340467 -66.9 
L 93.396121 -66.9 
L 94.451775 -66.9 
L 95.507429 -66.9 
L 96.563083 -66.9 
L 97.618737 -66.9 
L 98.674392 -66.9 
L 99.730046 -66.9 
L 100.7857 -66.9 
L 101.841354 -66.9 
L 102.897008 -66.9 
L 103.952662 -66.9 
L 105.008317 -66.9 
L 106.063971 -66.9 
L 107.119625 -66.9 
L 108.175279 -66.9 
L 109.230933 -66.9 
L 110.286587 -66.9 
L 111.342242 -66.9 
L 112.397896 -66.9 
L 113.45355 -66.9 
L 114.509204 -66.9 
L 115.564858 -66.9 
L 116.620512 -66.9 
L 117.676167 -66.9 
L 118.731821 -66.9 
L 119.787475 -66.9 
L 120.843129 -66.9 
L 121.898783 -66.9 
L 122.954437 -66.9 
L 124.010092 -66.9 
L 125.065746 -66.9 
L 126.1214 -66.9 
L 127.177054 -66.9 
L 128.232708 -66.9 
L 129.288362 -66.9 
L 130.344017 -66.9 
L 131.399671 -66.9 
L 132.455325 -66.9 
L 133.510979 -66.9 
L 134.566633 -66.9 
L 135.622287 -66.9 
L 136.677942 -66.9 
L 137.733596 -66.9 
L 138.78925 -66.9 
L 139.844904 -66.9 
L 140.900558 -66.9 
L 141.956212 -66.9 
L 143.011867 -66.9 
L 144.067521 -66.9 
L 145.123175 -66.9 
L 146.178829 -66.9 
L 147.234483 -66.9 
L 148.290137 -66.9 
L 149.345792 -66.9 
L 150.401446 -66.9 
L 151.4571 -66.9 
L 152.512754 -66.9 
L 153.568408 -66.9 
L 154.624062 -66.9 
L 155.679717 -66.9 
L 156.735371 -66.9 
L 157.791025 -66.9 
L 158.846679 -66.9 
L 159.902333 -66.9 
L 160.957987 -66.9 
L 162.013642 -66.9 
L 163.069296 -66.9 
L 164.12495 -66.9 
L 165.180604 -66.9 
L 166.236258 -66.9 
L 167.291912 -66.9 
L 168.347567 -66.9 
L 169.403221 -66.9 
L 170.458875 -66.9 
L 171.514529 -66.9 
L 172.570183 -66.9 
L 173.625837 -66.9 
L 174.681492 -66.9 
L 175.737146 -66.9 
L 176.7928 -66.9 
L 177.848454 -66.9 
L 178.904108 -66.9 
L 179.959762 -66.9 
L 181.015417 -66.9 
L 182.071071 -66.9 
L 183.126725 -66.9 
L 184.182379 -66.9 
L 185.238033 -66.9 
L 186.293687 -66.9 
L 187.349342 -66.9 
L 188.404996 -66.9 
L 189.46065 -66.9 
L 190.516304 -66.9 
L 191.571958 -66.9 
L 192.627612 -66.9 
L 193.683267 -66.9 
L 194.738921 -66.9 
L 195.794575 -66.9 
L 196.850229 -66.9 
L 197.905883 -66.9 
L 198.961537 -66.9 
L 200.017192 -66.9 
L 201.072846 -66.9 
L 202.1285 -66.9 
L 203.184154 -66.9 
L 204.239808 -66.9 
L 205.295462 -66.9 
L 206.351117 -66.9 
L 207.406771 -66.9 
L 208.462425 -66.9 
L 209.518079 -66.9 
L 210.573733 -66.9 
L 211.629387 -66.9 
L 212.685042 -66.9 
L 213.740696 -66.9 
L 214.79635 -66.9 
L 215.852004 -66.9 
L 216.907658 -66.9 
L 217.963312 -66.9 
L 219.018967 -66.9 
L 220.074621 -66.9 
L 221.130275 -66.9 
L 222.185929 -66.9 
L 223.241583 -66.9 
L 224.297237 -66.9 
L 225.352891 -66.9 
L 226.408546 -66.9 
L 227.4642 -66.9 
L 228.519854 -66.9 
L 229.575508 -66.9 
L 230.631162 -66.9 
L 231.686816 -66.9 
L 232.742471 -66.9 
L 233.798125 -66.9 
L 234.853779 -66.9 
L 235.909433 -66.9 
L 236.965087 -66.9 
L 238.020741 -66.9 
L 239.076396 -66.9 
L 240.13205 -66.9 
L 241.187704 -66.9 
L 242.243358 -66.9 
L 243.299012 -66.9 
L 244.354666 -66.9 
L 245.410321 -66.9 
L 246.465975 -66.9 
L 247.521629 -66.9 
L 248.577283 -66.9 
L 249.632937 -66.9 
L 250.688591 -66.9 
L 251.744246 -66.9 
L 252.7999 -66.9 
L 253.855554 -66.9 
L 254.911208 -66.9 
L 255.966862 -66.9 
L 257.022516 -66.9 
L 258.078171 -66.9 
L 259.133825 -66.9 
L 260.189479 -66.9 
L 261.245133 -66.9 
L 262.300787 -66.9 
L 263.356441 -66.9 
L 264.412096 -66.9 
L 265.46775 -66.9 
L 266.523404 -66.9 
L 267.579058 -66.9 
L 268.634712 -66.9 
L 269.690366 -66.9 
L 270.746021 -66.9 
L 271.801675 -66.9 
L 272.857329 -66.9 
L 273.912983 -66.9 
L 274.968637 -66.9 
L 276.024291 -66.9 
L 277.079946 -66.9 
L 278.1356 -66.9 
L 279.191254 -66.9 
L 280.246908 -66.9 
L 281.302562 -66.9 
L 282.358216 -66.9 
L 283.413871 -66.9 
L 284.469525 -66.9 
L 285.525179 -66.9 
L 286.580833 -66.9 
L 287.636487 -66.9 
L 288.692141 -66.9 
L 289.747796 -66.9 
L 290.80345 -66.9 
L 291.859104 -66.9 
L 292.914758 -66.9 
L 293.970412 -66.9 
L 295.026066 -66.9 
L 296.081721 -66.9 
L 297.137375 -66.9 
L 298.193029 -66.9 
L 299.248683 -66.9 
L 300.304337 -66.9 
L 301.359991 -66.9 
L 302.415646 -66.9 
L 303.4713 -66.9 
L 304.526954 -66.9 
L 305.582608 -66.9 
L 306.638262 -66.9 
L 307.693916 -66.9 
L 308.749571 -66.9 
L 309.805225 -66.9 
L 310.860879 -66.9 
L 311.916533 -66.9 
L 312.972187 -66.9 
L 314.027841 -66.9 
L 315.083496 -66.9 
L 316.13915 -66.9 
L 317.194804 -66.9 
L 318.250458 -66.9 
L 319.306112 -66.9 
L 320.361766 -66.9 
L 321.417421 -66.9 
L 322.473075 -66.9 
L 323.528729 -66.9 
L 324.584383 -66.9 
L 325.640037 -66.9 
L 326.695691 -66.9 
L 327.751346 -66.9 
L 328.807 -66.9 
L 329.862654 -66.9 
L 330.918308 -66.9 
L 331.973962 -66.9 
L 333.029616 -66.9 
L 334.085271 -66.9 
L 335.140925 -66.9 
L 336.196579 -66.9 
L 337.252233 -66.9 
L 338.307887 -66.9 
L 339.363541 -66.9 
L 339.363541 -66.9 
L 339.363541 -66.9 
L 338.307887 -66.9 
L 337.252233 -66.9 
L 336.196579 -66.9 
L 335.140925 -66.9 
L 334.085271 -66.9 
L 333.029616 -66.9 
L 331.973962 -66.9 
L 330.918308 -66.9 
L 329.862654 -66.9 
L 328.807 -66.9 
L 327.751346 -66.9 
L 326.695691 -66.9 
L 325.640037 -66.9 
L 324.584383 -66.9 
L 323.528729 -66.9 
L 322.473075 -66.9 
L 321.417421 -66.9 
L 320.361766 -66.9 
L 319.306112 -66.9 
L 318.250458 -66.9 
L 317.194804 -66.9 
L 316.13915 -66.9 
L 315.083496 -66.9 
L 314.027841 -66.9 
L 312.972187 -66.9 
L 311.916533 -66.9 
L 310.860879 -66.9 
L 309.805225 -66.9 
L 308.749571 -66.9 
L 307.693916 -66.9 
L 306.638262 -66.9 
L 305.582608 -66.9 
L 304.526954 -66.9 
L 303.4713 -66.9 
L 302.415646 -66.9 
L 301.359991 -66.9 
L 300.304337 -66.9 
L 299.248683 -66.9 
L 298.193029 -66.9 
L 297.137375 -66.9 
L 296.081721 -66.9 
L 295.026066 -66.9 
L 293.970412 -66.9 
L 292.914758 -66.9 
L 291.859104 -66.9 
L 290.80345 -66.9 
L 289.747796 -66.9 
L 288.692141 -66.9 
L 287.636487 -66.9 
L 286.580833 -66.9 
L 285.525179 -66.9 
L 284.469525 -66.9 
L 283.413871 -66.9 
L 282.358216 -66.9 
L 281.302562 -66.9 
L 280.246908 -66.9 
L 279.191254 -66.9 
L 278.1356 -66.9 
L 277.079946 -66.9 
L 276.024291 -66.9 
L 274.968637 -66.9 
L 273.912983 -66.9 
L 272.857329 -66.9 
L 271.801675 -66.9 
L 270.746021 -66.9 
L 269.690366 -66.9 
L 268.634712 -66.9 
L 267.579058 -66.9 
L 266.523404 -66.9 
L 265.46775 -66.9 
L 264.412096 -66.9 
L 263.356441 -66.9 
L 262.300787 -66.9 
L 261.245133 -66.9 
L 260.189479 -66.9 
L 259.133825 -66.9 
L 258.078171 -66.9 
L 257.022516 -66.9 
L 255.966862 -66.9 
L 254.911208 -66.9 
L 253.855554 -66.9 
L 252.7999 -66.9 
L 251.744246 -66.9 
L 250.688591 -66.9 
L 249.632937 -66.9 
L 248.577283 -66.9 
L 247.521629 -66.9 
L 246.465975 -66.9 
L 245.410321 -66.9 
L 244.354666 -66.9 
L 243.299012 -66.9 
L 242.243358 -66.9 
L 241.187704 -66.9 
L 240.13205 -66.9 
L 239.076396 -66.9 
L 238.020741 -66.9 
L 236.965087 -66.9 
L 235.909433 -66.9 
L 234.853779 -66.9 
L 233.798125 -66.9 
L 232.742471 -66.9 
L 231.686816 -66.9 
L 230.631162 -66.9 
L 229.575508 -66.9 
L 228.519854 -66.9 
L 227.4642 -66.9 
L 226.408546 -66.9 
L 225.352891 -66.9 
L 224.297237 -66.9 
L 223.241583 -66.9 
L 222.185929 -66.9 
L 221.130275 -66.9 
L 220.074621 -66.9 
L 219.018967 -66.9 
L 217.963312 -66.9 
L 216.907658 -66.9 
L 215.852004 -66.9 
L 214.79635 -66.9 
L 213.740696 -66.9 
L 212.685042 -66.9 
L 211.629387 -66.9 
L 210.573733 -66.9 
L 209.518079 -66.9 
L 208.462425 -66.9 
L 207.406771 -66.9 
L 206.351117 -66.9 
L 205.295462 -66.9 
L 204.239808 -66.9 
L 203.184154 -66.9 
L 202.1285 -66.9 
L 201.072846 -66.9 
L 200.017192 -66.9 
L 198.961537 -66.9 
L 197.905883 -66.9 
L 196.850229 -66.9 
L 195.794575 -66.9 
L 194.738921 -66.9 
L 193.683267 -66.9 
L 192.627612 -66.9 
L 191.571958 -66.9 
L 190.516304 -66.9 
L 189.46065 -66.9 
L 188.404996 -66.9 
L 187.349342 -66.9 
L 186.293687 -66.9 
L 185.238033 -66.9 
L 184.182379 -66.9 
L 183.126725 -66.9 
L 182.071071 -66.9 
L 181.015417 -66.9 
L 179.959762 -66.9 
L 178.904108 -66.9 
L 177.848454 -66.9 
L 176.7928 -66.9 
L 175.737146 -66.9 
L 174.681492 -66.9 
L 173.625837 -66.9 
L 172.570183 -66.9 
L 171.514529 -66.9 
L 170.458875 -66.9 
L 169.403221 -66.9 
L 168.347567 -66.9 
L 167.291912 -66.9 
L 166.236258 -66.9 
L 165.180604 -66.9 
L 164.12495 -66.9 
L 163.069296 -66.9 
L 162.013642 -66.9 
L 160.957987 -66.9 
L 159.902333 -66.9 
L 158.846679 -66.9 
L 157.791025 -66.9 
L 156.735371 -66.9 
L 155.679717 -66.9 
L 154.624062 -66.9 
L 153.568408 -66.9 
L 152.512754 -66.9 
L 151.4571 -66.9 
L 150.401446 -66.9 
L 149.345792 -66.9 
L 148.290137 -66.9 
L 147.234483 -66.9 
L 146.178829 -66.9 
L 145.123175 -66.9 
L 144.067521 -66.9 
L 143.011867 -66.9 
L 141.956212 -66.9 
L 140.900558 -66.9 
L 139.844904 -66.9 
L 138.78925 -66.9 
L 137.733596 -66.9 
L 136.677942 -66.9 
L 135.622287 -66.9 
L 134.566633 -66.9 
L 133.510979 -66.9 
L 132.455325 -66.9 
L 131.399671 -66.9 
L 130.344017 -66.9 
L 129.288362 -66.9 
L 128.232708 -66.9 
L 127.177054 -66.9 
L 126.1214 -66.9 
L 125.065746 -66.9 
L 124.010092 -66.9 
L 122.954437 -66.9 
L 121.898783 -66.9 
L 120.843129 -66.9 
L 119.787475 -66.9 
L 118.731821 -66.9 
L 117.676167 -66.9 
L 116.620512 -66.9 
L 115.564858 -66.9 
L 114.509204 -66.9 
L 113.45355 -66.9 
L 112.397896 -66.9 
L 111.342242 -66.9 
L 110.286587 -66.9 
L 109.230933 -66.9 
L 108.175279 -66.9 
L 107.119625 -66.9 
L 106.063971 -66.9 
L 105.008317 -66.9 
L 103.952662 -66.9 
L 102.897008 -66.9 
L 101.841354 -66.9 
L 100.7857 -66.9 
L 99.730046 -66.9 
L 98.674392 -66.9 
L 97.618737 -66.9 
L 96.563083 -66.9 
L 95.507429 -66.9 
L 94.451775 -66.9 
L 93.396121 -66.9 
L 92.340467 -66.9 
L 91.284812 -66.9 
L 90.229158 -66.9 
L 89.173504 -66.9 
L 88.11785 -66.9 
L 87.062196 -66.9 
L 86.006542 -66.9 
L 84.950887 -66.9 
L 83.895233 -66.9 
L 82.839579 -66.9 
L 81.783925 -66.9 
L 80.728271 -66.9 
L 79.672617 -66.9 
L 78.616962 -66.9 
L 77.561308 -66.9 
L 76.505654 -66.9 
L 75.45 -66.9 
z
" style="stroke: #ffa500; stroke-opacity: 0.1; stroke-width: 1.5"/>
    </defs>
    <g clip-path="url(#paabe636bf0)">
     <use xlink:href="#mc3f73ba2f6" x="0" y="432" style="fill: #ffa500; fill-opacity: 0.1; stroke: #ffa500; stroke-opacity: 0.1; stroke-width: 1.5"/>
    </g>
   </g>
   <g id="PolyCollection_4"/>
   <g id="line2d_16">
    <path d="M 75.45 365.1 
L 461.819425 365.1 
L 462.875079 328.635172 
L 463.930733 365.1 
L 464.986387 365.278409 
L 466.042041 365.1 
L 467.097695 365.1 
L 468.15335 363.022994 
L 469.209004 365.078578 
L 475.542929 365.110996 
L 487.155125 365.1 
L 491.377741 365.099998 
L 491.576803 433 
M 493.289987 433 
L 493.48905 365.099991 
L 494.544704 365.110978 
L 494.943878 433 
M 496.256797 433 
L 496.656012 365.099929 
L 504.045591 365.101621 
L 505.101245 358.53264 
L 506.1569 365.063599 
L 508.268208 364.954392 
L 509.323862 364.808781 
L 510.379516 364.539549 
L 511.43517 363.935103 
L 512.490825 362.770184 
L 513.546479 360.451322 
L 514.602133 355.780566 
L 515.657787 349.274541 
L 516.713441 327.360986 
L 517.769095 290.542528 
L 518.824749 215.983564 
L 519.880404 66.875374 
L 521.991712 365.1 
L 532.548254 365.232675 
L 533.603908 365.101862 
L 540.993487 365.1 
L 546.271758 365.1 
L 557.883954 365.121992 
L 558.939608 402.989728 
L 559.995262 365.1 
L 565.273533 365.099999 
L 569.496149 365.099988 
L 570.551804 365.591429 
L 571.607458 365.09995 
L 583.219654 365.009351 
L 585.330962 364.697576 
L 586.386616 364.307095 
L 587.44227 363.47359 
L 588.497924 361.847138 
L 589.553579 358.664367 
L 590.609233 352.088207 
L 591.664887 339.07607 
L 592.720541 313.08444 
L 593.776195 261.001531 
L 594.831849 156.900315 
L 596.943158 365.1 
L 602.221429 365.1 
L 602.221429 365.1 
" clip-path="url(#paabe636bf0)" style="fill: none; stroke: #4c72b0; stroke-width: 2.25; stroke-linecap: round"/>
   </g>
   <g id="line2d_17">
    <path d="M 75.45 365.1 
L 602.221429 365.1 
L 602.221429 365.1 
" clip-path="url(#paabe636bf0)" style="fill: none; stroke: #008000; stroke-width: 0.5; stroke-linecap: round"/>
   </g>
   <g id="patch_3">
    <path d="M 75.45 365.1 
L 75.45 33.96 
" style="fill: none; stroke: #cccccc; stroke-width: 1.875; stroke-linejoin: miter; stroke-linecap: square"/>
   </g>
   <g id="patch_4">
    <path d="M 75.45 365.1 
L 628.56 365.1 
" style="fill: none; stroke: #cccccc; stroke-width: 1.875; stroke-linejoin: miter; stroke-linecap: square"/>
   </g>
   <g id="legend_1">
    <g id="patch_5">
     <path d="M 87 140.519063 
L 259.932891 140.519063 
Q 263.232891 140.519063 263.232891 137.219063 
L 263.232891 45.51 
Q 263.232891 42.21 259.932891 42.21 
L 87 42.21 
Q 83.7 42.21 83.7 45.51 
L 83.7 137.219063 
Q 83.7 140.519063 87 140.519063 
z
" style="fill: #ffffff; opacity: 0.8; stroke: #cccccc; stroke-width: 1.5; stroke-linejoin: miter"/>
    </g>
    <g id="line2d_18">
     <path d="M 90.3 54.845391 
L 106.8 54.845391 
L 123.3 54.845391 
" style="fill: none; stroke: #4c72b0; stroke-width: 2.25; stroke-linecap: round"/>
    </g>
    <g id="text_19">
     <!-- Média -->
     <g style="fill: #262626" transform="translate(136.5 60.620391) scale(0.165 -0.165)">
      <defs>
       <path id="ArialMT-4d" d="M 475 0 
L 475 4581 
L 1388 4581 
L 2472 1338 
Q 2622 884 2691 659 
Q 2769 909 2934 1394 
L 4031 4581 
L 4847 4581 
L 4847 0 
L 4263 0 
L 4263 3834 
L 2931 0 
L 2384 0 
L 1059 3900 
L 1059 0 
L 475 0 
z
" transform="scale(0.015625)"/>
       <path id="ArialMT-e9" d="M 2694 1069 
L 3275 997 
Q 3138 488 2766 206 
Q 2394 -75 1816 -75 
Q 1088 -75 661 373 
Q 234 822 234 1631 
Q 234 2469 665 2931 
Q 1097 3394 1784 3394 
Q 2450 3394 2872 2941 
Q 3294 2488 3294 1666 
Q 3294 1616 3291 1516 
L 816 1516 
Q 847 969 1125 678 
Q 1403 388 1819 388 
Q 2128 388 2347 550 
Q 2566 713 2694 1069 
z
M 847 1978 
L 2700 1978 
Q 2663 2397 2488 2606 
Q 2219 2931 1791 2931 
Q 1403 2931 1139 2672 
Q 875 2413 847 1978 
z
M 1454 3731 
L 1869 4606 
L 2607 4606 
L 1919 3731 
L 1454 3731 
z
" transform="scale(0.015625)"/>
       <path id="ArialMT-64" d="M 2575 0 
L 2575 419 
Q 2259 -75 1647 -75 
Q 1250 -75 917 144 
Q 584 363 401 755 
Q 219 1147 219 1656 
Q 219 2153 384 2558 
Q 550 2963 881 3178 
Q 1213 3394 1622 3394 
Q 1922 3394 2156 3267 
Q 2391 3141 2538 2938 
L 2538 4581 
L 3097 4581 
L 3097 0 
L 2575 0 
z
M 797 1656 
Q 797 1019 1065 703 
Q 1334 388 1700 388 
Q 2069 388 2326 689 
Q 2584 991 2584 1609 
Q 2584 2291 2321 2609 
Q 2059 2928 1675 2928 
Q 1300 2928 1048 2622 
Q 797 2316 797 1656 
z
" transform="scale(0.015625)"/>
       <path id="ArialMT-69" d="M 425 3934 
L 425 4581 
L 988 4581 
L 988 3934 
L 425 3934 
z
M 425 0 
L 425 3319 
L 988 3319 
L 988 0 
L 425 0 
z
" transform="scale(0.015625)"/>
      </defs>
      <use xlink:href="#ArialMT-4d"/>
      <use xlink:href="#ArialMT-e9" x="83.300781"/>
      <use xlink:href="#ArialMT-64" x="138.916016"/>
      <use xlink:href="#ArialMT-69" x="194.53125"/>
      <use xlink:href="#ArialMT-61" x="216.748047"/>
     </g>
    </g>
    <g id="patch_6">
     <path d="M 90.3 83.960156 
L 123.3 83.960156 
L 123.3 72.410156 
L 90.3 72.410156 
z
" style="fill: #ffa500; fill-opacity: 0.3; stroke: #ffa500; stroke-opacity: 0.3; stroke-width: 1.5; stroke-linejoin: miter"/>
    </g>
    <g id="text_20">
     <!-- 1 desvio -->
     <g style="fill: #262626" transform="translate(136.5 83.960156) scale(0.165 -0.165)">
      <defs>
       <path id="ArialMT-20" transform="scale(0.015625)"/>
       <path id="ArialMT-73" d="M 197 991 
L 753 1078 
Q 800 744 1014 566 
Q 1228 388 1613 388 
Q 2000 388 2187 545 
Q 2375 703 2375 916 
Q 2375 1106 2209 1216 
Q 2094 1291 1634 1406 
Q 1016 1563 777 1677 
Q 538 1791 414 1992 
Q 291 2194 291 2438 
Q 291 2659 392 2848 
Q 494 3038 669 3163 
Q 800 3259 1026 3326 
Q 1253 3394 1513 3394 
Q 1903 3394 2198 3281 
Q 2494 3169 2634 2976 
Q 2775 2784 2828 2463 
L 2278 2388 
Q 2241 2644 2061 2787 
Q 1881 2931 1553 2931 
Q 1166 2931 1000 2803 
Q 834 2675 834 2503 
Q 834 2394 903 2306 
Q 972 2216 1119 2156 
Q 1203 2125 1616 2013 
Q 2213 1853 2448 1751 
Q 2684 1650 2818 1456 
Q 2953 1263 2953 975 
Q 2953 694 2789 445 
Q 2625 197 2315 61 
Q 2006 -75 1616 -75 
Q 969 -75 630 194 
Q 291 463 197 991 
z
" transform="scale(0.015625)"/>
       <path id="ArialMT-76" d="M 1344 0 
L 81 3319 
L 675 3319 
L 1388 1331 
Q 1503 1009 1600 663 
Q 1675 925 1809 1294 
L 2547 3319 
L 3125 3319 
L 1869 0 
L 1344 0 
z
" transform="scale(0.015625)"/>
      </defs>
      <use xlink:href="#ArialMT-31"/>
      <use xlink:href="#ArialMT-20" x="55.615234"/>
      <use xlink:href="#ArialMT-64" x="83.398438"/>
      <use xlink:href="#ArialMT-65" x="139.013672"/>
      <use xlink:href="#ArialMT-73" x="194.628906"/>
      <use xlink:href="#ArialMT-76" x="244.628906"/>
      <use xlink:href="#ArialMT-69" x="294.628906"/>
      <use xlink:href="#ArialMT-6f" x="316.845703"/>
     </g>
    </g>
    <g id="patch_7">
     <path d="M 90.3 107.299922 
L 123.3 107.299922 
L 123.3 95.749922 
L 90.3 95.749922 
z
" style="fill: #ffa500; fill-opacity: 0.1; stroke: #ffa500; stroke-opacity: 0.1; stroke-width: 1.5; stroke-linejoin: miter"/>
    </g>
    <g id="text_21">
     <!-- 2 desvios -->
     <g style="fill: #262626" transform="translate(136.5 107.299922) scale(0.165 -0.165)">
      <use xlink:href="#ArialMT-32"/>
      <use xlink:href="#ArialMT-20" x="55.615234"/>
      <use xlink:href="#ArialMT-64" x="83.398438"/>
      <use xlink:href="#ArialMT-65" x="139.013672"/>
      <use xlink:href="#ArialMT-73" x="194.628906"/>
      <use xlink:href="#ArialMT-76" x="244.628906"/>
      <use xlink:href="#ArialMT-69" x="294.628906"/>
      <use xlink:href="#ArialMT-6f" x="316.845703"/>
      <use xlink:href="#ArialMT-73" x="372.460938"/>
     </g>
    </g>
    <g id="line2d_19">
     <path d="M 90.3 124.864688 
L 106.8 124.864688 
L 123.3 124.864688 
" style="fill: none; stroke: #008000; stroke-width: 0.5; stroke-linecap: round"/>
    </g>
    <g id="text_22">
     <!-- Uma caminhada -->
     <g style="fill: #262626" transform="translate(136.5 130.639688) scale(0.165 -0.165)">
      <defs>
       <path id="ArialMT-55" d="M 3500 4581 
L 4106 4581 
L 4106 1934 
Q 4106 1244 3950 837 
Q 3794 431 3386 176 
Q 2978 -78 2316 -78 
Q 1672 -78 1262 144 
Q 853 366 678 786 
Q 503 1206 503 1934 
L 503 4581 
L 1109 4581 
L 1109 1938 
Q 1109 1341 1220 1058 
Q 1331 775 1601 622 
Q 1872 469 2263 469 
Q 2931 469 3215 772 
Q 3500 1075 3500 1938 
L 3500 4581 
z
" transform="scale(0.015625)"/>
       <path id="ArialMT-63" d="M 2588 1216 
L 3141 1144 
Q 3050 572 2676 248 
Q 2303 -75 1759 -75 
Q 1078 -75 664 370 
Q 250 816 250 1647 
Q 250 2184 428 2587 
Q 606 2991 970 3192 
Q 1334 3394 1763 3394 
Q 2303 3394 2647 3120 
Q 2991 2847 3088 2344 
L 2541 2259 
Q 2463 2594 2264 2762 
Q 2066 2931 1784 2931 
Q 1359 2931 1093 2626 
Q 828 2322 828 1663 
Q 828 994 1084 691 
Q 1341 388 1753 388 
Q 2084 388 2306 591 
Q 2528 794 2588 1216 
z
" transform="scale(0.015625)"/>
       <path id="ArialMT-6e" d="M 422 0 
L 422 3319 
L 928 3319 
L 928 2847 
Q 1294 3394 1984 3394 
Q 2284 3394 2536 3286 
Q 2788 3178 2913 3003 
Q 3038 2828 3088 2588 
Q 3119 2431 3119 2041 
L 3119 0 
L 2556 0 
L 2556 2019 
Q 2556 2363 2490 2533 
Q 2425 2703 2258 2804 
Q 2091 2906 1866 2906 
Q 1506 2906 1245 2678 
Q 984 2450 984 1813 
L 984 0 
L 422 0 
z
" transform="scale(0.015625)"/>
       <path id="ArialMT-68" d="M 422 0 
L 422 4581 
L 984 4581 
L 984 2938 
Q 1378 3394 1978 3394 
Q 2347 3394 2619 3248 
Q 2891 3103 3008 2847 
Q 3125 2591 3125 2103 
L 3125 0 
L 2563 0 
L 2563 2103 
Q 2563 2525 2380 2717 
Q 2197 2909 1863 2909 
Q 1613 2909 1392 2779 
Q 1172 2650 1078 2428 
Q 984 2206 984 1816 
L 984 0 
L 422 0 
z
" transform="scale(0.015625)"/>
      </defs>
      <use xlink:href="#ArialMT-55"/>
      <use xlink:href="#ArialMT-6d" x="72.216797"/>
      <use xlink:href="#ArialMT-61" x="155.517578"/>
      <use xlink:href="#ArialMT-20" x="211.132812"/>
      <use xlink:href="#ArialMT-63" x="238.916016"/>
      <use xlink:href="#ArialMT-61" x="288.916016"/>
      <use xlink:href="#ArialMT-6d" x="344.53125"/>
      <use xlink:href="#ArialMT-69" x="427.832031"/>
      <use xlink:href="#ArialMT-6e" x="450.048828"/>
      <use xlink:href="#ArialMT-68" x="505.664062"/>
      <use xlink:href="#ArialMT-61" x="561.279297"/>
      <use xlink:href="#ArialMT-64" x="616.894531"/>
      <use xlink:href="#ArialMT-61" x="672.509766"/>
     </g>
    </g>
   </g>
  </g>
 </g>
 <defs>
  <clipPath id="paabe636bf0">
   <rect x="75.45" y="33.96" width="553.11" height="331.14"/>
  </clipPath>
 </defs>
</svg>
