<?xml version="1.0" encoding="utf-8" standalone="no"?>
<!DOCTYPE svg PUBLIC "-//W3C//DTD SVG 1.1//EN"
  "http://www.w3.org/Graphics/SVG/1.1/DTD/svg11.dtd">
<svg xmlns:xlink="http://www.w3.org/1999/xlink" width="648pt" height="432pt" viewBox="0 0 648 432" xmlns="http://www.w3.org/2000/svg" version="1.1">
 <metadata>
  <rdf:RDF xmlns:dc="http://purl.org/dc/elements/1.1/" xmlns:cc="http://creativecommons.org/ns#" xmlns:rdf="http://www.w3.org/1999/02/22-rdf-syntax-ns#">
   <cc:Work>
    <dc:type rdf:resource="http://purl.org/dc/dcmitype/StillImage"/>
    <dc:date>2024-10-07T09:40:08.767475</dc:date>
    <dc:format>image/svg+xml</dc:format>
    <dc:creator>
     <cc:Agent>
      <dc:title>Matplotlib v3.9.2, https://matplotlib.org/</dc:title>
     </cc:Agent>
    </dc:creator>
   </cc:Work>
  </rdf:RDF>
 </metadata>
 <defs>
  <style type="text/css">*{stroke-linejoin: round; stroke-linecap: butt}</style>
 </defs>
 <g id="figure_1">
  <g id="patch_1">
   <path d="M 0 432 
L 648 432 
L 648 0 
L 0 0 
z
" style="fill: #ffffff"/>
  </g>
  <g id="axes_1">
   <g id="patch_2">
    <path d="M 71.31 365.1 
L 614.79 365.1 
L 614.79 19.44 
L 71.31 19.44 
z
" style="fill: #ffffff"/>
   </g>
   <g id="matplotlib.axis_1">
    <g id="xtick_1">
     <g id="line2d_1">
      <path d="M 71.31 365.1 
L 71.31 19.44 
" clip-path="url(#pb86a7ddb1d)" style="fill: none; stroke: #cccccc; stroke-width: 1.5; stroke-linecap: round"/>
     </g>
     <g id="text_1">
      <!-- 0 -->
      <g style="fill: #262626" transform="translate(66.722227 389.410391) scale(0.165 -0.165)">
       <defs>
        <path id="ArialMT-30" d="M 266 2259 
Q 266 3072 433 3567 
Q 600 4063 929 4331 
Q 1259 4600 1759 4600 
Q 2128 4600 2406 4451 
Q 2684 4303 2865 4023 
Q 3047 3744 3150 3342 
Q 3253 2941 3253 2259 
Q 3253 1453 3087 958 
Q 2922 463 2592 192 
Q 2263 -78 1759 -78 
Q 1097 -78 719 397 
Q 266 969 266 2259 
z
M 844 2259 
Q 844 1131 1108 757 
Q 1372 384 1759 384 
Q 2147 384 2411 759 
Q 2675 1134 2675 2259 
Q 2675 3391 2411 3762 
Q 2147 4134 1753 4134 
Q 1366 4134 1134 3806 
Q 844 3388 844 2259 
z
" transform="scale(0.015625)"/>
       </defs>
       <use xlink:href="#ArialMT-30"/>
      </g>
     </g>
    </g>
    <g id="xtick_2">
     <g id="line2d_2">
      <path d="M 180.006 365.1 
L 180.006 19.44 
" clip-path="url(#pb86a7ddb1d)" style="fill: none; stroke: #cccccc; stroke-width: 1.5; stroke-linecap: round"/>
     </g>
     <g id="text_2">
      <!-- 20 -->
      <g style="fill: #262626" transform="translate(170.830453 389.410391) scale(0.165 -0.165)">
       <defs>
        <path id="ArialMT-32" d="M 3222 541 
L 3222 0 
L 194 0 
Q 188 203 259 391 
Q 375 700 629 1000 
Q 884 1300 1366 1694 
Q 2113 2306 2375 2664 
Q 2638 3022 2638 3341 
Q 2638 3675 2398 3904 
Q 2159 4134 1775 4134 
Q 1369 4134 1125 3890 
Q 881 3647 878 3216 
L 300 3275 
Q 359 3922 746 4261 
Q 1134 4600 1788 4600 
Q 2447 4600 2831 4234 
Q 3216 3869 3216 3328 
Q 3216 3053 3103 2787 
Q 2991 2522 2730 2228 
Q 2469 1934 1863 1422 
Q 1356 997 1212 845 
Q 1069 694 975 541 
L 3222 541 
z
" transform="scale(0.015625)"/>
       </defs>
       <use xlink:href="#ArialMT-32"/>
       <use xlink:href="#ArialMT-30" x="55.615234"/>
      </g>
     </g>
    </g>
    <g id="xtick_3">
     <g id="line2d_3">
      <path d="M 288.702 365.1 
L 288.702 19.44 
" clip-path="url(#pb86a7ddb1d)" style="fill: none; stroke: #cccccc; stroke-width: 1.5; stroke-linecap: round"/>
     </g>
     <g id="text_3">
      <!-- 40 -->
      <g style="fill: #262626" transform="translate(279.526453 389.410391) scale(0.165 -0.165)">
       <defs>
        <path id="ArialMT-34" d="M 2069 0 
L 2069 1097 
L 81 1097 
L 81 1613 
L 2172 4581 
L 2631 4581 
L 2631 1613 
L 3250 1613 
L 3250 1097 
L 2631 1097 
L 2631 0 
L 2069 0 
z
M 2069 1613 
L 2069 3678 
L 634 1613 
L 2069 1613 
z
" transform="scale(0.015625)"/>
       </defs>
       <use xlink:href="#ArialMT-34"/>
       <use xlink:href="#ArialMT-30" x="55.615234"/>
      </g>
     </g>
    </g>
    <g id="xtick_4">
     <g id="line2d_4">
      <path d="M 397.398 365.1 
L 397.398 19.44 
" clip-path="url(#pb86a7ddb1d)" style="fill: none; stroke: #cccccc; stroke-width: 1.5; stroke-linecap: round"/>
     </g>
     <g id="text_4">
      <!-- 60 -->
      <g style="fill: #262626" transform="translate(388.222453 389.410391) scale(0.165 -0.165)">
       <defs>
        <path id="ArialMT-36" d="M 3184 3459 
L 2625 3416 
Q 2550 3747 2413 3897 
Q 2184 4138 1850 4138 
Q 1581 4138 1378 3988 
Q 1113 3794 959 3422 
Q 806 3050 800 2363 
Q 1003 2672 1297 2822 
Q 1591 2972 1913 2972 
Q 2475 2972 2870 2558 
Q 3266 2144 3266 1488 
Q 3266 1056 3080 686 
Q 2894 316 2569 119 
Q 2244 -78 1831 -78 
Q 1128 -78 684 439 
Q 241 956 241 2144 
Q 241 3472 731 4075 
Q 1159 4600 1884 4600 
Q 2425 4600 2770 4297 
Q 3116 3994 3184 3459 
z
M 888 1484 
Q 888 1194 1011 928 
Q 1134 663 1356 523 
Q 1578 384 1822 384 
Q 2178 384 2434 671 
Q 2691 959 2691 1453 
Q 2691 1928 2437 2201 
Q 2184 2475 1800 2475 
Q 1419 2475 1153 2201 
Q 888 1928 888 1484 
z
" transform="scale(0.015625)"/>
       </defs>
       <use xlink:href="#ArialMT-36"/>
       <use xlink:href="#ArialMT-30" x="55.615234"/>
      </g>
     </g>
    </g>
    <g id="xtick_5">
     <g id="line2d_5">
      <path d="M 506.094 365.1 
L 506.094 19.44 
" clip-path="url(#pb86a7ddb1d)" style="fill: none; stroke: #cccccc; stroke-width: 1.5; stroke-linecap: round"/>
     </g>
     <g id="text_5">
      <!-- 80 -->
      <g style="fill: #262626" transform="translate(496.918453 389.410391) scale(0.165 -0.165)">
       <defs>
        <path id="ArialMT-38" d="M 1131 2484 
Q 781 2613 612 2850 
Q 444 3088 444 3419 
Q 444 3919 803 4259 
Q 1163 4600 1759 4600 
Q 2359 4600 2725 4251 
Q 3091 3903 3091 3403 
Q 3091 3084 2923 2848 
Q 2756 2613 2416 2484 
Q 2838 2347 3058 2040 
Q 3278 1734 3278 1309 
Q 3278 722 2862 322 
Q 2447 -78 1769 -78 
Q 1091 -78 675 323 
Q 259 725 259 1325 
Q 259 1772 486 2073 
Q 713 2375 1131 2484 
z
M 1019 3438 
Q 1019 3113 1228 2906 
Q 1438 2700 1772 2700 
Q 2097 2700 2305 2904 
Q 2513 3109 2513 3406 
Q 2513 3716 2298 3927 
Q 2084 4138 1766 4138 
Q 1444 4138 1231 3931 
Q 1019 3725 1019 3438 
z
M 838 1322 
Q 838 1081 952 856 
Q 1066 631 1291 507 
Q 1516 384 1775 384 
Q 2178 384 2440 643 
Q 2703 903 2703 1303 
Q 2703 1709 2433 1975 
Q 2163 2241 1756 2241 
Q 1359 2241 1098 1978 
Q 838 1716 838 1322 
z
" transform="scale(0.015625)"/>
       </defs>
       <use xlink:href="#ArialMT-38"/>
       <use xlink:href="#ArialMT-30" x="55.615234"/>
      </g>
     </g>
    </g>
    <g id="xtick_6">
     <g id="line2d_6">
      <path d="M 614.79 365.1 
L 614.79 19.44 
" clip-path="url(#pb86a7ddb1d)" style="fill: none; stroke: #cccccc; stroke-width: 1.5; stroke-linecap: round"/>
     </g>
     <g id="text_6">
      <!-- 100 -->
      <g style="fill: #262626" transform="translate(601.02668 389.410391) scale(0.165 -0.165)">
       <defs>
        <path id="ArialMT-31" d="M 2384 0 
L 1822 0 
L 1822 3584 
Q 1619 3391 1289 3197 
Q 959 3003 697 2906 
L 697 3450 
Q 1169 3672 1522 3987 
Q 1875 4303 2022 4600 
L 2384 4600 
L 2384 0 
z
" transform="scale(0.015625)"/>
       </defs>
       <use xlink:href="#ArialMT-31"/>
       <use xlink:href="#ArialMT-30" x="55.615234"/>
       <use xlink:href="#ArialMT-30" x="111.230469"/>
      </g>
     </g>
    </g>
    <g id="text_7">
     <!-- Tempo -->
     <g style="fill: #262626" transform="translate(316.042969 409.573828) scale(0.18 -0.18)">
      <defs>
       <path id="ArialMT-54" d="M 1659 0 
L 1659 4041 
L 150 4041 
L 150 4581 
L 3781 4581 
L 3781 4041 
L 2266 4041 
L 2266 0 
L 1659 0 
z
" transform="scale(0.015625)"/>
       <path id="ArialMT-65" d="M 2694 1069 
L 3275 997 
Q 3138 488 2766 206 
Q 2394 -75 1816 -75 
Q 1088 -75 661 373 
Q 234 822 234 1631 
Q 234 2469 665 2931 
Q 1097 3394 1784 3394 
Q 2450 3394 2872 2941 
Q 3294 2488 3294 1666 
Q 3294 1616 3291 1516 
L 816 1516 
Q 847 969 1125 678 
Q 1403 388 1819 388 
Q 2128 388 2347 550 
Q 2566 713 2694 1069 
z
M 847 1978 
L 2700 1978 
Q 2663 2397 2488 2606 
Q 2219 2931 1791 2931 
Q 1403 2931 1139 2672 
Q 875 2413 847 1978 
z
" transform="scale(0.015625)"/>
       <path id="ArialMT-6d" d="M 422 0 
L 422 3319 
L 925 3319 
L 925 2853 
Q 1081 3097 1340 3245 
Q 1600 3394 1931 3394 
Q 2300 3394 2536 3241 
Q 2772 3088 2869 2813 
Q 3263 3394 3894 3394 
Q 4388 3394 4653 3120 
Q 4919 2847 4919 2278 
L 4919 0 
L 4359 0 
L 4359 2091 
Q 4359 2428 4304 2576 
Q 4250 2725 4106 2815 
Q 3963 2906 3769 2906 
Q 3419 2906 3187 2673 
Q 2956 2441 2956 1928 
L 2956 0 
L 2394 0 
L 2394 2156 
Q 2394 2531 2256 2718 
Q 2119 2906 1806 2906 
Q 1569 2906 1367 2781 
Q 1166 2656 1075 2415 
Q 984 2175 984 1722 
L 984 0 
L 422 0 
z
" transform="scale(0.015625)"/>
       <path id="ArialMT-70" d="M 422 -1272 
L 422 3319 
L 934 3319 
L 934 2888 
Q 1116 3141 1344 3267 
Q 1572 3394 1897 3394 
Q 2322 3394 2647 3175 
Q 2972 2956 3137 2557 
Q 3303 2159 3303 1684 
Q 3303 1175 3120 767 
Q 2938 359 2589 142 
Q 2241 -75 1856 -75 
Q 1575 -75 1351 44 
Q 1128 163 984 344 
L 984 -1272 
L 422 -1272 
z
M 931 1641 
Q 931 1000 1190 694 
Q 1450 388 1819 388 
Q 2194 388 2461 705 
Q 2728 1022 2728 1688 
Q 2728 2322 2467 2637 
Q 2206 2953 1844 2953 
Q 1484 2953 1207 2617 
Q 931 2281 931 1641 
z
" transform="scale(0.015625)"/>
       <path id="ArialMT-6f" d="M 213 1659 
Q 213 2581 725 3025 
Q 1153 3394 1769 3394 
Q 2453 3394 2887 2945 
Q 3322 2497 3322 1706 
Q 3322 1066 3130 698 
Q 2938 331 2570 128 
Q 2203 -75 1769 -75 
Q 1072 -75 642 372 
Q 213 819 213 1659 
z
M 791 1659 
Q 791 1022 1069 705 
Q 1347 388 1769 388 
Q 2188 388 2466 706 
Q 2744 1025 2744 1678 
Q 2744 2294 2464 2611 
Q 2184 2928 1769 2928 
Q 1347 2928 1069 2612 
Q 791 2297 791 1659 
z
" transform="scale(0.015625)"/>
      </defs>
      <use xlink:href="#ArialMT-54"/>
      <use xlink:href="#ArialMT-65" x="49.958984"/>
      <use xlink:href="#ArialMT-6d" x="105.574219"/>
      <use xlink:href="#ArialMT-70" x="188.875"/>
      <use xlink:href="#ArialMT-6f" x="244.490234"/>
     </g>
    </g>
   </g>
   <g id="matplotlib.axis_2">
    <g id="ytick_1">
     <g id="line2d_7">
      <path d="M 71.31 330.534 
L 614.79 330.534 
" clip-path="url(#pb86a7ddb1d)" style="fill: none; stroke: #cccccc; stroke-width: 1.5; stroke-linecap: round"/>
     </g>
     <g id="text_8">
      <!-- −4 -->
      <g style="fill: #262626" transform="translate(39.997422 336.439195) scale(0.165 -0.165)">
       <defs>
        <path id="ArialMT-2212" d="M 3381 1997 
L 356 1997 
L 356 2522 
L 3381 2522 
L 3381 1997 
z
" transform="scale(0.015625)"/>
       </defs>
       <use xlink:href="#ArialMT-2212"/>
       <use xlink:href="#ArialMT-34" x="58.398438"/>
      </g>
     </g>
    </g>
    <g id="ytick_2">
     <g id="line2d_8">
      <path d="M 71.31 261.402 
L 614.79 261.402 
" clip-path="url(#pb86a7ddb1d)" style="fill: none; stroke: #cccccc; stroke-width: 1.5; stroke-linecap: round"/>
     </g>
     <g id="text_9">
      <!-- −2 -->
      <g style="fill: #262626" transform="translate(39.997422 267.307195) scale(0.165 -0.165)">
       <use xlink:href="#ArialMT-2212"/>
       <use xlink:href="#ArialMT-32" x="58.398438"/>
      </g>
     </g>
    </g>
    <g id="ytick_3">
     <g id="line2d_9">
      <path d="M 71.31 192.27 
L 614.79 192.27 
" clip-path="url(#pb86a7ddb1d)" style="fill: none; stroke: #cccccc; stroke-width: 1.5; stroke-linecap: round"/>
     </g>
     <g id="text_10">
      <!-- 0 -->
      <g style="fill: #262626" transform="translate(49.634453 198.175195) scale(0.165 -0.165)">
       <use xlink:href="#ArialMT-30"/>
      </g>
     </g>
    </g>
    <g id="ytick_4">
     <g id="line2d_10">
      <path d="M 71.31 123.138 
L 614.79 123.138 
" clip-path="url(#pb86a7ddb1d)" style="fill: none; stroke: #cccccc; stroke-width: 1.5; stroke-linecap: round"/>
     </g>
     <g id="text_11">
      <!-- 2 -->
      <g style="fill: #262626" transform="translate(49.634453 129.043195) scale(0.165 -0.165)">
       <use xlink:href="#ArialMT-32"/>
      </g>
     </g>
    </g>
    <g id="ytick_5">
     <g id="line2d_11">
      <path d="M 71.31 54.006 
L 614.79 54.006 
" clip-path="url(#pb86a7ddb1d)" style="fill: none; stroke: #cccccc; stroke-width: 1.5; stroke-linecap: round"/>
     </g>
     <g id="text_12">
      <!-- 4 -->
      <g style="fill: #262626" transform="translate(49.634453 59.911195) scale(0.165 -0.165)">
       <use xlink:href="#ArialMT-34"/>
      </g>
     </g>
    </g>
    <g id="text_13">
     <!-- Valor -->
     <g style="fill: #262626" transform="translate(32.419922 212.615625) rotate(-90) scale(0.18 -0.18)">
      <defs>
       <path id="ArialMT-56" d="M 1803 0 
L 28 4581 
L 684 4581 
L 1875 1253 
Q 2019 853 2116 503 
Q 2222 878 2363 1253 
L 3600 4581 
L 4219 4581 
L 2425 0 
L 1803 0 
z
" transform="scale(0.015625)"/>
       <path id="ArialMT-61" d="M 2588 409 
Q 2275 144 1986 34 
Q 1697 -75 1366 -75 
Q 819 -75 525 192 
Q 231 459 231 875 
Q 231 1119 342 1320 
Q 453 1522 633 1644 
Q 813 1766 1038 1828 
Q 1203 1872 1538 1913 
Q 2219 1994 2541 2106 
Q 2544 2222 2544 2253 
Q 2544 2597 2384 2738 
Q 2169 2928 1744 2928 
Q 1347 2928 1158 2789 
Q 969 2650 878 2297 
L 328 2372 
Q 403 2725 575 2942 
Q 747 3159 1072 3276 
Q 1397 3394 1825 3394 
Q 2250 3394 2515 3294 
Q 2781 3194 2906 3042 
Q 3031 2891 3081 2659 
Q 3109 2516 3109 2141 
L 3109 1391 
Q 3109 606 3145 398 
Q 3181 191 3288 0 
L 2700 0 
Q 2613 175 2588 409 
z
M 2541 1666 
Q 2234 1541 1622 1453 
Q 1275 1403 1131 1340 
Q 988 1278 909 1158 
Q 831 1038 831 891 
Q 831 666 1001 516 
Q 1172 366 1500 366 
Q 1825 366 2078 508 
Q 2331 650 2450 897 
Q 2541 1088 2541 1459 
L 2541 1666 
z
" transform="scale(0.015625)"/>
       <path id="ArialMT-6c" d="M 409 0 
L 409 4581 
L 972 4581 
L 972 0 
L 409 0 
z
" transform="scale(0.015625)"/>
       <path id="ArialMT-72" d="M 416 0 
L 416 3319 
L 922 3319 
L 922 2816 
Q 1116 3169 1280 3281 
Q 1444 3394 1641 3394 
Q 1925 3394 2219 3213 
L 2025 2691 
Q 1819 2813 1613 2813 
Q 1428 2813 1281 2702 
Q 1134 2591 1072 2394 
Q 978 2094 978 1738 
L 978 0 
L 416 0 
z
" transform="scale(0.015625)"/>
      </defs>
      <use xlink:href="#ArialMT-56"/>
      <use xlink:href="#ArialMT-61" x="59.324219"/>
      <use xlink:href="#ArialMT-6c" x="114.939453"/>
      <use xlink:href="#ArialMT-6f" x="137.15625"/>
      <use xlink:href="#ArialMT-72" x="192.771484"/>
     </g>
    </g>
   </g>
   <g id="PolyCollection_1"/>
   <g id="PolyCollection_2"/>
   <g id="line2d_12">
    <path d="M 71.31 192.27 
L 73.488277 178.783849 
L 74.577415 172.71828 
L 75.666553 167.435292 
L 76.755691 163.146345 
L 77.84483 160.023109 
L 78.933968 158.190596 
L 80.023106 157.722153 
L 81.112244 158.636531 
L 82.201383 160.897131 
L 83.290521 164.413469 
L 84.379659 169.0448 
L 85.468798 174.605749 
L 87.647074 187.597865 
L 90.914489 207.78939 
L 92.003627 213.627069 
L 93.092766 218.609906 
L 94.181904 222.538454 
L 95.271042 225.255469 
L 96.36018 226.6522 
L 97.449319 226.67274 
L 98.538457 225.316267 
L 99.627595 222.637076 
L 100.716733 218.742404 
L 101.805872 213.788141 
L 102.89501 207.972588 
L 105.073287 194.713865 
L 107.251563 181.067783 
L 108.340701 174.782556 
L 109.42984 169.197285 
L 110.518978 164.535529 
L 111.608116 160.98388 
L 112.697255 158.684497 
L 113.786393 157.729416 
L 114.875531 158.156865 
L 115.964669 159.949735 
L 117.053808 163.036265 
L 118.142946 167.292911 
L 119.232084 172.549297 
L 121.410361 185.188119 
L 124.677776 205.566855 
L 125.766914 211.652048 
L 126.856052 216.961451 
L 127.94519 221.282547 
L 129.034329 224.442379 
L 130.123467 226.314472 
L 131.212605 226.823891 
L 132.301743 225.950248 
L 133.390882 223.728511 
L 134.48002 220.247607 
L 135.569158 215.646865 
L 136.658297 210.110434 
L 138.836573 197.145499 
L 142.103988 176.934356 
L 143.193126 171.074756 
L 144.282265 166.063522 
L 145.371403 162.101236 
L 146.460541 159.346492 
L 147.549679 157.909553 
L 148.638818 157.847934 
L 149.727956 159.164102 
L 150.817094 161.805374 
L 151.906232 165.666032 
L 152.995371 170.591546 
L 154.084509 176.384768 
L 156.262786 189.621361 
L 158.441062 203.27777 
L 159.5302 209.580021 
L 160.619339 215.189416 
L 161.708477 219.881433 
L 162.797615 223.468267 
L 163.886754 225.806352 
L 164.975892 226.802102 
L 166.06503 226.415661 
L 167.154168 224.662498 
L 168.243307 221.612784 
L 169.332445 217.388588 
L 170.421583 212.158989 
L 172.59986 199.552732 
L 175.867275 179.16291 
L 176.956413 173.058308 
L 178.045551 167.722678 
L 179.134689 163.369585 
L 180.223828 160.173268 
L 181.312966 158.261663 
L 182.402104 157.711284 
L 183.491242 158.544161 
L 184.580381 160.726957 
L 185.669519 164.172303 
L 186.758657 168.742295 
L 187.847796 174.254013 
L 190.026072 187.191309 
L 193.293487 207.421358 
L 194.382625 213.302671 
L 195.471764 218.342125 
L 196.560902 222.33801 
L 197.65004 225.130385 
L 198.739178 226.607481 
L 199.828317 226.710177 
L 200.917455 225.434362 
L 202.006593 222.831101 
L 203.095731 219.004594 
L 204.18487 214.108001 
L 205.274008 208.337315 
L 207.452285 195.123319 
L 209.630561 181.457065 
L 210.719699 175.138013 
L 211.808838 169.504691 
L 212.897976 164.78258 
L 213.987114 161.160686 
L 215.076253 158.783982 
L 216.165391 157.747598 
L 217.254529 158.093017 
L 218.343667 159.806412 
L 219.432806 162.819203 
L 220.521944 167.010799 
L 221.611082 172.213426 
L 223.789359 184.786675 
L 227.056774 205.186862 
L 228.145912 211.310658 
L 229.23505 216.672328 
L 230.324188 221.057263 
L 231.413327 224.289953 
L 232.502465 226.241003 
L 233.591603 226.832321 
L 234.680741 226.04024 
L 235.76988 223.896461 
L 236.859018 220.486794 
L 237.948156 215.947715 
L 239.037295 210.460905 
L 241.215571 197.551704 
L 244.482986 177.303464 
L 245.572124 171.400645 
L 246.661263 166.333147 
L 247.750401 162.303806 
L 248.839539 159.473898 
L 249.928677 157.956696 
L 251.017816 157.812927 
L 252.106954 159.048345 
L 253.196092 161.613502 
L 254.28523 165.405724 
L 255.374369 170.273222 
L 256.463507 176.021169 
L 258.641784 189.212101 
L 260.82006 202.887719 
L 261.909198 209.223348 
L 262.998337 214.880398 
L 264.087475 219.632438 
L 265.176613 223.289262 
L 266.265752 225.704501 
L 267.35489 226.781483 
L 268.444028 226.477099 
L 269.533166 224.803533 
L 270.622305 221.827771 
L 271.711443 217.668923 
L 272.800581 212.49345 
L 274.978858 199.953654 
L 278.246273 179.543821 
L 279.335411 173.401048 
L 280.424549 168.013528 
L 281.513687 163.596904 
L 282.602826 160.327957 
L 283.691964 158.33753 
L 284.781102 157.705293 
L 285.87024 158.456551 
L 286.959379 160.561236 
L 288.048517 163.935103 
L 289.137655 168.443111 
L 290.226794 173.904819 
L 292.40507 186.78547 
L 295.672485 207.051187 
L 296.761623 212.975304 
L 297.850762 218.070665 
L 298.9399 222.133322 
L 300.029038 225.000662 
L 301.118176 226.557916 
L 302.207315 226.742753 
L 303.296453 225.547775 
L 304.385591 223.020813 
L 305.474729 219.26301 
L 306.563868 214.424779 
L 307.653006 208.699774 
L 309.831283 195.532371 
L 313.098697 175.495889 
L 314.187836 169.815311 
L 315.276974 165.03351 
L 316.366112 161.341884 
L 317.455251 158.888194 
L 318.544389 157.770654 
L 319.633527 158.033992 
L 320.722665 159.66767 
L 321.811804 162.606298 
L 322.900942 166.732252 
L 323.99008 171.880386 
L 326.168357 184.386288 
L 329.435772 204.805047 
L 330.52491 210.966581 
L 331.614048 216.37976 
L 332.703186 220.827917 
L 333.792325 224.133007 
L 334.881463 226.16274 
L 335.970601 226.835873 
L 337.059739 226.125464 
L 338.148878 224.059948 
L 339.238016 220.721999 
L 340.327154 216.245223 
L 341.416293 210.808809 
L 343.594569 197.957163 
L 346.861984 177.674684 
L 347.951122 171.729479 
L 349.040261 166.606434 
L 350.129399 162.510605 
L 351.218537 159.605933 
L 352.307675 158.008682 
L 353.396814 157.782783 
L 354.485952 158.937278 
L 355.57509 161.425957 
L 356.664228 165.149208 
L 357.753367 169.958003 
L 358.842505 175.659863 
L 361.020782 188.803273 
L 364.288196 208.864282 
L 365.377335 214.568188 
L 366.466473 219.379581 
L 367.555611 223.105879 
L 368.644749 225.597932 
L 369.733888 226.755992 
L 370.823026 226.533708 
L 371.912164 224.939976 
L 373.001303 222.038587 
L 374.090441 217.945673 
L 375.179579 212.825057 
L 377.357856 200.353491 
L 380.625271 179.926528 
L 381.714409 173.746451 
L 382.803547 168.307802 
L 383.892685 163.82827 
L 384.981824 160.487154 
L 386.070962 158.418187 
L 387.1601 157.70418 
L 388.249238 158.373715 
L 389.338377 160.39999 
L 390.427515 163.701903 
L 391.516653 168.147289 
L 392.605792 173.558218 
L 394.784068 186.380405 
L 398.051483 206.67893 
L 399.140621 212.645014 
L 400.22976 217.795562 
L 401.318898 221.924418 
L 402.408036 224.866319 
L 403.497174 226.503511 
L 404.586313 226.770464 
L 405.675451 225.656492 
L 406.764589 223.206184 
L 407.853727 219.517617 
L 408.942866 214.738429 
L 410.032004 209.059914 
L 412.210281 195.940961 
L 415.477695 175.856133 
L 416.566834 170.1291 
L 417.655972 165.288285 
L 418.74511 161.527447 
L 419.834248 158.997118 
L 420.923387 157.798578 
L 422.012525 157.9798 
L 423.101663 159.533531 
L 424.190802 162.397579 
L 425.27994 166.457309 
L 426.369078 171.550224 
L 428.547355 183.987014 
L 431.81477 204.421462 
L 432.903908 210.619864 
L 433.993046 216.08379 
L 435.082184 220.594539 
L 436.171323 223.971563 
L 437.260461 226.079692 
L 438.349599 226.834546 
L 439.438737 226.20591 
L 440.527876 224.218947 
L 441.617014 220.953188 
L 442.706152 216.539347 
L 443.795291 211.154096 
L 445.973567 198.361819 
L 449.240982 178.047965 
L 450.33012 172.061212 
L 451.419259 166.883342 
L 452.508397 162.721605 
L 453.597535 159.742579 
L 454.686673 158.065504 
L 455.775812 157.757507 
L 456.86495 158.830916 
L 457.954088 161.242766 
L 459.043226 164.89652 
L 460.132365 169.645932 
L 461.221503 175.300901 
L 463.39978 188.394934 
L 466.667194 208.502874 
L 467.756333 214.252831 
L 468.845471 219.122897 
L 469.934609 222.918143 
L 471.023747 225.486658 
L 472.112886 226.725635 
L 473.202024 226.585481 
L 474.291162 225.071808 
L 475.380301 222.245201 
L 476.469439 218.218798 
L 477.558577 213.153763 
L 479.736854 200.752188 
L 484.093407 174.094469 
L 485.182545 168.605458 
L 486.271683 164.063651 
L 487.360822 160.650838 
L 488.44996 158.503622 
L 489.539098 157.707947 
L 490.628236 158.295662 
L 491.717375 160.243243 
L 492.806513 163.472734 
L 493.895651 167.854873 
L 494.98479 173.214257 
L 497.163066 185.976171 
L 500.430481 206.304639 
L 501.519619 212.311848 
L 502.608758 217.516857 
L 503.697896 221.71133 
L 504.787034 224.727375 
L 505.876172 226.444274 
L 506.965311 226.793305 
L 508.054449 225.760496 
L 509.143587 223.387189 
L 510.232725 219.768377 
L 511.321864 215.048908 
L 512.411002 209.417685 
L 514.589279 196.349034 
L 517.856693 176.218693 
L 518.945832 170.446014 
L 520.03497 165.546868 
L 521.124108 161.717349 
L 522.213246 159.110738 
L 523.302385 157.831368 
L 524.391523 157.930448 
L 525.480661 159.404012 
L 526.5698 162.193077 
L 527.658938 166.18601 
L 528.748076 171.222987 
L 530.926353 183.588909 
L 535.282906 210.270557 
L 536.372044 215.784459 
L 537.461182 220.357164 
L 538.550321 223.805645 
L 539.639459 225.991873 
L 540.728597 226.82834 
L 541.817735 226.281567 
L 542.906874 224.373437 
L 543.996012 221.180328 
L 545.08515 216.830046 
L 546.174289 211.496717 
L 548.352565 198.765616 
L 551.61998 178.423253 
L 552.709118 172.395798 
L 553.798257 167.163834 
L 554.887395 162.936775 
L 555.976533 159.883816 
L 557.065671 158.127154 
L 558.15481 157.737102 
L 559.243948 158.729273 
L 560.333086 161.063954 
L 561.422224 164.647696 
L 562.511363 169.337055 
L 563.600501 174.944335 
L 565.778778 187.987142 
L 569.046192 208.139174 
L 570.135331 213.934371 
L 571.224469 218.862423 
L 572.313607 222.726081 
L 573.402745 225.370696 
L 574.491884 226.690413 
L 575.581022 226.632411 
L 576.67016 225.19901 
L 577.759299 222.447583 
L 578.848437 218.488262 
L 579.937575 213.479521 
L 581.026713 207.621843 
L 583.20499 194.322112 
L 585.383267 180.697115 
L 586.472405 174.445052 
L 587.561543 168.906455 
L 588.650681 164.303012 
L 589.73982 160.818984 
L 590.828958 158.593822 
L 591.918096 157.716592 
L 593.007234 158.222405 
L 594.096373 160.091016 
L 595.185511 163.247631 
L 596.274649 167.565902 
L 597.363788 172.872987 
L 599.542064 185.572826 
L 602.809479 205.928367 
L 603.898617 211.975854 
L 604.987756 217.234589 
L 606.076894 221.494085 
L 607.166032 224.583851 
L 608.25517 226.380214 
L 609.344309 226.811272 
L 610.433447 225.859774 
L 611.522585 223.563802 
L 612.611723 220.015256 
L 613.700862 215.356172 
L 614.79 209.773035 
L 614.79 209.773035 
" clip-path="url(#pb86a7ddb1d)" style="fill: none; stroke: #4c72b0; stroke-width: 2.25; stroke-linecap: round"/>
   </g>
   <g id="line2d_13">
    <path d="M 71.31 192.27 
L 72.399138 192.224393 
L 73.488277 191.913962 
L 74.577415 191.106824 
L 75.666553 189.622862 
L 76.755691 187.347672 
L 77.84483 184.242038 
L 78.933968 180.346463 
L 81.112244 170.737303 
L 83.290521 160.291381 
L 84.379659 155.528449 
L 85.468798 151.529815 
L 86.557936 148.630744 
L 87.647074 147.134664 
L 88.736212 147.293109 
L 89.825351 149.28796 
L 90.914489 153.216983 
L 92.003627 159.083505 
L 93.092766 166.790836 
L 94.181904 176.141852 
L 96.36018 198.518484 
L 99.627595 234.648417 
L 100.716733 245.314139 
L 101.805872 254.41712 
L 102.89501 261.485419 
L 103.984148 266.116114 
L 105.073287 267.996719 
L 106.162425 266.923009 
L 107.251563 262.812314 
L 108.340701 255.711572 
L 109.42984 245.799647 
L 110.518978 233.383687 
L 111.608116 218.889555 
L 113.786393 185.867737 
L 115.964669 151.81977 
L 117.053808 136.158279 
L 118.142946 122.315846 
L 119.232084 110.909793 
L 120.321222 102.471025 
L 121.410361 97.419341 
L 122.499499 96.043048 
L 123.588637 98.48386 
L 124.677776 104.727824 
L 125.766914 114.602743 
L 126.856052 127.782334 
L 127.94519 143.797018 
L 130.123467 181.844951 
L 133.390882 242.521318 
L 134.48002 260.439615 
L 135.569158 275.908895 
L 136.658297 288.265731 
L 137.747435 296.964246 
L 138.836573 301.600317 
L 139.925711 301.930157 
L 141.01485 297.882461 
L 142.103988 289.563521 
L 143.193126 277.255029 
L 144.282265 261.40459 
L 145.371403 242.60926 
L 147.549679 199.177051 
L 150.817094 132.526316 
L 151.906232 113.506804 
L 152.995371 97.4572 
L 154.084509 85.050763 
L 155.173647 76.819348 
L 156.262786 73.130528 
L 157.351924 74.171255 
L 158.441062 79.938781 
L 159.5302 90.239274 
L 160.619339 104.694216 
L 161.708477 122.754401 
L 163.886754 166.77276 
L 167.154168 239.099465 
L 168.243307 261.0402 
L 169.332445 280.365095 
L 170.421583 296.282993 
L 171.510721 308.135312 
L 172.59986 315.423439 
L 173.688998 317.829763 
L 174.778136 315.231479 
L 175.867275 307.706572 
L 176.956413 295.531684 
L 178.045551 279.171929 
L 179.134689 259.263029 
L 181.312966 212.038601 
L 184.580381 137.084118 
L 185.669519 115.006003 
L 186.758657 95.930544 
L 187.847796 80.633707 
L 188.936934 69.742632 
L 190.026072 63.709829 
L 191.11521 62.794338 
L 192.204349 67.050624 
L 193.293487 76.325692 
L 194.382625 90.264552 
L 195.471764 108.323847 
L 196.560902 129.79312 
L 198.739178 179.458289 
L 202.006593 255.688824 
L 203.095731 277.473266 
L 204.18487 295.906356 
L 205.274008 310.241547 
L 206.363146 319.894782 
L 207.452285 324.468344 
L 208.541423 323.76727 
L 209.630561 317.807648 
L 210.719699 306.816446 
L 211.808838 291.222854 
L 212.897976 271.64149 
L 215.076253 223.748797 
L 218.343667 144.847281 
L 219.432806 120.85811 
L 220.521944 99.683799 
L 221.611082 82.176718 
L 222.70022 69.043722 
L 223.789359 60.817562 
L 224.878497 57.835231 
L 225.967635 60.224148 
L 227.056774 67.896723 
L 228.145912 80.553554 
L 229.23505 97.695125 
L 230.324188 118.641554 
L 232.502465 168.495873 
L 235.76988 247.898925 
L 236.859018 271.361884 
L 237.948156 291.687795 
L 239.037295 308.05964 
L 240.126433 319.817856 
L 241.215571 326.486929 
L 242.304709 327.794658 
L 243.393848 323.683268 
L 244.482986 314.311943 
L 245.572124 300.050667 
L 246.661263 281.465595 
L 247.750401 259.296558 
L 249.928677 207.851568 
L 253.196092 128.592722 
L 254.28523 105.859782 
L 255.374369 86.566611 
L 256.463507 71.487882 
L 257.552645 61.230103 
L 258.641784 56.207198 
L 259.730922 56.623796 
L 260.82006 62.466881 
L 261.909198 73.506172 
L 262.998337 89.303203 
L 264.087475 109.228745 
L 265.176613 132.487895 
L 267.35489 185.194809 
L 269.533166 239.079682 
L 270.622305 263.764846 
L 271.711443 285.602069 
L 272.800581 303.715991 
L 273.889719 317.379861 
L 274.978858 326.044711 
L 276.067996 329.361429 
L 277.157134 327.194832 
L 278.246273 319.629176 
L 279.335411 306.964886 
L 280.424549 289.706618 
L 281.513687 268.543145 
L 283.691964 218.004932 
L 286.959379 137.199885 
L 288.048517 113.242795 
L 289.137655 92.439774 
L 290.226794 75.624425 
L 291.315932 63.47101 
L 292.40507 56.467403 
L 293.494208 54.8955 
L 294.583347 58.819863 
L 295.672485 68.085067 
L 296.761623 82.321863 
L 297.850762 100.96189 
L 298.9399 123.260376 
L 301.118176 175.156058 
L 304.385591 255.405522 
L 305.474729 278.501375 
L 306.563868 298.151722 
L 307.653006 313.569363 
L 308.742144 324.136343 
L 309.831283 329.428727 
L 310.920421 329.233613 
L 312.009559 323.557697 
L 313.098697 312.627056 
L 314.187836 296.878138 
L 315.276974 276.940332 
L 316.366112 253.610814 
L 318.544389 200.607533 
L 320.722665 146.265863 
L 321.811804 121.314241 
L 322.900942 99.198406 
L 323.99008 80.803912 
L 325.079218 66.867496 
L 326.168357 57.947569 
L 327.257495 54.401836 
L 328.346633 56.372948 
L 329.435772 63.782758 
L 330.52491 76.335423 
L 331.614048 93.529214 
L 332.703186 114.676574 
L 334.881463 165.323955 
L 338.148878 246.591366 
L 339.238016 270.758481 
L 340.327154 291.786858 
L 341.416293 308.83456 
L 342.505431 321.218897 
L 343.594569 328.44376 
L 344.683707 330.219502 
L 345.772846 326.474554 
L 346.861984 317.358305 
L 347.951122 303.235147 
L 349.040261 284.669909 
L 350.129399 262.405263 
L 352.307675 210.453458 
L 355.57509 129.844477 
L 356.664228 106.573371 
L 357.753367 86.730481 
L 358.842505 71.110225 
L 359.931643 60.33806 
L 361.020782 54.845439 
L 362.10992 54.852527 
L 363.199058 60.359377 
L 364.288196 71.14591 
L 365.377335 86.780714 
L 366.466473 106.638296 
L 367.555611 129.924111 
L 369.733888 182.953236 
L 371.912164 237.46409 
L 373.001303 262.546291 
L 374.090441 284.816936 
L 375.179579 303.384531 
L 376.268717 317.505755 
L 377.357856 326.615222 
L 378.446994 330.348117 
L 379.536132 328.554812 
L 380.625271 321.306857 
L 381.714409 308.894132 
L 382.803547 291.813252 
L 383.892685 270.747694 
L 386.070962 220.160298 
L 389.338377 138.719862 
L 390.427515 114.43309 
L 391.516653 93.260944 
L 392.605792 76.05093 
L 393.69493 63.491991 
L 394.784068 56.086931 
L 395.873206 54.132283 
L 396.962345 57.706431 
L 398.051483 66.66647 
L 399.140621 80.653915 
L 400.22976 99.10905 
L 401.318898 121.293319 
L 403.497174 173.184177 
L 406.764589 253.95709 
L 407.853727 277.343373 
L 408.942866 297.325082 
L 410.032004 313.102378 
L 411.121142 324.043689 
L 412.210281 329.710994 
L 413.299419 329.87736 
L 414.388557 324.536025 
L 415.477695 313.900681 
L 416.566834 298.396918 
L 417.655972 278.645195 
L 418.74511 255.436011 
L 420.923387 202.462079 
L 423.101663 147.871206 
L 424.190802 122.701544 
L 425.27994 100.316032 
L 426.369078 81.610697 
L 427.458216 67.334279 
L 428.547355 58.058255 
L 429.636493 54.153966 
L 430.725631 55.777751 
L 431.81477 62.864683 
L 432.903908 75.131169 
L 433.993046 92.086297 
L 435.082184 113.05148 
L 437.260461 163.528689 
L 440.527876 245.052236 
L 441.617014 269.42971 
L 442.706152 290.719047 
L 443.795291 308.0681 
L 444.884429 320.782426 
L 445.973567 328.353085 
L 447.062705 330.477014 
L 448.151844 327.069156 
L 449.240982 318.265867 
L 450.33012 304.419464 
L 451.419259 286.084121 
L 452.508397 263.993689 
L 454.686673 212.199115 
L 457.954088 131.323873 
L 459.043226 107.841901 
L 460.132365 87.739085 
L 461.221503 71.820076 
L 462.310641 60.722071 
L 463.39978 54.889304 
L 464.488918 54.555266 
L 465.578056 59.733357 
L 466.667194 70.216349 
L 467.756333 85.584679 
L 468.845471 105.223241 
L 469.934609 128.346004 
L 472.112886 181.239745 
L 474.291162 235.882241 
L 475.380301 261.12535 
L 476.469439 283.612565 
L 477.558577 302.443803 
L 478.647715 316.865311 
L 479.736854 326.299838 
L 480.825992 330.369737 
L 481.91513 328.91209 
L 483.004269 321.985217 
L 484.093407 309.866356 
L 485.182545 293.040557 
L 486.271683 272.181274 
L 488.44996 221.829888 
L 491.717375 140.252377 
L 492.806513 115.793821 
L 493.895651 94.396233 
L 494.98479 76.916084 
L 496.073928 64.053044 
L 497.163066 56.321982 
L 498.252204 54.032355 
L 499.341343 57.27582 
L 500.430481 65.922567 
L 501.519619 79.626516 
L 502.608758 97.839161 
L 503.697896 119.831532 
L 505.876172 171.518358 
L 509.143587 252.475286 
L 510.232725 276.046281 
L 511.321864 296.264083 
L 512.411002 312.319446 
L 513.50014 323.569729 
L 514.589279 329.564618 
L 515.678417 330.064154 
L 516.767555 325.048333 
L 517.856693 314.717909 
L 518.945832 299.486362 
L 520.03497 279.963344 
L 521.124108 256.930279 
L 523.302385 204.12528 
L 525.480661 149.441061 
L 526.5698 124.129446 
L 527.658938 101.545204 
L 528.748076 82.592298 
L 529.837214 68.029343 
L 530.926353 58.439244 
L 532.015491 54.205861 
L 533.104629 55.498645 
L 534.193768 62.265857 
L 535.282906 74.236638 
L 536.372044 90.931848 
L 537.461182 111.683248 
L 539.639459 161.903127 
L 542.906874 243.523852 
L 543.996012 268.059915 
L 545.08515 289.562417 
L 546.174289 307.170694 
L 547.263427 320.17995 
L 548.352565 328.069472 
L 549.441703 330.523467 
L 550.530842 327.44371 
L 551.61998 318.953464 
L 552.709118 305.392561 
L 553.798257 287.303786 
L 554.887395 265.411162 
L 557.065671 213.836651 
L 560.333086 132.806245 
L 561.422224 109.148873 
L 562.511363 88.81851 
L 563.600501 72.628906 
L 564.689639 61.228071 
L 565.778778 55.07234 
L 566.867916 54.408106 
L 567.957054 59.261958 
L 569.046192 69.439617 
L 570.135331 84.533713 
L 571.224469 103.940089 
L 572.313607 126.881982 
L 574.491884 179.594462 
L 576.67016 234.316086 
L 577.759299 259.694067 
L 578.848437 282.373327 
L 579.937575 301.4461 
L 581.026713 316.148973 
L 582.115852 325.893445 
L 583.20499 330.289481 
L 584.294128 329.161122 
L 585.383267 322.55353 
L 586.472405 310.73118 
L 587.561543 294.167275 
L 588.650681 273.524804 
L 590.828958 223.439296 
L 594.096373 141.78058 
L 595.185511 117.168712 
L 596.274649 95.562859 
L 597.363788 77.827824 
L 598.452926 64.673472 
L 599.542064 56.626325 
L 600.631202 54.00848 
L 601.720341 56.924721 
L 602.809479 65.258324 
L 603.898617 78.675725 
L 604.987756 96.63988 
L 606.076894 118.43175 
L 608.25517 169.891358 
L 611.522585 250.990784 
L 612.611723 274.73314 
L 613.700862 295.17481 
L 614.79 311.49759 
L 614.79 311.49759 
" clip-path="url(#pb86a7ddb1d)" style="fill: none; stroke: #dd8452; stroke-width: 2.25; stroke-linecap: round"/>
   </g>
   <g id="patch_3">
    <path d="M 71.31 365.1 
L 71.31 19.44 
" style="fill: none; stroke: #cccccc; stroke-width: 1.875; stroke-linejoin: miter; stroke-linecap: square"/>
   </g>
   <g id="patch_4">
    <path d="M 71.31 365.1 
L 614.79 365.1 
" style="fill: none; stroke: #cccccc; stroke-width: 1.875; stroke-linejoin: miter; stroke-linecap: square"/>
   </g>
   <g id="legend_1">
    <g id="patch_5">
     <path d="M 82.86 356.85 
L 193.446094 356.85 
Q 196.746094 356.85 196.746094 353.55 
L 196.746094 308.520469 
Q 196.746094 305.220469 193.446094 305.220469 
L 82.86 305.220469 
Q 79.56 305.220469 79.56 308.520469 
L 79.56 353.55 
Q 79.56 356.85 82.86 356.85 
z
" style="fill: #ffffff; opacity: 0.8; stroke: #cccccc; stroke-width: 1.5; stroke-linejoin: miter"/>
    </g>
    <g id="line2d_14">
     <path d="M 86.16 317.855859 
L 102.66 317.855859 
L 119.16 317.855859 
" style="fill: none; stroke: #4c72b0; stroke-width: 2.25; stroke-linecap: round"/>
    </g>
    <g id="text_14">
     <!-- Entrada -->
     <g style="fill: #262626" transform="translate(132.36 323.630859) scale(0.165 -0.165)">
      <defs>
       <path id="ArialMT-45" d="M 506 0 
L 506 4581 
L 3819 4581 
L 3819 4041 
L 1113 4041 
L 1113 2638 
L 3647 2638 
L 3647 2100 
L 1113 2100 
L 1113 541 
L 3925 541 
L 3925 0 
L 506 0 
z
" transform="scale(0.015625)"/>
       <path id="ArialMT-6e" d="M 422 0 
L 422 3319 
L 928 3319 
L 928 2847 
Q 1294 3394 1984 3394 
Q 2284 3394 2536 3286 
Q 2788 3178 2913 3003 
Q 3038 2828 3088 2588 
Q 3119 2431 3119 2041 
L 3119 0 
L 2556 0 
L 2556 2019 
Q 2556 2363 2490 2533 
Q 2425 2703 2258 2804 
Q 2091 2906 1866 2906 
Q 1506 2906 1245 2678 
Q 984 2450 984 1813 
L 984 0 
L 422 0 
z
" transform="scale(0.015625)"/>
       <path id="ArialMT-74" d="M 1650 503 
L 1731 6 
Q 1494 -44 1306 -44 
Q 1000 -44 831 53 
Q 663 150 594 308 
Q 525 466 525 972 
L 525 2881 
L 113 2881 
L 113 3319 
L 525 3319 
L 525 4141 
L 1084 4478 
L 1084 3319 
L 1650 3319 
L 1650 2881 
L 1084 2881 
L 1084 941 
Q 1084 700 1114 631 
Q 1144 563 1211 522 
Q 1278 481 1403 481 
Q 1497 481 1650 503 
z
" transform="scale(0.015625)"/>
       <path id="ArialMT-64" d="M 2575 0 
L 2575 419 
Q 2259 -75 1647 -75 
Q 1250 -75 917 144 
Q 584 363 401 755 
Q 219 1147 219 1656 
Q 219 2153 384 2558 
Q 550 2963 881 3178 
Q 1213 3394 1622 3394 
Q 1922 3394 2156 3267 
Q 2391 3141 2538 2938 
L 2538 4581 
L 3097 4581 
L 3097 0 
L 2575 0 
z
M 797 1656 
Q 797 1019 1065 703 
Q 1334 388 1700 388 
Q 2069 388 2326 689 
Q 2584 991 2584 1609 
Q 2584 2291 2321 2609 
Q 2059 2928 1675 2928 
Q 1300 2928 1048 2622 
Q 797 2316 797 1656 
z
" transform="scale(0.015625)"/>
      </defs>
      <use xlink:href="#ArialMT-45"/>
      <use xlink:href="#ArialMT-6e" x="66.699219"/>
      <use xlink:href="#ArialMT-74" x="122.314453"/>
      <use xlink:href="#ArialMT-72" x="150.097656"/>
      <use xlink:href="#ArialMT-61" x="183.398438"/>
      <use xlink:href="#ArialMT-64" x="239.013672"/>
      <use xlink:href="#ArialMT-61" x="294.628906"/>
     </g>
    </g>
    <g id="line2d_15">
     <path d="M 86.16 341.195625 
L 102.66 341.195625 
L 119.16 341.195625 
" style="fill: none; stroke: #dd8452; stroke-width: 2.25; stroke-linecap: round"/>
    </g>
    <g id="text_15">
     <!-- Saída -->
     <g style="fill: #262626" transform="translate(132.36 346.970625) scale(0.165 -0.165)">
      <defs>
       <path id="ArialMT-53" d="M 288 1472 
L 859 1522 
Q 900 1178 1048 958 
Q 1197 738 1509 602 
Q 1822 466 2213 466 
Q 2559 466 2825 569 
Q 3091 672 3220 851 
Q 3350 1031 3350 1244 
Q 3350 1459 3225 1620 
Q 3100 1781 2813 1891 
Q 2628 1963 1997 2114 
Q 1366 2266 1113 2400 
Q 784 2572 623 2826 
Q 463 3081 463 3397 
Q 463 3744 659 4045 
Q 856 4347 1234 4503 
Q 1613 4659 2075 4659 
Q 2584 4659 2973 4495 
Q 3363 4331 3572 4012 
Q 3781 3694 3797 3291 
L 3216 3247 
Q 3169 3681 2898 3903 
Q 2628 4125 2100 4125 
Q 1550 4125 1298 3923 
Q 1047 3722 1047 3438 
Q 1047 3191 1225 3031 
Q 1400 2872 2139 2705 
Q 2878 2538 3153 2413 
Q 3553 2228 3743 1945 
Q 3934 1663 3934 1294 
Q 3934 928 3725 604 
Q 3516 281 3123 101 
Q 2731 -78 2241 -78 
Q 1619 -78 1198 103 
Q 778 284 539 648 
Q 300 1013 288 1472 
z
" transform="scale(0.015625)"/>
       <path id="ArialMT-ed" d="M 619 0 
L 619 3319 
L 1181 3319 
L 1181 0 
L 619 0 
z
M 590 3731 
L 1005 4606 
L 1743 4606 
L 1055 3731 
L 590 3731 
z
" transform="scale(0.015625)"/>
      </defs>
      <use xlink:href="#ArialMT-53"/>
      <use xlink:href="#ArialMT-61" x="66.699219"/>
      <use xlink:href="#ArialMT-ed" x="122.314453"/>
      <use xlink:href="#ArialMT-64" x="150.097656"/>
      <use xlink:href="#ArialMT-61" x="205.712891"/>
     </g>
    </g>
   </g>
  </g>
 </g>
 <defs>
  <clipPath id="pb86a7ddb1d">
   <rect x="71.31" y="19.44" width="543.48" height="345.66"/>
  </clipPath>
 </defs>
</svg>
